{"glyphs":{"0":{"ha":707,"x_min":65,"x_max":642,"o":"m 353 -15 q 144 63 222 -15 q 65 272 65 142 l 65 700 q 144 908 65 831 q 353 986 222 986 q 563 908 485 986 q 642 700 642 831 l 642 272 q 563 63 642 142 q 353 -15 485 -15 m 353 125 q 446 163 411 125 q 481 263 481 200 l 481 707 q 446 808 481 771 q 353 846 411 846 q 261 808 296 846 q 226 707 226 771 l 226 263 q 261 163 226 200 q 353 125 296 125 z "},"1":{"ha":435,"x_min":38,"x_max":357,"o":"m 186 968 q 207 972 193 972 l 340 972 q 352 967 347 972 q 357 956 357 963 l 357 17 q 352 5 357 10 q 340 0 347 0 l 213 0 q 201 5 206 0 q 196 17 196 10 l 196 804 q 193 810 196 807 q 188 811 190 813 l 61 776 l 56 775 q 42 790 42 775 l 38 883 q 49 903 38 897 l 186 968 z "},"2":{"ha":678,"x_min":53,"x_max":631,"o":"m 261 147 q 260 142 258 144 q 265 139 261 139 l 614 139 q 626 134 621 139 q 631 122 631 129 l 631 17 q 626 5 631 10 q 614 0 621 0 l 74 0 q 62 5 67 0 q 57 17 57 10 l 57 124 q 64 144 57 133 q 343 497 215 328 q 447 719 447 640 q 415 810 447 776 q 331 844 383 844 q 247 811 279 844 q 215 722 215 778 l 215 676 q 210 665 215 669 q 199 660 206 660 l 69 660 q 58 665 63 660 q 53 676 53 669 l 53 736 q 136 915 58 847 q 333 983 214 983 q 479 949 417 983 q 576 856 542 915 q 610 721 610 796 q 583 590 610 657 q 500 447 556 524 q 329 231 449 375 q 261 147 306 203 z "},"3":{"ha":664,"x_min":47,"x_max":603,"o":"m 575 463 q 603 306 603 394 q 574 150 603 217 q 483 31 544 72 q 326 -11 421 -11 q 147 45 219 -11 q 57 196 75 101 q 47 290 50 236 q 64 307 47 307 l 192 307 q 208 290 208 307 q 217 224 211 251 q 254 153 225 179 q 326 128 283 128 q 394 150 367 128 q 433 213 422 172 q 444 318 444 261 q 431 431 444 388 q 326 511 403 511 q 279 497 304 511 q 268 493 274 493 q 256 499 261 493 l 192 571 q 186 583 186 576 q 190 594 186 590 l 394 825 q 390 833 401 833 l 78 833 q 66 838 71 833 q 61 850 61 843 l 61 956 q 66 967 61 963 q 78 972 71 972 l 581 972 q 592 967 588 972 q 597 956 597 963 l 597 844 q 590 825 597 832 l 407 607 q 410 599 403 600 q 510 555 468 590 q 575 463 553 519 z "},"4":{"ha":725,"x_min":39,"x_max":678,"o":"m 661 399 q 673 394 668 399 q 678 382 678 389 l 678 271 q 673 259 678 264 q 661 254 668 254 l 611 254 q 604 247 604 254 l 604 17 q 599 5 604 10 q 588 0 594 0 l 460 0 q 448 5 453 0 q 443 17 443 10 l 443 247 q 436 254 443 254 l 56 254 q 44 259 49 254 q 39 271 39 264 l 39 361 q 43 382 39 369 l 269 960 q 289 972 274 972 l 425 972 q 439 953 446 972 l 225 407 q 226 401 224 404 q 231 399 228 399 l 436 399 q 443 406 443 399 l 443 585 q 448 597 443 592 q 460 601 453 601 l 588 601 q 599 597 594 601 q 604 585 604 592 l 604 406 q 611 399 604 399 l 661 399 z "},"5":{"ha":664,"x_min":63,"x_max":618,"o":"m 596 461 q 618 304 618 396 q 604 181 618 231 q 510 40 579 89 q 339 -10 442 -10 q 166 42 236 -10 q 74 189 96 93 q 64 244 65 225 l 64 247 q 81 261 64 261 l 210 261 q 226 246 224 261 l 229 229 l 236 210 q 274 150 247 171 q 339 129 300 129 q 408 153 381 129 q 446 222 436 178 q 456 303 456 253 q 446 390 456 353 q 408 453 436 432 q 339 474 381 474 q 273 456 301 474 q 231 406 244 439 q 213 392 226 392 l 79 392 q 67 397 72 392 q 63 408 63 401 l 63 956 q 67 967 63 963 q 79 972 72 972 l 576 972 q 588 967 583 972 q 593 956 593 963 l 593 850 q 588 838 593 843 q 576 833 583 833 l 231 833 q 224 826 224 833 l 224 568 q 226 563 224 564 q 232 565 229 563 q 297 601 260 589 q 375 614 335 614 q 514 574 457 614 q 596 461 571 535 z "},"6":{"ha":665,"x_min":63,"x_max":619,"o":"m 593 449 q 619 304 619 385 q 601 178 619 239 q 512 39 579 88 q 342 -10 444 -10 q 181 35 246 -10 q 89 163 115 79 l 86 171 q 64 299 64 221 l 63 736 q 138 916 63 849 q 336 983 214 983 q 526 916 453 983 q 600 739 600 849 l 600 707 q 595 695 600 700 q 583 690 590 690 l 456 690 q 444 695 449 690 q 439 707 439 700 l 439 725 q 410 809 439 776 q 336 842 381 842 q 256 809 288 842 q 225 722 225 776 l 225 574 q 228 568 225 569 q 233 569 231 567 q 363 618 286 618 q 508 573 449 618 q 593 449 568 528 m 444 215 q 457 308 457 260 q 440 411 457 365 q 340 485 414 485 q 239 410 265 485 q 225 306 225 369 q 236 213 225 251 q 340 129 260 129 q 444 215 421 129 z "},"7":{"ha":611,"x_min":29,"x_max":590,"o":"m 163 0 q 151 5 154 0 q 150 19 147 10 l 418 825 q 413 833 421 833 l 168 833 q 161 826 161 833 l 161 771 q 156 759 161 764 q 144 754 151 754 l 46 754 q 34 759 39 754 q 29 771 29 764 l 31 956 q 35 967 31 963 q 47 972 40 972 l 574 972 q 585 967 581 972 q 590 956 590 963 l 590 844 q 588 824 590 832 l 318 14 q 300 0 314 0 l 163 0 z "},"8":{"ha":672,"x_min":57,"x_max":615,"o":"m 583 429 q 615 279 615 365 q 588 143 615 203 q 491 30 556 71 q 336 -11 426 -11 q 183 29 250 -11 q 83 143 117 69 q 57 281 57 207 q 86 426 57 358 q 157 507 111 479 q 158 517 164 511 q 94 589 118 544 q 64 721 64 644 q 107 875 64 811 q 201 959 140 929 q 336 989 261 989 q 472 960 413 989 q 565 876 531 931 q 610 721 610 807 q 576 588 610 646 q 513 518 553 546 q 513 508 507 513 q 583 429 558 481 m 239 788 q 222 711 222 754 q 242 628 222 663 q 280 585 256 600 q 336 571 304 571 q 433 631 403 571 q 450 713 450 664 q 433 789 450 758 q 395 833 421 817 q 335 850 369 850 q 278 834 303 850 q 239 788 253 818 m 436 200 q 453 292 453 238 q 436 389 453 351 q 336 456 406 456 q 276 438 301 456 q 238 388 250 419 q 221 292 221 349 q 238 200 221 238 q 276 147 250 165 q 336 128 301 128 q 397 147 371 128 q 436 200 422 165 z "},"9":{"ha":667,"x_min":49,"x_max":604,"o":"m 581 801 q 604 674 604 747 l 604 236 q 529 56 604 124 q 331 -11 454 -11 q 140 56 214 -11 q 67 233 67 124 l 67 265 q 72 277 67 272 q 83 282 76 282 l 211 282 q 223 277 218 282 q 228 265 228 272 l 228 247 q 257 163 228 196 q 332 131 286 131 q 412 163 381 131 q 443 250 443 196 l 443 400 q 440 406 443 404 q 435 404 438 407 q 304 354 385 354 q 158 399 218 354 q 74 524 99 444 q 49 668 49 585 q 65 794 49 739 q 155 933 88 885 q 325 982 222 982 q 486 938 421 982 q 578 810 551 893 l 581 801 m 428 563 q 443 667 443 607 q 432 760 443 713 q 394 822 421 800 q 328 843 367 843 q 222 757 246 843 q 211 664 211 718 q 226 561 211 603 q 328 488 254 488 q 391 507 365 488 q 428 563 417 526 z "},"\u0000":{"ha":0,"x_min":0,"x_max":0,"o":""},"\r":{"ha":278,"x_min":0,"x_max":0,"o":""}," ":{"ha":278,"x_min":0,"x_max":0,"o":""},"A":{"ha":767,"x_min":28,"x_max":736,"o":"m 588 0 q 568 14 572 0 l 532 163 q 525 168 531 168 l 239 168 q 232 163 233 168 l 197 14 q 178 0 193 0 l 46 0 q 32 18 28 0 l 285 958 q 304 972 289 972 l 463 972 q 482 958 478 972 l 735 18 l 736 13 q 721 0 736 0 l 588 0 m 265 303 q 267 297 264 299 q 272 294 269 294 l 492 294 q 497 297 494 294 q 499 303 500 299 l 385 758 q 381 763 383 763 q 376 758 378 763 l 265 303 z "},"Á":{"ha":767,"x_min":28,"x_max":736,"o":"m 588 0 q 568 14 572 0 l 532 163 q 525 168 531 168 l 239 168 q 232 163 233 168 l 197 14 q 178 0 193 0 l 46 0 q 32 18 28 0 l 285 958 q 304 972 289 972 l 463 972 q 482 958 478 972 l 735 18 l 736 13 q 721 0 736 0 l 588 0 m 265 303 q 267 297 264 299 q 272 294 269 294 l 492 294 q 497 297 494 294 q 499 303 500 299 l 385 758 q 381 763 383 763 q 376 758 378 763 l 265 303 m 317 1061 q 304 1067 307 1061 q 306 1081 301 1072 l 385 1224 q 406 1235 392 1235 l 510 1235 q 523 1228 519 1235 q 521 1214 526 1222 l 422 1072 q 403 1061 415 1061 l 317 1061 z "},"Ă":{"ha":767,"x_min":28,"x_max":736,"o":"m 588 0 q 568 14 572 0 l 532 163 q 525 168 531 168 l 239 168 q 232 163 233 168 l 197 14 q 178 0 193 0 l 46 0 q 32 18 28 0 l 285 958 q 304 972 289 972 l 463 972 q 482 958 478 972 l 735 18 l 736 13 q 721 0 736 0 l 588 0 m 265 303 q 267 297 264 299 q 272 294 269 294 l 492 294 q 497 297 494 294 q 499 303 500 299 l 385 758 q 381 763 383 763 q 376 758 378 763 l 265 303 m 382 1033 q 259 1074 308 1033 q 203 1181 210 1115 l 203 1183 q 218 1197 203 1197 l 282 1197 q 299 1182 296 1197 q 327 1132 304 1151 q 382 1113 350 1113 q 437 1132 414 1113 q 465 1182 460 1151 q 482 1197 468 1197 l 546 1197 q 563 1182 563 1197 q 506 1075 556 1117 q 382 1033 457 1033 z "},"Ắ":{"ha":767,"x_min":28,"x_max":736,"o":"m 588 0 q 568 14 572 0 l 532 163 q 525 168 531 168 l 239 168 q 232 163 233 168 l 197 14 q 178 0 193 0 l 46 0 q 32 18 28 0 l 285 958 q 304 972 289 972 l 463 972 q 482 958 478 972 l 735 18 l 736 13 q 721 0 736 0 l 588 0 m 265 303 q 267 297 264 299 q 272 294 269 294 l 492 294 q 497 297 494 294 q 499 303 500 299 l 385 758 q 381 763 383 763 q 376 758 378 763 l 265 303 z "},"Ặ":{"ha":767,"x_min":28,"x_max":736,"o":"m 588 0 q 568 14 572 0 l 532 163 q 525 168 531 168 l 239 168 q 232 163 233 168 l 197 14 q 178 0 193 0 l 46 0 q 32 18 28 0 l 285 958 q 304 972 289 972 l 463 972 q 482 958 478 972 l 735 18 l 736 13 q 721 0 736 0 l 588 0 m 265 303 q 267 297 264 299 q 272 294 269 294 l 492 294 q 497 297 494 294 q 499 303 500 299 l 385 758 q 381 763 383 763 q 376 758 378 763 l 265 303 m 385 -297 q 317 -270 343 -297 q 290 -203 290 -243 q 317 -136 290 -162 q 385 -110 343 -110 q 451 -136 425 -110 q 478 -203 478 -162 q 451 -270 478 -243 q 385 -297 425 -297 m 382 1054 q 259 1095 308 1054 q 203 1200 210 1136 l 203 1203 q 218 1217 203 1217 l 278 1217 q 294 1201 292 1217 q 325 1151 301 1169 q 382 1132 349 1132 q 440 1151 415 1132 q 469 1201 464 1171 q 486 1217 472 1217 l 546 1217 q 563 1201 563 1217 q 506 1096 556 1138 q 382 1054 456 1054 z "},"Ằ":{"ha":767,"x_min":28,"x_max":736,"o":"m 588 0 q 568 14 572 0 l 532 163 q 525 168 531 168 l 239 168 q 232 163 233 168 l 197 14 q 178 0 193 0 l 46 0 q 32 18 28 0 l 285 958 q 304 972 289 972 l 463 972 q 482 958 478 972 l 735 18 l 736 13 q 721 0 736 0 l 588 0 m 265 303 q 267 297 264 299 q 272 294 269 294 l 492 294 q 497 297 494 294 q 499 303 500 299 l 385 758 q 381 763 383 763 q 376 758 378 763 l 265 303 z "},"Ẳ":{"ha":767,"x_min":28,"x_max":736,"o":"m 588 0 q 568 14 572 0 l 532 163 q 525 168 531 168 l 239 168 q 232 163 233 168 l 197 14 q 178 0 193 0 l 46 0 q 32 18 28 0 l 285 958 q 304 972 289 972 l 463 972 q 482 958 478 972 l 735 18 l 736 13 q 721 0 736 0 l 588 0 m 265 303 q 267 297 264 299 q 272 294 269 294 l 492 294 q 497 297 494 294 q 499 303 500 299 l 385 758 q 381 763 383 763 q 376 758 378 763 l 265 303 m 369 1249 q 358 1257 361 1251 q 358 1271 354 1263 q 376 1304 367 1292 q 401 1335 385 1317 q 423 1362 417 1351 q 429 1390 429 1372 q 417 1417 429 1406 q 386 1428 404 1428 q 355 1419 368 1428 q 325 1390 342 1411 q 322 1388 324 1389 q 319 1385 321 1386 q 299 1383 311 1374 l 265 1407 q 261 1431 253 1417 q 317 1487 289 1469 q 389 1504 344 1504 q 479 1473 446 1504 q 513 1390 513 1442 q 500 1340 513 1361 q 463 1294 488 1319 q 429 1253 436 1264 q 408 1242 422 1240 l 369 1249 m 382 1054 q 259 1095 308 1054 q 203 1200 210 1136 l 203 1203 q 218 1217 203 1217 l 278 1217 q 294 1201 292 1217 q 324 1151 300 1171 q 382 1132 349 1132 q 440 1151 415 1132 q 469 1201 464 1171 q 486 1217 472 1217 l 546 1217 q 563 1201 563 1217 q 506 1096 556 1138 q 382 1054 456 1054 z "},"Ẵ":{"ha":767,"x_min":28,"x_max":736,"o":"m 588 0 q 568 14 572 0 l 532 163 q 525 168 531 168 l 239 168 q 232 163 233 168 l 197 14 q 178 0 193 0 l 46 0 q 32 18 28 0 l 285 958 q 304 972 289 972 l 463 972 q 482 958 478 972 l 735 18 l 736 13 q 721 0 736 0 l 588 0 m 265 303 q 267 297 264 299 q 272 294 269 294 l 492 294 q 497 297 494 294 q 499 303 500 299 l 385 758 q 381 763 383 763 q 376 758 378 763 l 265 303 m 471 1265 q 429 1272 447 1265 q 390 1290 411 1278 q 372 1301 385 1293 q 348 1311 358 1308 q 328 1314 338 1314 q 267 1285 292 1314 q 253 1276 258 1276 q 243 1282 249 1276 l 201 1321 q 197 1343 190 1332 q 249 1401 217 1381 q 318 1421 281 1421 q 361 1414 343 1421 q 408 1390 379 1407 q 426 1380 414 1388 q 449 1369 439 1372 q 471 1365 460 1365 q 528 1396 506 1365 q 542 1406 535 1406 q 551 1400 546 1406 l 590 1363 q 596 1350 596 1357 q 593 1339 596 1343 q 542 1284 575 1303 q 471 1265 510 1265 m 382 1054 q 259 1095 308 1054 q 203 1200 210 1136 l 203 1203 q 218 1217 203 1217 l 278 1217 q 294 1201 292 1217 q 324 1151 300 1171 q 382 1132 349 1132 q 440 1151 415 1132 q 469 1201 464 1171 q 486 1217 472 1217 l 546 1217 q 563 1201 563 1217 q 506 1096 556 1138 q 382 1054 456 1054 z "},"Ǎ":{"ha":767,"x_min":28,"x_max":736,"o":"m 588 0 q 568 14 572 0 l 532 163 q 525 168 531 168 l 239 168 q 232 163 233 168 l 197 14 q 178 0 193 0 l 46 0 q 32 18 28 0 l 285 958 q 304 972 289 972 l 463 972 q 482 958 478 972 l 735 18 l 736 13 q 721 0 736 0 l 588 0 m 265 303 q 267 297 264 299 q 272 294 269 294 l 492 294 q 497 297 494 294 q 499 303 500 299 l 385 758 q 381 763 383 763 q 376 758 378 763 l 265 303 z "},"Â":{"ha":767,"x_min":28,"x_max":736,"o":"m 588 0 q 568 14 572 0 l 532 163 q 525 168 531 168 l 239 168 q 232 163 233 168 l 197 14 q 178 0 193 0 l 46 0 q 32 18 28 0 l 285 958 q 304 972 289 972 l 463 972 q 482 958 478 972 l 735 18 l 736 13 q 721 0 736 0 l 588 0 m 265 303 q 267 297 264 299 q 272 294 269 294 l 492 294 q 497 297 494 294 q 499 303 500 299 l 385 758 q 381 763 383 763 q 376 758 378 763 l 265 303 m 203 1060 q 190 1066 193 1060 q 193 1081 188 1072 l 288 1224 q 307 1235 294 1235 l 453 1235 q 472 1224 465 1235 l 571 1081 q 574 1071 574 1076 q 560 1060 574 1060 l 461 1060 q 442 1071 447 1060 l 386 1161 q 381 1165 383 1165 q 376 1161 378 1165 l 321 1071 q 301 1060 315 1060 l 203 1060 z "},"Ấ":{"ha":767,"x_min":28,"x_max":792,"o":"m 588 0 q 568 14 572 0 l 532 163 q 525 168 531 168 l 239 168 q 232 163 233 168 l 197 14 q 178 0 193 0 l 46 0 q 32 18 28 0 l 285 958 q 304 972 289 972 l 463 972 q 482 958 478 972 l 735 18 l 736 13 q 721 0 736 0 l 588 0 m 265 303 q 267 297 264 299 q 272 294 269 294 l 492 294 q 497 297 494 294 q 499 303 500 299 l 385 758 q 381 763 383 763 q 376 758 378 763 l 265 303 z "},"Ậ":{"ha":767,"x_min":28,"x_max":736,"o":"m 588 0 q 568 14 572 0 l 532 163 q 525 168 531 168 l 239 168 q 232 163 233 168 l 197 14 q 178 0 193 0 l 46 0 q 32 18 28 0 l 285 958 q 304 972 289 972 l 463 972 q 482 958 478 972 l 735 18 l 736 13 q 721 0 736 0 l 588 0 m 265 303 q 267 297 264 299 q 272 294 269 294 l 492 294 q 497 297 494 294 q 499 303 500 299 l 385 758 q 381 763 383 763 q 376 758 378 763 l 265 303 m 385 -297 q 317 -270 343 -297 q 290 -203 290 -243 q 317 -136 290 -162 q 385 -110 343 -110 q 451 -136 425 -110 q 478 -203 478 -162 q 451 -270 478 -243 q 385 -297 425 -297 m 203 1060 q 190 1066 193 1060 q 193 1081 188 1072 l 288 1224 q 307 1235 294 1235 l 453 1235 q 472 1224 465 1235 l 571 1081 q 574 1071 574 1076 q 560 1060 574 1060 l 461 1060 q 442 1071 447 1060 l 386 1161 q 381 1165 383 1165 q 376 1161 378 1165 l 321 1071 q 301 1060 315 1060 l 203 1060 z "},"Ầ":{"ha":767,"x_min":28,"x_max":736,"o":"m 588 0 q 568 14 572 0 l 532 163 q 525 168 531 168 l 239 168 q 232 163 233 168 l 197 14 q 178 0 193 0 l 46 0 q 32 18 28 0 l 285 958 q 304 972 289 972 l 463 972 q 482 958 478 972 l 735 18 l 736 13 q 721 0 736 0 l 588 0 m 265 303 q 267 297 264 299 q 272 294 269 294 l 492 294 q 497 297 494 294 q 499 303 500 299 l 385 758 q 381 763 383 763 q 376 758 378 763 l 265 303 z "},"Ẩ":{"ha":767,"x_min":28,"x_max":736,"o":"m 588 0 q 568 14 572 0 l 532 163 q 525 168 531 168 l 239 168 q 232 163 233 168 l 197 14 q 178 0 193 0 l 46 0 q 32 18 28 0 l 285 958 q 304 972 289 972 l 463 972 q 482 958 478 972 l 735 18 l 736 13 q 721 0 736 0 l 588 0 m 265 303 q 267 297 264 299 q 272 294 269 294 l 492 294 q 497 297 494 294 q 499 303 500 299 l 385 758 q 381 763 383 763 q 376 758 378 763 l 265 303 m 564 1201 q 552 1210 556 1204 q 553 1224 549 1215 q 597 1289 567 1258 q 619 1317 613 1306 q 625 1346 625 1328 q 612 1373 625 1361 q 581 1385 599 1385 q 547 1376 561 1385 q 515 1343 533 1367 q 501 1335 510 1335 q 490 1339 494 1335 l 456 1364 q 449 1376 449 1371 q 453 1388 449 1382 q 510 1445 481 1428 q 585 1463 539 1463 q 676 1431 642 1463 q 711 1346 711 1399 q 699 1297 711 1317 q 660 1249 686 1276 q 624 1204 635 1224 q 603 1194 615 1193 l 564 1201 m 203 1060 q 190 1066 193 1060 q 193 1081 188 1072 l 288 1224 q 307 1235 294 1235 l 453 1235 q 472 1224 465 1235 l 571 1081 q 574 1071 574 1076 q 560 1060 574 1060 l 461 1060 q 442 1071 447 1060 l 386 1161 q 381 1165 383 1165 q 376 1161 378 1165 l 321 1071 q 301 1060 315 1060 l 203 1060 z "},"Ẫ":{"ha":767,"x_min":28,"x_max":736,"o":"m 588 0 q 568 14 572 0 l 532 163 q 525 168 531 168 l 239 168 q 232 163 233 168 l 197 14 q 178 0 193 0 l 46 0 q 32 18 28 0 l 285 958 q 304 972 289 972 l 463 972 q 482 958 478 972 l 735 18 l 736 13 q 721 0 736 0 l 588 0 m 265 303 q 267 297 264 299 q 272 294 269 294 l 492 294 q 497 297 494 294 q 499 303 500 299 l 385 758 q 381 763 383 763 q 376 758 378 763 l 265 303 z "},"Ä":{"ha":767,"x_min":28,"x_max":736,"o":"m 588 0 q 568 14 572 0 l 532 163 q 525 168 531 168 l 239 168 q 232 163 233 168 l 197 14 q 178 0 193 0 l 46 0 q 32 18 28 0 l 285 958 q 304 972 289 972 l 463 972 q 482 958 478 972 l 735 18 l 736 13 q 721 0 736 0 l 588 0 m 265 303 q 267 297 264 299 q 272 294 269 294 l 492 294 q 497 297 494 294 q 499 303 500 299 l 385 758 q 381 763 383 763 q 376 758 378 763 l 265 303 z "},"Ạ":{"ha":767,"x_min":28,"x_max":736,"o":"m 588 0 q 568 14 572 0 l 532 163 q 525 168 531 168 l 239 168 q 232 163 233 168 l 197 14 q 178 0 193 0 l 46 0 q 32 18 28 0 l 285 958 q 304 972 289 972 l 463 972 q 482 958 478 972 l 735 18 l 736 13 q 721 0 736 0 l 588 0 m 265 303 q 267 297 264 299 q 272 294 269 294 l 492 294 q 497 297 494 294 q 499 303 500 299 l 385 758 q 381 763 383 763 q 376 758 378 763 l 265 303 m 385 -297 q 317 -270 343 -297 q 290 -203 290 -243 q 317 -136 290 -162 q 385 -110 343 -110 q 451 -136 425 -110 q 478 -203 478 -162 q 451 -270 478 -243 q 385 -297 425 -297 z "},"À":{"ha":767,"x_min":28,"x_max":736,"o":"m 588 0 q 568 14 572 0 l 532 163 q 525 168 531 168 l 239 168 q 232 163 233 168 l 197 14 q 178 0 193 0 l 46 0 q 32 18 28 0 l 285 958 q 304 972 289 972 l 463 972 q 482 958 478 972 l 735 18 l 736 13 q 721 0 736 0 l 588 0 m 265 303 q 267 297 264 299 q 272 294 269 294 l 492 294 q 497 297 494 294 q 499 303 500 299 l 385 758 q 381 763 383 763 q 376 758 378 763 l 265 303 m 436 1081 q 439 1072 439 1075 q 425 1061 439 1061 l 339 1061 q 319 1072 326 1061 l 219 1214 q 217 1224 217 1218 q 231 1235 217 1235 l 336 1235 q 357 1224 350 1235 l 436 1081 z "},"Ả":{"ha":767,"x_min":28,"x_max":736,"o":"m 588 0 q 568 14 572 0 l 532 163 q 525 168 531 168 l 239 168 q 232 163 233 168 l 197 14 q 178 0 193 0 l 46 0 q 32 18 28 0 l 285 958 q 304 972 289 972 l 463 972 q 482 958 478 972 l 735 18 l 736 13 q 721 0 736 0 l 588 0 m 265 303 q 267 297 264 299 q 272 294 269 294 l 492 294 q 497 297 494 294 q 499 303 500 299 l 385 758 q 381 763 383 763 q 376 758 378 763 l 265 303 m 368 1035 q 357 1056 349 1039 q 403 1124 372 1093 q 425 1151 418 1139 q 432 1182 432 1163 q 418 1209 432 1197 q 386 1221 404 1221 q 351 1212 365 1221 q 318 1178 338 1203 q 306 1169 314 1169 q 294 1174 299 1169 l 258 1200 q 251 1213 251 1204 q 254 1224 251 1219 q 313 1283 283 1265 q 390 1301 343 1301 q 484 1269 449 1301 q 519 1182 519 1236 q 506 1129 519 1150 q 467 1082 493 1108 q 431 1038 442 1057 q 410 1026 424 1025 l 368 1035 z "},"Ā":{"ha":767,"x_min":28,"x_max":736,"o":"m 588 0 q 568 14 572 0 l 532 163 q 525 168 531 168 l 239 168 q 232 163 233 168 l 197 14 q 178 0 193 0 l 46 0 q 32 18 28 0 l 285 958 q 304 972 289 972 l 463 972 q 482 958 478 972 l 735 18 l 736 13 q 721 0 736 0 l 588 0 m 265 303 q 267 297 264 299 q 272 294 269 294 l 492 294 q 497 297 494 294 q 499 303 500 299 l 385 758 q 381 763 383 763 q 376 758 378 763 l 265 303 m 224 1075 q 212 1080 217 1075 q 207 1092 207 1085 l 207 1169 q 212 1181 207 1176 q 224 1186 217 1186 l 536 1186 q 548 1181 543 1186 q 553 1169 553 1176 l 553 1092 q 548 1080 553 1085 q 536 1075 543 1075 l 224 1075 z "},"Ą":{"ha":767,"x_min":28,"x_max":753,"o":"m 588 0 q 568 14 572 0 l 532 163 q 525 168 531 168 l 239 168 q 232 163 233 168 l 197 14 q 178 0 193 0 l 46 0 q 32 18 28 0 l 285 958 q 304 972 289 972 l 463 972 q 482 958 478 972 l 735 18 l 736 13 q 721 0 736 0 l 588 0 m 265 303 q 267 297 264 299 q 272 294 269 294 l 492 294 q 497 297 494 294 q 499 303 500 299 l 385 758 q 381 763 383 763 q 376 758 378 763 l 265 303 m 753 -237 q 740 -254 753 -249 q 676 -264 711 -264 q 587 -236 624 -264 q 550 -143 550 -208 q 621 -8 550 -71 q 642 0 629 0 l 710 0 q 724 -8 724 0 q 717 -21 724 -15 q 657 -119 657 -74 q 671 -159 657 -146 q 706 -172 685 -172 q 725 -169 711 -172 l 733 -168 q 746 -182 744 -168 l 753 -233 l 753 -237 z "},"Å":{"ha":767,"x_min":28,"x_max":736,"o":"m 588 0 q 568 14 572 0 l 532 163 q 525 168 531 168 l 239 168 q 232 163 233 168 l 197 14 q 178 0 193 0 l 46 0 q 32 18 28 0 l 285 958 q 304 972 289 972 l 463 972 q 482 958 478 972 l 735 18 l 736 13 q 721 0 736 0 l 588 0 m 265 303 q 267 297 264 299 q 272 294 269 294 l 492 294 q 497 297 494 294 q 499 303 500 299 l 385 758 q 381 763 383 763 q 376 758 378 763 l 265 303 m 383 1051 q 266 1099 314 1051 q 218 1217 218 1147 q 266 1333 218 1286 q 383 1381 314 1381 q 500 1333 453 1381 q 547 1217 547 1286 q 500 1099 547 1147 q 383 1051 453 1051 m 383 1139 q 438 1162 415 1139 q 460 1217 460 1185 q 438 1272 460 1250 q 383 1294 415 1294 q 329 1272 351 1294 q 307 1217 307 1250 q 329 1162 307 1185 q 383 1139 351 1139 z "},"Ã":{"ha":767,"x_min":28,"x_max":736,"o":"m 588 0 q 568 14 572 0 l 532 163 q 525 168 531 168 l 239 168 q 232 163 233 168 l 197 14 q 178 0 193 0 l 46 0 q 32 18 28 0 l 285 958 q 304 972 289 972 l 463 972 q 482 958 478 972 l 735 18 l 736 13 q 721 0 736 0 l 588 0 m 265 303 q 267 297 264 299 q 272 294 269 294 l 492 294 q 497 297 494 294 q 499 303 500 299 l 385 758 q 381 763 383 763 q 376 758 378 763 l 265 303 m 476 1078 q 435 1085 453 1078 q 393 1106 417 1092 q 371 1117 385 1110 q 347 1126 357 1124 q 326 1129 338 1129 q 261 1099 288 1129 q 239 1096 250 1085 l 193 1138 q 189 1161 182 1149 q 243 1221 210 1200 q 317 1242 276 1242 q 363 1234 343 1242 q 411 1210 382 1226 q 430 1199 417 1207 q 454 1188 443 1192 q 476 1185 465 1185 q 538 1217 514 1185 q 551 1226 544 1226 q 561 1221 556 1226 l 604 1179 q 610 1167 610 1174 q 607 1156 610 1160 q 553 1098 588 1118 q 476 1078 518 1078 z "},"Æ":{"ha":1168,"x_min":32,"x_max":1114,"o":"m 1114 850 q 1109 838 1114 843 q 1097 833 1104 833 l 722 833 q 715 826 715 833 l 715 565 q 722 558 715 558 l 958 558 q 970 553 965 558 q 975 542 975 549 l 975 436 q 970 424 975 429 q 958 419 965 419 l 722 419 q 715 413 715 419 l 715 146 q 722 139 715 139 l 1097 139 q 1109 134 1104 139 q 1114 122 1114 129 l 1114 17 q 1109 5 1114 10 q 1097 0 1104 0 l 571 0 q 559 5 564 0 q 554 17 554 10 l 554 161 q 547 168 554 168 l 282 168 q 274 163 276 168 l 206 13 q 186 0 200 0 l 49 0 q 35 5 39 0 q 36 19 32 10 l 476 960 q 496 972 482 972 l 1097 972 q 1109 967 1104 972 q 1114 956 1114 963 l 1114 850 m 338 303 q 338 297 336 300 q 342 294 339 294 l 547 294 q 554 301 554 294 l 554 760 q 551 765 554 765 q 546 761 549 765 l 338 303 z "},"B":{"ha":753,"x_min":89,"x_max":694,"o":"m 694 267 q 613 69 694 138 q 401 0 532 0 l 106 0 q 94 5 99 0 q 89 17 89 10 l 89 956 q 94 967 89 963 q 106 972 99 972 l 385 972 q 603 906 525 972 q 682 710 682 840 q 569 507 682 567 q 568 499 563 503 q 694 267 694 431 m 257 833 q 250 826 250 833 l 250 568 q 257 561 250 561 l 386 561 q 488 597 451 561 q 525 696 525 632 q 488 797 525 761 q 386 833 451 833 l 257 833 m 396 140 q 497 179 460 140 q 533 288 533 218 q 496 397 533 357 q 394 436 458 436 l 257 436 q 250 429 250 436 l 250 147 q 257 140 250 140 l 396 140 z "},"C":{"ha":740,"x_min":68,"x_max":679,"o":"m 374 -11 q 214 26 283 -11 q 106 129 144 63 q 68 283 68 196 l 68 692 q 106 845 68 779 q 214 947 144 911 q 374 983 283 983 q 533 948 464 983 q 641 848 603 913 q 679 697 679 783 l 679 689 q 674 676 679 682 q 663 671 669 671 l 533 665 q 517 682 517 665 l 517 699 q 477 804 517 764 q 374 844 438 844 q 269 804 308 844 q 229 699 229 764 l 229 272 q 269 167 229 207 q 374 128 308 128 q 477 167 438 128 q 517 272 517 207 l 517 290 q 533 306 517 306 l 663 300 q 674 295 669 300 q 679 283 679 290 l 679 278 q 641 126 679 192 q 533 24 603 60 q 374 -11 464 -11 z "},"Ć":{"ha":740,"x_min":68,"x_max":679,"o":"m 374 -11 q 214 26 283 -11 q 106 129 144 63 q 68 283 68 196 l 68 692 q 106 845 68 779 q 214 947 144 911 q 374 983 283 983 q 533 948 464 983 q 641 848 603 913 q 679 697 679 783 l 679 689 q 674 676 679 682 q 663 671 669 671 l 533 665 q 517 682 517 665 l 517 699 q 477 804 517 764 q 374 844 438 844 q 269 804 308 844 q 229 699 229 764 l 229 272 q 269 167 229 207 q 374 128 308 128 q 477 167 438 128 q 517 272 517 207 l 517 290 q 533 306 517 306 l 663 300 q 674 295 669 300 q 679 283 679 290 l 679 278 q 641 126 679 192 q 533 24 603 60 q 374 -11 464 -11 m 307 1061 q 294 1067 297 1061 q 296 1081 292 1072 l 375 1224 q 396 1235 382 1235 l 500 1235 q 513 1228 510 1235 q 511 1214 517 1222 l 413 1072 q 393 1061 406 1061 l 307 1061 z "},"Č":{"ha":740,"x_min":68,"x_max":679,"o":"m 374 -11 q 214 26 283 -11 q 106 129 144 63 q 68 283 68 196 l 68 692 q 106 845 68 779 q 214 947 144 911 q 374 983 283 983 q 533 948 464 983 q 641 848 603 913 q 679 697 679 783 l 679 689 q 674 676 679 682 q 663 671 669 671 l 533 665 q 517 682 517 665 l 517 699 q 477 804 517 764 q 374 844 438 844 q 269 804 308 844 q 229 699 229 764 l 229 272 q 269 167 229 207 q 374 128 308 128 q 477 167 438 128 q 517 272 517 207 l 517 290 q 533 306 517 306 l 663 300 q 674 295 669 300 q 679 283 679 290 l 679 278 q 641 126 679 192 q 533 24 603 60 q 374 -11 464 -11 m 190 1214 q 188 1224 188 1218 q 200 1235 188 1235 l 299 1235 q 318 1224 313 1235 l 374 1133 q 379 1129 376 1129 q 383 1133 382 1129 l 439 1224 q 458 1235 444 1235 l 557 1235 q 570 1228 567 1235 q 568 1214 574 1222 l 469 1071 q 450 1060 463 1060 l 304 1060 q 285 1071 292 1060 l 190 1214 z "},"Ç":{"ha":740,"x_min":68,"x_max":679,"o":"m 679 685 q 674 675 679 679 q 663 671 669 671 l 533 665 q 517 682 517 665 l 517 699 q 477 804 517 764 q 374 844 438 844 q 269 804 308 844 q 229 699 229 764 l 229 272 q 269 167 229 207 q 374 128 308 128 q 477 167 438 128 q 517 272 517 207 l 517 290 q 533 306 517 306 l 663 300 q 674 295 669 300 q 679 283 679 290 l 679 278 q 609 83 679 160 q 422 -8 539 6 q 419 -17 413 -10 q 475 -139 475 -76 q 471 -172 475 -156 q 426 -238 460 -218 q 349 -258 393 -258 q 285 -249 314 -258 q 272 -228 271 -243 l 279 -176 q 300 -164 281 -160 q 319 -167 314 -167 q 367 -128 358 -167 q 368 -112 368 -122 q 299 -6 368 -64 l 290 -1 q 128 97 188 21 q 68 283 68 172 l 68 692 q 106 845 68 779 q 214 947 144 911 q 374 983 283 983 q 533 948 464 983 q 641 848 603 913 q 679 697 679 783 l 679 685 z "},"Ĉ":{"ha":740,"x_min":68,"x_max":679,"o":"m 374 -11 q 214 26 283 -11 q 106 129 144 63 q 68 283 68 196 l 68 692 q 106 845 68 779 q 214 947 144 911 q 374 983 283 983 q 533 948 464 983 q 641 848 603 913 q 679 697 679 783 l 679 689 q 674 676 679 682 q 663 671 669 671 l 533 665 q 517 682 517 665 l 517 699 q 477 804 517 764 q 374 844 438 844 q 269 804 308 844 q 229 699 229 764 l 229 272 q 269 167 229 207 q 374 128 308 128 q 477 167 438 128 q 517 272 517 207 l 517 290 q 533 306 517 306 l 663 300 q 674 295 669 300 q 679 283 679 290 l 679 278 q 641 126 679 192 q 533 24 603 60 q 374 -11 464 -11 m 194 1060 q 182 1066 185 1060 q 185 1081 179 1072 l 279 1224 q 299 1235 286 1235 l 444 1235 q 464 1224 457 1235 l 563 1081 q 565 1071 565 1076 q 551 1060 565 1060 l 453 1060 q 433 1071 439 1060 l 378 1161 q 372 1165 375 1165 q 368 1161 369 1165 l 313 1071 q 293 1060 307 1060 l 194 1060 z "},"Ċ":{"ha":740,"x_min":68,"x_max":679,"o":"m 374 -11 q 214 26 283 -11 q 106 129 144 63 q 68 283 68 196 l 68 692 q 106 845 68 779 q 214 947 144 911 q 374 983 283 983 q 533 948 464 983 q 641 848 603 913 q 679 697 679 783 l 679 689 q 674 676 679 682 q 663 671 669 671 l 533 665 q 517 682 517 665 l 517 699 q 477 804 517 764 q 374 844 438 844 q 269 804 308 844 q 229 699 229 764 l 229 272 q 269 167 229 207 q 374 128 308 128 q 477 167 438 128 q 517 272 517 207 l 517 290 q 533 306 517 306 l 663 300 q 674 295 669 300 q 679 283 679 290 l 679 278 q 641 126 679 192 q 533 24 603 60 q 374 -11 464 -11 m 374 1069 q 303 1097 331 1069 q 275 1168 275 1125 q 303 1239 275 1211 q 374 1267 331 1267 q 444 1239 417 1267 q 471 1168 471 1211 q 443 1097 471 1125 q 374 1069 415 1069 z "},"D":{"ha":757,"x_min":89,"x_max":690,"o":"m 106 0 q 94 5 99 0 q 89 17 89 10 l 89 956 q 94 967 89 963 q 106 972 99 972 l 393 972 q 609 897 528 972 q 690 697 690 822 l 690 275 q 609 75 690 150 q 393 0 528 0 l 106 0 m 250 146 q 257 139 250 139 l 394 140 q 490 181 454 140 q 529 293 526 222 l 529 679 q 492 792 529 750 q 394 833 456 833 l 257 833 q 250 826 250 833 l 250 146 z "},"Ð":{"ha":821,"x_min":89,"x_max":753,"o":"m 456 972 q 672 897 590 972 q 753 697 753 822 l 753 275 q 672 75 753 150 q 456 0 590 0 l 168 0 q 156 5 161 0 q 151 17 151 10 l 151 447 q 144 454 151 454 l 106 454 q 94 459 99 454 q 89 471 89 464 l 89 540 q 94 552 89 547 q 106 557 99 557 l 144 557 q 151 564 151 557 l 151 956 q 156 967 151 963 q 168 972 161 972 l 456 972 m 592 679 q 556 792 592 750 q 457 833 519 833 l 319 833 q 313 826 313 833 l 313 564 q 319 557 313 557 l 418 557 q 430 552 425 557 q 435 540 435 547 l 435 471 q 430 459 435 464 q 418 454 425 454 l 319 454 q 313 447 313 454 l 313 146 q 319 139 313 139 l 458 140 q 554 181 518 140 q 592 293 590 222 l 592 679 z "},"Ď":{"ha":757,"x_min":89,"x_max":690,"o":"m 106 0 q 94 5 99 0 q 89 17 89 10 l 89 956 q 94 967 89 963 q 106 972 99 972 l 393 972 q 609 897 528 972 q 690 697 690 822 l 690 275 q 609 75 690 150 q 393 0 528 0 l 106 0 m 250 146 q 257 139 250 139 l 394 140 q 490 181 454 140 q 529 293 526 222 l 529 679 q 492 792 529 750 q 394 833 456 833 l 257 833 q 250 826 250 833 l 250 146 z "},"Đ":{"ha":821,"x_min":89,"x_max":753,"o":"m 456 972 q 672 897 590 972 q 753 697 753 822 l 753 275 q 672 75 753 150 q 456 0 590 0 l 168 0 q 156 5 161 0 q 151 17 151 10 l 151 447 q 144 454 151 454 l 106 454 q 94 459 99 454 q 89 471 89 464 l 89 540 q 94 552 89 547 q 106 557 99 557 l 144 557 q 151 564 151 557 l 151 956 q 156 967 151 963 q 168 972 161 972 l 456 972 m 592 679 q 556 792 592 750 q 457 833 519 833 l 319 833 q 313 826 313 833 l 313 564 q 319 557 313 557 l 418 557 q 430 552 425 557 q 435 540 435 547 l 435 471 q 430 459 435 464 q 418 454 425 454 l 319 454 q 313 447 313 454 l 313 146 q 319 139 313 139 l 458 140 q 554 181 518 140 q 592 293 590 222 l 592 679 z "},"E":{"ha":713,"x_min":89,"x_max":660,"o":"m 660 850 q 655 838 660 843 q 643 833 650 833 l 257 833 q 250 826 250 833 l 250 565 q 257 558 250 558 l 504 558 q 516 553 511 558 q 521 542 521 549 l 521 436 q 516 424 521 429 q 504 419 511 419 l 257 419 q 250 413 250 419 l 250 146 q 257 139 250 139 l 643 139 q 655 134 650 139 q 660 122 660 129 l 660 17 q 655 5 660 10 q 643 0 650 0 l 106 0 q 94 5 99 0 q 89 17 89 10 l 89 956 q 94 967 89 963 q 106 972 99 972 l 643 972 q 655 967 650 972 q 660 956 660 963 l 660 850 z "},"É":{"ha":713,"x_min":89,"x_max":660,"o":"m 660 850 q 655 838 660 843 q 643 833 650 833 l 257 833 q 250 826 250 833 l 250 565 q 257 558 250 558 l 504 558 q 516 553 511 558 q 521 542 521 549 l 521 436 q 516 424 521 429 q 504 419 511 419 l 257 419 q 250 413 250 419 l 250 146 q 257 139 250 139 l 643 139 q 655 134 650 139 q 660 122 660 129 l 660 17 q 655 5 660 10 q 643 0 650 0 l 106 0 q 94 5 99 0 q 89 17 89 10 l 89 956 q 94 967 89 963 q 106 972 99 972 l 643 972 q 655 967 650 972 q 660 956 660 963 l 660 850 m 306 1061 q 293 1067 296 1061 q 294 1081 290 1072 l 374 1224 q 394 1235 381 1235 l 499 1235 q 512 1228 508 1235 q 510 1214 515 1222 l 411 1072 q 392 1061 404 1061 l 306 1061 z "},"Ě":{"ha":713,"x_min":89,"x_max":660,"o":"m 660 850 q 655 838 660 843 q 643 833 650 833 l 257 833 q 250 826 250 833 l 250 565 q 257 558 250 558 l 504 558 q 516 553 511 558 q 521 542 521 549 l 521 436 q 516 424 521 429 q 504 419 511 419 l 257 419 q 250 413 250 419 l 250 146 q 257 139 250 139 l 643 139 q 655 134 650 139 q 660 122 660 129 l 660 17 q 655 5 660 10 q 643 0 650 0 l 106 0 q 94 5 99 0 q 89 17 89 10 l 89 956 q 94 967 89 963 q 106 972 99 972 l 643 972 q 655 967 650 972 q 660 956 660 963 l 660 850 m 189 1214 q 186 1224 186 1218 q 199 1235 186 1235 l 297 1235 q 317 1224 311 1235 l 372 1133 q 378 1129 375 1129 q 382 1133 381 1129 l 438 1224 q 457 1235 443 1235 l 556 1235 q 569 1228 565 1235 q 567 1214 572 1222 l 468 1071 q 449 1060 461 1060 l 303 1060 q 283 1071 290 1060 l 189 1214 z "},"Ȩ":{"ha":713,"x_min":89,"x_max":660,"o":"m 660 850 q 655 838 660 843 q 643 833 650 833 l 257 833 q 250 826 250 833 l 250 565 q 257 558 250 558 l 504 558 q 516 553 511 558 q 521 542 521 549 l 521 436 q 516 424 521 429 q 504 419 511 419 l 257 419 q 250 413 250 419 l 250 146 q 257 139 250 139 l 643 139 q 655 134 650 139 q 660 122 660 129 l 660 17 q 655 5 660 10 q 643 0 650 0 l 444 0 q 439 -3 440 0 q 440 -8 438 -6 q 493 -126 493 -65 q 457 -219 493 -192 q 369 -246 421 -246 q 303 -236 335 -246 q 290 -217 289 -232 l 297 -165 q 318 -153 299 -149 q 338 -156 332 -156 q 372 -143 358 -156 q 386 -104 386 -131 q 326 -3 386 -56 q 317 0 321 0 l 106 0 q 94 5 99 0 q 89 17 89 10 l 89 956 q 94 967 89 963 q 106 972 99 972 l 643 972 q 655 967 650 972 q 660 956 660 963 l 660 850 z "},"Ê":{"ha":713,"x_min":89,"x_max":660,"o":"m 660 850 q 655 838 660 843 q 643 833 650 833 l 257 833 q 250 826 250 833 l 250 565 q 257 558 250 558 l 504 558 q 516 553 511 558 q 521 542 521 549 l 521 436 q 516 424 521 429 q 504 419 511 419 l 257 419 q 250 413 250 419 l 250 146 q 257 139 250 139 l 643 139 q 655 134 650 139 q 660 122 660 129 l 660 17 q 655 5 660 10 q 643 0 650 0 l 106 0 q 94 5 99 0 q 89 17 89 10 l 89 956 q 94 967 89 963 q 106 972 99 972 l 643 972 q 655 967 650 972 q 660 956 660 963 l 660 850 m 193 1060 q 181 1066 183 1060 q 183 1081 178 1072 l 278 1224 q 297 1235 285 1235 l 443 1235 q 463 1224 456 1235 l 561 1081 q 564 1071 564 1076 q 550 1060 564 1060 l 451 1060 q 432 1071 438 1060 l 376 1161 q 371 1165 374 1165 q 367 1161 368 1165 l 311 1071 q 292 1060 306 1060 l 193 1060 z "},"Ế":{"ha":713,"x_min":89,"x_max":781,"o":"m 660 850 q 655 838 660 843 q 643 833 650 833 l 257 833 q 250 826 250 833 l 250 565 q 257 558 250 558 l 504 558 q 516 553 511 558 q 521 542 521 549 l 521 436 q 516 424 521 429 q 504 419 511 419 l 257 419 q 250 413 250 419 l 250 146 q 257 139 250 139 l 643 139 q 655 134 650 139 q 660 122 660 129 l 660 17 q 655 5 660 10 q 643 0 650 0 l 106 0 q 94 5 99 0 q 89 17 89 10 l 89 956 q 94 967 89 963 q 106 972 99 972 l 643 972 q 655 967 650 972 q 660 956 660 963 l 660 850 z "},"Ệ":{"ha":713,"x_min":89,"x_max":660,"o":"m 660 850 q 655 838 660 843 q 643 833 650 833 l 257 833 q 250 826 250 833 l 250 565 q 257 558 250 558 l 504 558 q 516 553 511 558 q 521 542 521 549 l 521 436 q 516 424 521 429 q 504 419 511 419 l 257 419 q 250 413 250 419 l 250 146 q 257 139 250 139 l 643 139 q 655 134 650 139 q 660 122 660 129 l 660 17 q 655 5 660 10 q 643 0 650 0 l 106 0 q 94 5 99 0 q 89 17 89 10 l 89 956 q 94 967 89 963 q 106 972 99 972 l 643 972 q 655 967 650 972 q 660 956 660 963 l 660 850 m 374 -297 q 306 -270 332 -297 q 279 -203 279 -243 q 306 -136 279 -162 q 374 -110 332 -110 q 440 -136 414 -110 q 467 -203 467 -162 q 440 -270 467 -243 q 374 -297 414 -297 m 193 1060 q 181 1066 183 1060 q 183 1081 178 1072 l 278 1224 q 297 1235 285 1235 l 443 1235 q 463 1224 456 1235 l 561 1081 q 564 1071 564 1076 q 550 1060 564 1060 l 451 1060 q 432 1071 438 1060 l 376 1161 q 371 1165 374 1165 q 367 1161 368 1165 l 311 1071 q 292 1060 306 1060 l 193 1060 z "},"Ề":{"ha":713,"x_min":89,"x_max":660,"o":"m 660 850 q 655 838 660 843 q 643 833 650 833 l 257 833 q 250 826 250 833 l 250 565 q 257 558 250 558 l 504 558 q 516 553 511 558 q 521 542 521 549 l 521 436 q 516 424 521 429 q 504 419 511 419 l 257 419 q 250 413 250 419 l 250 146 q 257 139 250 139 l 643 139 q 655 134 650 139 q 660 122 660 129 l 660 17 q 655 5 660 10 q 643 0 650 0 l 106 0 q 94 5 99 0 q 89 17 89 10 l 89 956 q 94 967 89 963 q 106 972 99 972 l 643 972 q 655 967 650 972 q 660 956 660 963 l 660 850 z "},"Ể":{"ha":713,"x_min":89,"x_max":701,"o":"m 660 850 q 655 838 660 843 q 643 833 650 833 l 257 833 q 250 826 250 833 l 250 565 q 257 558 250 558 l 504 558 q 516 553 511 558 q 521 542 521 549 l 521 436 q 516 424 521 429 q 504 419 511 419 l 257 419 q 250 413 250 419 l 250 146 q 257 139 250 139 l 643 139 q 655 134 650 139 q 660 122 660 129 l 660 17 q 655 5 660 10 q 643 0 650 0 l 106 0 q 94 5 99 0 q 89 17 89 10 l 89 956 q 94 967 89 963 q 106 972 99 972 l 643 972 q 655 967 650 972 q 660 956 660 963 l 660 850 m 554 1201 q 542 1210 546 1204 q 543 1224 539 1215 q 588 1289 557 1258 q 609 1317 603 1306 q 615 1346 615 1328 q 602 1373 615 1361 q 571 1385 589 1385 q 538 1376 551 1385 q 506 1343 524 1367 q 492 1335 500 1335 q 481 1339 485 1335 l 446 1364 q 439 1376 439 1371 q 443 1388 439 1382 q 500 1445 471 1428 q 575 1463 529 1463 q 667 1431 632 1463 q 701 1346 701 1399 q 689 1297 701 1317 q 650 1249 676 1276 q 614 1204 625 1224 q 593 1194 606 1193 l 554 1201 m 193 1060 q 181 1066 183 1060 q 183 1081 178 1072 l 278 1224 q 297 1235 285 1235 l 443 1235 q 463 1224 456 1235 l 561 1081 q 564 1071 564 1076 q 550 1060 564 1060 l 451 1060 q 432 1071 438 1060 l 376 1161 q 371 1165 374 1165 q 367 1161 368 1165 l 311 1071 q 292 1060 306 1060 l 193 1060 z "},"Ễ":{"ha":713,"x_min":89,"x_max":660,"o":"m 660 850 q 655 838 660 843 q 643 833 650 833 l 257 833 q 250 826 250 833 l 250 565 q 257 558 250 558 l 504 558 q 516 553 511 558 q 521 542 521 549 l 521 436 q 516 424 521 429 q 504 419 511 419 l 257 419 q 250 413 250 419 l 250 146 q 257 139 250 139 l 643 139 q 655 134 650 139 q 660 122 660 129 l 660 17 q 655 5 660 10 q 643 0 650 0 l 106 0 q 94 5 99 0 q 89 17 89 10 l 89 956 q 94 967 89 963 q 106 972 99 972 l 643 972 q 655 967 650 972 q 660 956 660 963 l 660 850 z "},"Ë":{"ha":713,"x_min":89,"x_max":660,"o":"m 660 850 q 655 838 660 843 q 643 833 650 833 l 257 833 q 250 826 250 833 l 250 565 q 257 558 250 558 l 504 558 q 516 553 511 558 q 521 542 521 549 l 521 436 q 516 424 521 429 q 504 419 511 419 l 257 419 q 250 413 250 419 l 250 146 q 257 139 250 139 l 643 139 q 655 134 650 139 q 660 122 660 129 l 660 17 q 655 5 660 10 q 643 0 650 0 l 106 0 q 94 5 99 0 q 89 17 89 10 l 89 956 q 94 967 89 963 q 106 972 99 972 l 643 972 q 655 967 650 972 q 660 956 660 963 l 660 850 z "},"Ė":{"ha":713,"x_min":89,"x_max":660,"o":"m 660 850 q 655 838 660 843 q 643 833 650 833 l 257 833 q 250 826 250 833 l 250 565 q 257 558 250 558 l 504 558 q 516 553 511 558 q 521 542 521 549 l 521 436 q 516 424 521 429 q 504 419 511 419 l 257 419 q 250 413 250 419 l 250 146 q 257 139 250 139 l 643 139 q 655 134 650 139 q 660 122 660 129 l 660 17 q 655 5 660 10 q 643 0 650 0 l 106 0 q 94 5 99 0 q 89 17 89 10 l 89 956 q 94 967 89 963 q 106 972 99 972 l 643 972 q 655 967 650 972 q 660 956 660 963 l 660 850 m 372 1069 q 301 1097 329 1069 q 274 1168 274 1125 q 301 1239 274 1211 q 372 1267 329 1267 q 442 1239 415 1267 q 469 1168 469 1211 q 442 1097 469 1125 q 372 1069 414 1069 z "},"Ẹ":{"ha":713,"x_min":89,"x_max":660,"o":"m 660 850 q 655 838 660 843 q 643 833 650 833 l 257 833 q 250 826 250 833 l 250 565 q 257 558 250 558 l 504 558 q 516 553 511 558 q 521 542 521 549 l 521 436 q 516 424 521 429 q 504 419 511 419 l 257 419 q 250 413 250 419 l 250 146 q 257 139 250 139 l 643 139 q 655 134 650 139 q 660 122 660 129 l 660 17 q 655 5 660 10 q 643 0 650 0 l 106 0 q 94 5 99 0 q 89 17 89 10 l 89 956 q 94 967 89 963 q 106 972 99 972 l 643 972 q 655 967 650 972 q 660 956 660 963 l 660 850 m 374 -297 q 306 -270 332 -297 q 279 -203 279 -243 q 306 -136 279 -162 q 374 -110 332 -110 q 440 -136 414 -110 q 467 -203 467 -162 q 440 -270 467 -243 q 374 -297 414 -297 z "},"È":{"ha":713,"x_min":89,"x_max":660,"o":"m 660 850 q 655 838 660 843 q 643 833 650 833 l 257 833 q 250 826 250 833 l 250 565 q 257 558 250 558 l 504 558 q 516 553 511 558 q 521 542 521 549 l 521 436 q 516 424 521 429 q 504 419 511 419 l 257 419 q 250 413 250 419 l 250 146 q 257 139 250 139 l 643 139 q 655 134 650 139 q 660 122 660 129 l 660 17 q 655 5 660 10 q 643 0 650 0 l 106 0 q 94 5 99 0 q 89 17 89 10 l 89 956 q 94 967 89 963 q 106 972 99 972 l 643 972 q 655 967 650 972 q 660 956 660 963 l 660 850 m 425 1081 q 428 1072 428 1075 q 414 1061 428 1061 l 328 1061 q 308 1072 315 1061 l 208 1214 q 206 1224 206 1218 q 219 1235 206 1235 l 325 1235 q 346 1224 339 1235 l 425 1081 z "},"Ẻ":{"ha":713,"x_min":89,"x_max":660,"o":"m 660 850 q 655 838 660 843 q 643 833 650 833 l 257 833 q 250 826 250 833 l 250 565 q 257 558 250 558 l 504 558 q 516 553 511 558 q 521 542 521 549 l 521 436 q 516 424 521 429 q 504 419 511 419 l 257 419 q 250 413 250 419 l 250 146 q 257 139 250 139 l 643 139 q 655 134 650 139 q 660 122 660 129 l 660 17 q 655 5 660 10 q 643 0 650 0 l 106 0 q 94 5 99 0 q 89 17 89 10 l 89 956 q 94 967 89 963 q 106 972 99 972 l 643 972 q 655 967 650 972 q 660 956 660 963 l 660 850 m 357 1035 q 346 1056 338 1039 q 392 1124 361 1093 q 414 1151 407 1139 q 421 1182 421 1163 q 407 1209 421 1197 q 375 1221 393 1221 q 340 1212 354 1221 q 307 1178 326 1203 q 294 1169 303 1169 q 283 1174 288 1169 l 247 1200 q 240 1213 240 1204 q 243 1224 240 1219 q 302 1283 272 1265 q 379 1301 332 1301 q 473 1269 438 1301 q 508 1182 508 1236 q 495 1129 508 1150 q 456 1082 482 1108 q 419 1038 431 1057 q 399 1026 413 1025 l 357 1035 z "},"Ē":{"ha":713,"x_min":89,"x_max":660,"o":"m 660 850 q 655 838 660 843 q 643 833 650 833 l 257 833 q 250 826 250 833 l 250 565 q 257 558 250 558 l 504 558 q 516 553 511 558 q 521 542 521 549 l 521 436 q 516 424 521 429 q 504 419 511 419 l 257 419 q 250 413 250 419 l 250 146 q 257 139 250 139 l 643 139 q 655 134 650 139 q 660 122 660 129 l 660 17 q 655 5 660 10 q 643 0 650 0 l 106 0 q 94 5 99 0 q 89 17 89 10 l 89 956 q 94 967 89 963 q 106 972 99 972 l 643 972 q 655 967 650 972 q 660 956 660 963 l 660 850 m 214 1075 q 202 1080 207 1075 q 197 1092 197 1085 l 197 1169 q 202 1181 197 1176 q 214 1186 207 1186 l 526 1186 q 538 1181 533 1186 q 543 1169 543 1176 l 543 1092 q 538 1080 543 1085 q 526 1075 533 1075 l 214 1075 z "},"Ę":{"ha":713,"x_min":89,"x_max":660,"o":"m 660 850 q 655 838 660 843 q 643 833 650 833 l 257 833 q 250 826 250 833 l 250 565 q 257 558 250 558 l 504 558 q 516 553 511 558 q 521 542 521 549 l 521 436 q 516 424 521 429 q 504 419 511 419 l 257 419 q 250 413 250 419 l 250 146 q 257 139 250 139 l 643 139 q 655 134 650 139 q 660 122 660 129 l 660 17 q 655 5 660 10 q 643 0 650 0 l 432 0 q 422 -3 428 0 q 358 -107 358 -60 q 360 -119 358 -115 q 378 -149 365 -139 q 408 -158 390 -158 q 428 -156 414 -158 l 435 -154 q 447 -168 446 -154 l 454 -219 l 454 -225 q 443 -240 454 -235 q 378 -250 411 -250 q 300 -230 333 -250 q 256 -164 267 -210 q 251 -129 251 -147 q 308 -8 251 -65 q 310 -3 311 -6 q 304 0 308 0 l 106 0 q 94 5 99 0 q 89 17 89 10 l 89 956 q 94 967 89 963 q 106 972 99 972 l 643 972 q 655 967 650 972 q 660 956 660 963 l 660 850 z "},"Ẽ":{"ha":713,"x_min":89,"x_max":660,"o":"m 660 850 q 655 838 660 843 q 643 833 650 833 l 257 833 q 250 826 250 833 l 250 565 q 257 558 250 558 l 504 558 q 516 553 511 558 q 521 542 521 549 l 521 436 q 516 424 521 429 q 504 419 511 419 l 257 419 q 250 413 250 419 l 250 146 q 257 139 250 139 l 643 139 q 655 134 650 139 q 660 122 660 129 l 660 17 q 655 5 660 10 q 643 0 650 0 l 106 0 q 94 5 99 0 q 89 17 89 10 l 89 956 q 94 967 89 963 q 106 972 99 972 l 643 972 q 655 967 650 972 q 660 956 660 963 l 660 850 m 465 1078 q 424 1085 442 1078 q 382 1106 406 1092 q 360 1117 374 1110 q 336 1126 346 1124 q 315 1129 326 1129 q 250 1099 276 1129 q 228 1096 239 1085 l 182 1138 q 178 1161 171 1149 q 232 1221 199 1200 q 306 1242 265 1242 q 351 1234 332 1242 q 400 1210 371 1226 q 419 1199 406 1207 q 443 1188 432 1192 q 465 1185 454 1185 q 526 1217 503 1185 q 540 1226 533 1226 q 550 1221 544 1226 l 593 1179 q 599 1167 599 1174 q 596 1156 599 1160 q 542 1098 576 1118 q 465 1078 507 1078 z "},"F":{"ha":679,"x_min":89,"x_max":658,"o":"m 658 850 q 653 838 658 843 q 642 833 649 833 l 257 833 q 250 826 250 833 l 250 565 q 257 558 250 558 l 504 558 q 516 553 511 558 q 521 542 521 549 l 521 436 q 516 424 521 429 q 504 419 511 419 l 257 419 q 250 413 250 419 l 250 17 q 245 5 250 10 q 233 0 240 0 l 106 0 q 94 5 99 0 q 89 17 89 10 l 89 956 q 94 967 89 963 q 106 972 99 972 l 642 972 q 653 967 649 972 q 658 956 658 963 l 658 850 z "},"G":{"ha":746,"x_min":68,"x_max":678,"o":"m 372 -11 q 213 25 282 -11 q 106 127 144 61 q 68 279 68 193 l 68 693 q 106 845 68 779 q 213 947 144 911 q 372 983 282 983 q 532 948 463 983 q 640 849 601 913 q 678 703 678 785 l 678 671 q 673 659 678 664 q 661 654 668 654 l 533 654 q 522 659 526 654 q 517 671 517 664 l 517 703 q 477 805 517 765 q 372 844 438 844 q 269 803 308 844 q 229 696 229 763 l 229 276 q 270 169 229 210 q 376 128 311 128 q 478 165 440 128 q 517 265 517 201 l 517 375 q 510 382 517 382 l 383 382 q 372 387 376 382 q 367 399 367 392 l 367 500 q 372 512 367 507 q 383 517 376 517 l 661 517 q 673 512 668 517 q 678 500 678 507 l 678 283 q 594 67 678 146 q 372 -11 511 -11 z "},"Ğ":{"ha":746,"x_min":68,"x_max":678,"o":"m 372 -11 q 213 25 282 -11 q 106 127 144 61 q 68 279 68 193 l 68 693 q 106 845 68 779 q 213 947 144 911 q 372 983 282 983 q 532 948 463 983 q 640 849 601 913 q 678 703 678 785 l 678 671 q 673 659 678 664 q 661 654 668 654 l 533 654 q 522 659 526 654 q 517 671 517 664 l 517 703 q 477 805 517 765 q 372 844 438 844 q 269 803 308 844 q 229 696 229 763 l 229 276 q 270 169 229 210 q 376 128 311 128 q 478 165 440 128 q 517 265 517 201 l 517 375 q 510 382 517 382 l 383 382 q 372 387 376 382 q 367 399 367 392 l 367 500 q 372 512 367 507 q 383 517 376 517 l 661 517 q 673 512 668 517 q 678 500 678 507 l 678 283 q 594 67 678 146 q 372 -11 511 -11 m 372 1038 q 249 1078 299 1038 q 193 1185 200 1119 l 193 1188 q 208 1201 193 1201 l 272 1201 q 289 1186 286 1201 q 317 1136 294 1156 q 372 1117 340 1117 q 427 1136 404 1117 q 456 1186 450 1156 q 472 1201 458 1201 l 536 1201 q 553 1186 553 1201 q 497 1079 546 1121 q 372 1038 447 1038 z "},"Ĝ":{"ha":746,"x_min":68,"x_max":678,"o":"m 372 -11 q 213 25 282 -11 q 106 127 144 61 q 68 279 68 193 l 68 693 q 106 845 68 779 q 213 947 144 911 q 372 983 282 983 q 532 948 463 983 q 640 849 601 913 q 678 703 678 785 l 678 671 q 673 659 678 664 q 661 654 668 654 l 533 654 q 522 659 526 654 q 517 671 517 664 l 517 703 q 477 805 517 765 q 372 844 438 844 q 269 803 308 844 q 229 696 229 763 l 229 276 q 270 169 229 210 q 376 128 311 128 q 478 165 440 128 q 517 265 517 201 l 517 375 q 510 382 517 382 l 383 382 q 372 387 376 382 q 367 399 367 392 l 367 500 q 372 512 367 507 q 383 517 376 517 l 661 517 q 673 512 668 517 q 678 500 678 507 l 678 283 q 594 67 678 146 q 372 -11 511 -11 m 193 1063 q 181 1069 183 1063 q 183 1083 178 1075 l 278 1226 q 297 1238 285 1238 l 443 1238 q 463 1226 456 1238 l 561 1083 q 564 1074 564 1079 q 550 1063 564 1063 l 451 1063 q 432 1074 438 1063 l 376 1164 q 371 1168 374 1168 q 367 1164 368 1168 l 311 1074 q 292 1063 306 1063 l 193 1063 z "},"Ġ":{"ha":746,"x_min":68,"x_max":678,"o":"m 372 -11 q 213 25 282 -11 q 106 127 144 61 q 68 279 68 193 l 68 693 q 106 845 68 779 q 213 947 144 911 q 372 983 282 983 q 532 948 463 983 q 640 849 601 913 q 678 703 678 785 l 678 671 q 673 659 678 664 q 661 654 668 654 l 533 654 q 522 659 526 654 q 517 671 517 664 l 517 703 q 477 805 517 765 q 372 844 438 844 q 269 803 308 844 q 229 696 229 763 l 229 276 q 270 169 229 210 q 376 128 311 128 q 478 165 440 128 q 517 265 517 201 l 517 375 q 510 382 517 382 l 383 382 q 372 387 376 382 q 367 399 367 392 l 367 500 q 372 512 367 507 q 383 517 376 517 l 661 517 q 673 512 668 517 q 678 500 678 507 l 678 283 q 594 67 678 146 q 372 -11 511 -11 m 374 1072 q 303 1100 331 1072 q 275 1171 275 1128 q 303 1242 275 1214 q 374 1269 331 1269 q 444 1242 417 1269 q 471 1171 471 1214 q 443 1100 471 1128 q 374 1072 415 1072 z "},"H":{"ha":774,"x_min":89,"x_max":689,"o":"m 528 956 q 533 967 528 963 q 544 972 538 972 l 672 972 q 684 967 679 972 q 689 956 689 963 l 689 17 q 684 5 689 10 q 672 0 679 0 l 544 0 q 533 5 538 0 q 528 17 528 10 l 528 411 q 521 418 528 418 l 257 418 q 250 411 250 418 l 250 17 q 245 5 250 10 q 233 0 240 0 l 106 0 q 94 5 99 0 q 89 17 89 10 l 89 956 q 94 967 89 963 q 106 972 99 972 l 233 972 q 245 967 240 972 q 250 956 250 963 l 250 565 q 257 558 250 558 l 521 558 q 528 565 528 558 l 528 956 z "},"Ħ":{"ha":774,"x_min":14,"x_max":764,"o":"m 747 815 q 759 810 754 815 q 764 799 764 806 l 764 721 q 759 709 764 714 q 747 704 754 704 l 696 704 q 689 697 689 704 l 689 17 q 684 5 689 10 q 672 0 679 0 l 544 0 q 533 5 538 0 q 528 17 528 10 l 528 411 q 521 418 528 418 l 257 418 q 250 411 250 418 l 250 17 q 245 5 250 10 q 233 0 240 0 l 106 0 q 94 5 99 0 q 89 17 89 10 l 89 697 q 82 704 89 704 l 31 704 q 19 709 24 704 q 14 721 14 714 l 14 799 q 19 810 14 806 q 31 815 24 815 l 82 815 q 89 822 89 815 l 89 956 q 94 967 89 963 q 106 972 99 972 l 233 972 q 245 967 240 972 q 250 956 250 963 l 250 822 q 257 815 250 815 l 521 815 q 528 822 528 815 l 528 956 q 533 967 528 963 q 544 972 538 972 l 672 972 q 684 967 679 972 q 689 956 689 963 l 689 822 q 696 815 689 815 l 747 815 m 521 558 q 528 565 528 558 l 528 697 q 521 704 528 704 l 257 704 q 250 697 250 704 l 250 565 q 257 558 250 558 l 521 558 z "},"Ĥ":{"ha":774,"x_min":89,"x_max":689,"o":"m 528 956 q 533 967 528 963 q 544 972 538 972 l 672 972 q 684 967 679 972 q 689 956 689 963 l 689 17 q 684 5 689 10 q 672 0 679 0 l 544 0 q 533 5 538 0 q 528 17 528 10 l 528 411 q 521 418 528 418 l 257 418 q 250 411 250 418 l 250 17 q 245 5 250 10 q 233 0 240 0 l 106 0 q 94 5 99 0 q 89 17 89 10 l 89 956 q 94 967 89 963 q 106 972 99 972 l 233 972 q 245 967 240 972 q 250 956 250 963 l 250 565 q 257 558 250 558 l 521 558 q 528 565 528 558 l 528 956 m 210 1061 q 197 1067 200 1061 q 200 1082 194 1074 l 294 1225 q 314 1236 301 1236 l 460 1236 q 479 1225 472 1236 l 578 1082 q 581 1072 581 1078 q 567 1061 581 1061 l 468 1061 q 449 1072 454 1061 l 393 1163 q 388 1167 390 1167 q 383 1163 385 1167 l 328 1072 q 308 1061 322 1061 l 210 1061 z "},"I":{"ha":338,"x_min":89,"x_max":250,"o":"m 106 0 q 94 5 99 0 q 89 17 89 10 l 89 956 q 94 967 89 963 q 106 972 99 972 l 233 972 q 245 967 240 972 q 250 956 250 963 l 250 17 q 245 5 250 10 q 233 0 240 0 l 106 0 z "},"Í":{"ha":338,"x_min":88,"x_max":313,"o":"m 106 0 q 94 5 99 0 q 89 17 89 10 l 89 956 q 94 967 89 963 q 106 972 99 972 l 233 972 q 245 967 240 972 q 250 956 250 963 l 250 17 q 245 5 250 10 q 233 0 240 0 l 106 0 m 103 1061 q 90 1067 93 1061 q 92 1081 88 1072 l 171 1224 q 192 1235 178 1235 l 296 1235 q 309 1228 306 1235 q 307 1214 313 1222 l 208 1072 q 189 1061 201 1061 l 103 1061 z "},"Î":{"ha":338,"x_min":-26,"x_max":360,"o":"m 106 0 q 94 5 99 0 q 89 17 89 10 l 89 956 q 94 967 89 963 q 106 972 99 972 l 233 972 q 245 967 240 972 q 250 956 250 963 l 250 17 q 245 5 250 10 q 233 0 240 0 l 106 0 m -11 1060 q -24 1066 -21 1060 q -21 1081 -26 1072 l 74 1224 q 93 1235 81 1235 l 239 1235 q 258 1224 251 1235 l 357 1081 q 360 1071 360 1076 q 346 1060 360 1060 l 247 1060 q 228 1071 233 1060 l 172 1161 q 167 1165 169 1165 q 163 1161 164 1165 l 107 1071 q 88 1060 101 1060 l -11 1060 z "},"Ï":{"ha":338,"x_min":-56,"x_max":392,"o":"m 106 0 q 94 5 99 0 q 89 17 89 10 l 89 956 q 94 967 89 963 q 106 972 99 972 l 233 972 q 245 967 240 972 q 250 956 250 963 l 250 17 q 245 5 250 10 q 233 0 240 0 l 106 0 z "},"İ":{"ha":338,"x_min":71,"x_max":267,"o":"m 106 0 q 94 5 99 0 q 89 17 89 10 l 89 956 q 94 967 89 963 q 106 972 99 972 l 233 972 q 245 967 240 972 q 250 956 250 963 l 250 17 q 245 5 250 10 q 233 0 240 0 l 106 0 m 169 1069 q 99 1097 126 1069 q 71 1168 71 1125 q 99 1239 71 1211 q 169 1267 126 1267 q 240 1239 213 1267 q 267 1168 267 1211 q 239 1097 267 1125 q 169 1069 211 1069 z "},"Ị":{"ha":338,"x_min":75,"x_max":263,"o":"m 106 0 q 94 5 99 0 q 89 17 89 10 l 89 956 q 94 967 89 963 q 106 972 99 972 l 233 972 q 245 967 240 972 q 250 956 250 963 l 250 17 q 245 5 250 10 q 233 0 240 0 l 106 0 m 169 -297 q 101 -270 128 -297 q 75 -203 75 -243 q 101 -136 75 -162 q 169 -110 128 -110 q 236 -136 210 -110 q 263 -203 263 -162 q 236 -270 263 -243 q 169 -297 210 -297 z "},"Ì":{"ha":338,"x_min":3,"x_max":250,"o":"m 106 0 q 94 5 99 0 q 89 17 89 10 l 89 956 q 94 967 89 963 q 106 972 99 972 l 233 972 q 245 967 240 972 q 250 956 250 963 l 250 17 q 245 5 250 10 q 233 0 240 0 l 106 0 m 222 1081 q 225 1072 225 1075 q 211 1061 225 1061 l 125 1061 q 106 1072 113 1061 l 6 1214 q 3 1224 3 1218 q 17 1235 3 1235 l 122 1235 q 143 1224 136 1235 l 222 1081 z "},"Ỉ":{"ha":338,"x_min":38,"x_max":306,"o":"m 106 0 q 94 5 99 0 q 89 17 89 10 l 89 956 q 94 967 89 963 q 106 972 99 972 l 233 972 q 245 967 240 972 q 250 956 250 963 l 250 17 q 245 5 250 10 q 233 0 240 0 l 106 0 m 154 1035 q 143 1056 135 1039 q 189 1124 158 1093 q 211 1151 204 1139 q 218 1182 218 1163 q 204 1209 218 1197 q 172 1221 190 1221 q 138 1212 151 1221 q 104 1178 124 1203 q 92 1169 100 1169 q 81 1174 85 1169 l 44 1200 q 38 1213 38 1204 q 40 1224 38 1219 q 99 1283 69 1265 q 176 1301 129 1301 q 270 1269 235 1301 q 306 1182 306 1236 q 292 1129 306 1150 q 253 1082 279 1108 q 217 1038 228 1057 q 196 1026 210 1025 l 154 1035 z "},"Ī":{"ha":338,"x_min":-6,"x_max":340,"o":"m 106 0 q 94 5 99 0 q 89 17 89 10 l 89 956 q 94 967 89 963 q 106 972 99 972 l 233 972 q 245 967 240 972 q 250 956 250 963 l 250 17 q 245 5 250 10 q 233 0 240 0 l 106 0 m 11 1075 q -1 1080 4 1075 q -6 1092 -6 1085 l -6 1169 q -1 1181 -6 1176 q 11 1186 4 1186 l 324 1186 q 335 1181 331 1186 q 340 1169 340 1176 l 340 1092 q 335 1080 340 1085 q 324 1075 331 1075 l 11 1075 z "},"Į":{"ha":315,"x_min":47,"x_max":250,"o":"m 94 0 q 83 5 88 0 q 78 17 78 10 l 78 956 q 83 967 78 963 q 94 972 88 972 l 222 972 q 234 967 229 972 q 239 956 239 963 l 239 17 q 234 5 239 10 q 222 0 229 0 l 94 0 m 250 -237 q 238 -254 250 -249 q 174 -264 208 -264 q 96 -244 129 -264 q 51 -178 63 -224 q 47 -144 47 -161 q 118 -8 47 -71 q 139 0 126 0 l 207 0 q 221 -8 221 0 q 214 -21 221 -14 q 154 -119 154 -74 q 168 -159 154 -146 q 203 -172 182 -172 q 222 -169 208 -172 l 231 -168 q 243 -182 242 -168 l 250 -233 l 250 -237 z "},"Ĩ":{"ha":338,"x_min":-32,"x_max":396,"o":"m 106 0 q 94 5 99 0 q 89 17 89 10 l 89 956 q 94 967 89 963 q 106 972 99 972 l 233 972 q 245 967 240 972 q 250 956 250 963 l 250 17 q 245 5 250 10 q 233 0 240 0 l 106 0 m 263 1078 q 221 1085 239 1078 q 179 1106 203 1092 q 157 1117 171 1110 q 133 1126 143 1124 q 113 1129 124 1129 q 47 1099 74 1129 q 25 1096 36 1085 l -21 1138 q -25 1161 -32 1149 q 29 1221 -4 1200 q 103 1242 63 1242 q 149 1234 129 1242 q 197 1210 168 1226 q 216 1199 203 1207 q 240 1188 229 1192 q 263 1185 251 1185 q 324 1217 300 1185 q 338 1226 331 1226 q 347 1221 342 1226 l 390 1179 q 396 1167 396 1174 q 393 1156 396 1160 q 339 1098 374 1118 q 263 1078 304 1078 z "},"J":{"ha":711,"x_min":28,"x_max":622,"o":"m 324 -11 q 108 65 189 -11 q 28 268 28 142 l 28 365 q 33 377 28 372 q 44 382 38 382 l 172 382 q 184 377 179 382 q 189 365 189 372 l 189 267 q 226 166 189 204 q 324 128 263 128 q 424 166 385 128 q 463 267 463 204 l 463 956 q 467 967 463 963 q 479 972 472 972 l 606 972 q 617 967 613 972 q 622 956 622 963 l 622 268 q 585 122 622 185 q 479 24 547 58 q 324 -11 411 -11 z "},"Ĵ":{"ha":711,"x_min":28,"x_max":733,"o":"m 324 -11 q 108 65 189 -11 q 28 268 28 142 l 28 365 q 33 377 28 372 q 44 382 38 382 l 172 382 q 184 377 179 382 q 189 365 189 372 l 189 267 q 226 166 189 204 q 324 128 263 128 q 424 166 385 128 q 463 267 463 204 l 463 956 q 467 967 463 963 q 479 972 472 972 l 606 972 q 617 967 613 972 q 622 956 622 963 l 622 268 q 585 122 622 185 q 479 24 547 58 q 324 -11 411 -11 m 363 1061 q 350 1067 353 1061 q 353 1082 347 1074 l 447 1225 q 467 1236 454 1236 l 613 1236 q 632 1225 625 1236 l 731 1082 q 733 1072 733 1078 q 719 1061 733 1061 l 621 1061 q 601 1072 607 1061 l 546 1163 q 540 1167 543 1167 q 536 1163 538 1167 l 481 1072 q 461 1061 475 1061 l 363 1061 z "},"K":{"ha":763,"x_min":89,"x_max":736,"o":"m 106 0 q 94 5 99 0 q 89 17 89 10 l 89 956 q 94 967 89 963 q 106 972 99 972 l 233 972 q 245 967 240 972 q 250 956 250 963 l 250 556 q 253 550 250 551 q 258 553 256 549 l 543 961 q 563 972 550 972 l 703 972 q 716 966 713 972 q 714 951 719 960 l 451 561 q 451 551 450 557 l 733 19 q 736 11 736 14 q 722 0 736 0 l 581 0 q 560 13 567 0 l 340 426 q 336 431 339 431 q 331 428 333 431 l 253 321 q 250 313 250 315 l 250 17 q 245 5 250 10 q 233 0 240 0 l 106 0 z "},"L":{"ha":685,"x_min":89,"x_max":656,"o":"m 106 0 q 94 5 99 0 q 89 17 89 10 l 89 956 q 94 967 89 963 q 106 972 99 972 l 233 972 q 245 967 240 972 q 250 956 250 963 l 250 146 q 257 139 250 139 l 639 139 q 651 134 646 139 q 656 122 656 129 l 656 17 q 651 5 656 10 q 639 0 646 0 l 106 0 z "},"Ĺ":{"ha":685,"x_min":88,"x_max":656,"o":"m 106 0 q 94 5 99 0 q 89 17 89 10 l 89 956 q 94 967 89 963 q 106 972 99 972 l 233 972 q 245 967 240 972 q 250 956 250 963 l 250 146 q 257 139 250 139 l 639 139 q 651 134 646 139 q 656 122 656 129 l 656 17 q 651 5 656 10 q 639 0 646 0 l 106 0 m 103 1061 q 90 1067 93 1061 q 92 1081 88 1072 l 171 1224 q 192 1235 178 1235 l 296 1235 q 309 1228 306 1235 q 307 1214 313 1222 l 208 1072 q 189 1061 201 1061 l 103 1061 z "},"Ľ":{"ha":686,"x_min":89,"x_max":656,"o":"m 106 0 q 94 5 99 0 q 89 17 89 10 l 89 956 q 94 967 89 963 q 106 972 99 972 l 233 972 q 245 967 240 972 q 250 956 250 963 l 250 146 q 257 139 250 139 l 639 139 q 651 134 646 139 q 656 122 656 129 l 656 17 q 651 5 656 10 q 639 0 646 0 l 106 0 z "},"Ļ":{"ha":685,"x_min":89,"x_max":656,"o":"m 106 0 q 94 5 99 0 q 89 17 89 10 l 89 956 q 94 967 89 963 q 106 972 99 972 l 233 972 q 245 967 240 972 q 250 956 250 963 l 250 146 q 257 139 250 139 l 639 139 q 651 134 646 139 q 656 122 656 129 l 656 17 q 651 5 656 10 q 639 0 646 0 l 106 0 z "},"Ł":{"ha":761,"x_min":-24,"x_max":733,"o":"m 326 146 q 333 139 326 139 l 717 139 q 728 134 724 139 q 733 122 733 129 l 733 17 q 728 5 733 10 q 717 0 724 0 l 182 0 q 170 5 175 0 q 165 17 165 10 l 165 289 q 163 294 165 293 q 157 293 160 296 l 63 218 q 51 214 57 214 q 39 221 46 214 l -18 290 q -24 301 -24 299 q -17 314 -24 307 l 161 456 q 165 464 165 458 l 165 956 q 170 967 165 963 q 182 972 175 972 l 310 972 q 322 967 317 972 q 326 956 326 963 l 326 599 q 329 593 326 594 q 335 594 332 592 l 561 776 q 572 781 568 781 q 585 774 578 781 l 643 704 q 647 693 647 699 q 640 681 647 688 l 331 432 q 326 424 326 431 l 326 146 z "},"M":{"ha":871,"x_min":86,"x_max":785,"o":"m 619 961 q 639 972 625 972 l 768 972 q 780 967 775 972 q 785 956 785 963 l 785 17 q 780 5 785 10 q 768 0 775 0 l 640 0 q 628 5 633 0 q 624 17 624 10 l 624 675 q 621 681 624 681 q 615 678 618 682 l 468 435 q 449 424 463 424 l 422 424 q 403 435 408 424 l 256 676 q 250 680 253 681 q 247 674 247 679 l 247 17 q 242 5 247 10 q 231 0 238 0 l 103 0 q 91 5 96 0 q 86 17 86 10 l 86 956 q 91 967 86 963 q 103 972 96 972 l 231 972 q 250 961 244 972 l 432 671 q 440 671 436 663 l 619 961 z "},"N":{"ha":817,"x_min":88,"x_max":729,"o":"m 568 956 q 573 967 568 963 q 585 972 578 972 l 713 972 q 724 967 719 972 q 729 956 729 963 l 729 17 q 724 5 729 10 q 713 0 719 0 l 578 0 q 558 13 565 0 l 256 635 q 250 638 253 639 q 247 632 247 638 l 249 17 q 244 5 249 10 q 232 0 239 0 l 104 0 q 92 5 97 0 q 88 17 88 10 l 88 956 q 92 967 88 963 q 104 972 97 972 l 238 972 q 257 960 251 972 l 561 335 q 567 331 564 331 q 569 338 569 332 l 568 956 z "},"Ń":{"ha":817,"x_min":88,"x_max":729,"o":"m 568 956 q 573 967 568 963 q 585 972 578 972 l 713 972 q 724 967 719 972 q 729 956 729 963 l 729 17 q 724 5 729 10 q 713 0 719 0 l 578 0 q 558 13 565 0 l 256 635 q 250 638 253 639 q 247 632 247 638 l 249 17 q 244 5 249 10 q 232 0 239 0 l 104 0 q 92 5 97 0 q 88 17 88 10 l 88 956 q 92 967 88 963 q 104 972 97 972 l 238 972 q 257 960 251 972 l 561 335 q 567 331 564 331 q 569 338 569 332 l 568 956 m 338 1064 q 325 1069 328 1064 q 326 1083 322 1075 l 406 1226 q 426 1238 413 1238 l 531 1238 q 544 1231 540 1238 q 542 1217 547 1225 l 443 1075 q 424 1064 436 1064 l 338 1064 z "},"Ň":{"ha":817,"x_min":88,"x_max":729,"o":"m 568 956 q 573 967 568 963 q 585 972 578 972 l 713 972 q 724 967 719 972 q 729 956 729 963 l 729 17 q 724 5 729 10 q 713 0 719 0 l 578 0 q 558 13 565 0 l 256 635 q 250 638 253 639 q 247 632 247 638 l 249 17 q 244 5 249 10 q 232 0 239 0 l 104 0 q 92 5 97 0 q 88 17 88 10 l 88 956 q 92 967 88 963 q 104 972 97 972 l 238 972 q 257 960 251 972 l 561 335 q 567 331 564 331 q 569 338 569 332 l 568 956 m 221 1217 q 218 1226 218 1221 q 231 1238 218 1238 l 329 1238 q 349 1226 343 1238 l 404 1136 q 410 1132 407 1132 q 414 1136 413 1132 l 469 1226 q 489 1238 475 1238 l 588 1238 q 601 1231 597 1238 q 599 1217 604 1225 l 500 1074 q 481 1063 493 1063 l 335 1063 q 315 1074 322 1063 l 221 1217 z "},"Ŋ":{"ha":817,"x_min":88,"x_max":729,"o":"m 568 956 q 573 967 568 963 q 585 972 578 972 l 713 972 q 724 967 719 972 q 729 956 729 963 l 729 0 q 707 -141 728 -89 q 628 -219 686 -193 q 461 -244 571 -244 q 439 -228 439 -244 l 438 -124 q 460 -107 438 -107 q 538 -81 518 -107 q 560 4 558 -56 q 558 13 560 10 l 256 635 q 250 638 253 639 q 247 632 247 638 l 249 17 q 244 5 249 10 q 232 0 239 0 l 104 0 q 92 5 97 0 q 88 17 88 10 l 88 956 q 92 967 88 963 q 104 972 97 972 l 238 972 q 257 960 251 972 l 551 354 q 557 351 554 350 q 560 357 560 351 l 560 617 q 564 633 560 633 q 568 640 568 633 l 568 956 z "},"Ñ":{"ha":817,"x_min":88,"x_max":729,"o":"m 568 956 q 573 967 568 963 q 585 972 578 972 l 713 972 q 724 967 719 972 q 729 956 729 963 l 729 17 q 724 5 729 10 q 713 0 719 0 l 578 0 q 558 13 565 0 l 256 635 q 250 638 253 639 q 247 632 247 638 l 249 17 q 244 5 249 10 q 232 0 239 0 l 104 0 q 92 5 97 0 q 88 17 88 10 l 88 956 q 92 967 88 963 q 104 972 97 972 l 238 972 q 257 960 251 972 l 561 335 q 567 331 564 331 q 569 338 569 332 l 568 956 m 497 1081 q 456 1088 474 1081 q 414 1108 438 1094 q 392 1119 406 1113 q 368 1129 378 1126 q 347 1132 358 1132 q 282 1101 308 1132 q 260 1099 271 1088 l 214 1140 q 210 1164 203 1151 q 264 1224 231 1203 q 338 1244 297 1244 q 383 1237 364 1244 q 432 1213 403 1229 q 451 1202 438 1210 q 475 1191 464 1194 q 497 1188 486 1188 q 558 1219 535 1188 q 572 1229 565 1229 q 582 1224 576 1229 l 625 1182 q 631 1169 631 1176 q 628 1158 631 1163 q 574 1101 608 1121 q 497 1081 539 1081 z "},"O":{"ha":756,"x_min":68,"x_max":688,"o":"m 376 -12 q 215 25 285 -12 q 106 131 144 63 q 68 290 68 200 l 68 682 q 106 840 68 771 q 215 946 144 908 q 376 983 285 983 q 540 946 469 983 q 649 840 610 908 q 688 682 688 771 l 688 290 q 649 131 688 200 q 540 25 610 63 q 376 -12 469 -12 m 376 126 q 485 170 444 126 q 526 283 526 214 l 526 686 q 485 801 526 757 q 376 844 444 844 q 269 801 310 844 q 229 686 229 757 l 229 283 q 269 170 229 214 q 376 126 310 126 z "},"Ó":{"ha":756,"x_min":68,"x_max":688,"o":"m 376 -12 q 215 25 285 -12 q 106 131 144 63 q 68 290 68 200 l 68 682 q 106 840 68 771 q 215 946 144 908 q 376 983 285 983 q 540 946 469 983 q 649 840 610 908 q 688 682 688 771 l 688 290 q 649 131 688 200 q 540 25 610 63 q 376 -12 469 -12 m 376 126 q 485 170 444 126 q 526 283 526 214 l 526 686 q 485 801 526 757 q 376 844 444 844 q 269 801 310 844 q 229 686 229 757 l 229 283 q 269 170 229 214 q 376 126 310 126 m 311 1060 q 299 1065 301 1060 q 300 1079 296 1071 l 379 1222 q 400 1233 386 1233 l 504 1233 q 517 1227 514 1233 q 515 1213 521 1221 l 417 1071 q 397 1060 410 1060 l 311 1060 z "},"Ô":{"ha":756,"x_min":68,"x_max":688,"o":"m 376 -12 q 215 25 285 -12 q 106 131 144 63 q 68 290 68 200 l 68 682 q 106 840 68 771 q 215 946 144 908 q 376 983 285 983 q 540 946 469 983 q 649 840 610 908 q 688 682 688 771 l 688 290 q 649 131 688 200 q 540 25 610 63 q 376 -12 469 -12 m 376 126 q 485 170 444 126 q 526 283 526 214 l 526 686 q 485 801 526 757 q 376 844 444 844 q 269 801 310 844 q 229 686 229 757 l 229 283 q 269 170 229 214 q 376 126 310 126 m 197 1058 q 185 1065 188 1058 q 188 1079 182 1071 l 282 1222 q 301 1233 289 1233 l 447 1233 q 467 1222 460 1233 l 565 1079 q 568 1069 568 1075 q 554 1058 568 1058 l 456 1058 q 436 1069 442 1058 l 381 1160 q 375 1164 378 1164 q 371 1160 372 1164 l 315 1069 q 296 1058 310 1058 l 197 1058 z "},"Ố":{"ha":756,"x_min":68,"x_max":786,"o":"m 376 -12 q 215 25 285 -12 q 106 131 144 63 q 68 290 68 200 l 68 682 q 106 840 68 771 q 215 946 144 908 q 376 983 285 983 q 540 946 469 983 q 649 840 610 908 q 688 682 688 771 l 688 290 q 649 131 688 200 q 540 25 610 63 q 376 -12 469 -12 m 376 126 q 485 170 444 126 q 526 283 526 214 l 526 686 q 485 801 526 757 q 376 844 444 844 q 269 801 310 844 q 229 686 229 757 l 229 283 q 269 170 229 214 q 376 126 310 126 z "},"Ộ":{"ha":756,"x_min":68,"x_max":688,"o":"m 376 -12 q 215 25 285 -12 q 106 131 144 63 q 68 290 68 200 l 68 682 q 106 840 68 771 q 215 946 144 908 q 376 983 285 983 q 540 946 469 983 q 649 840 610 908 q 688 682 688 771 l 688 290 q 649 131 688 200 q 540 25 610 63 q 376 -12 469 -12 m 376 126 q 485 170 444 126 q 526 283 526 214 l 526 686 q 485 801 526 757 q 376 844 444 844 q 269 801 310 844 q 229 686 229 757 l 229 283 q 269 170 229 214 q 376 126 310 126 m 379 -297 q 311 -270 338 -297 q 285 -203 285 -243 q 311 -136 285 -162 q 379 -110 338 -110 q 446 -136 419 -110 q 472 -203 472 -162 q 446 -270 472 -243 q 379 -297 419 -297 m 197 1058 q 185 1065 188 1058 q 188 1079 182 1071 l 282 1222 q 301 1233 289 1233 l 447 1233 q 467 1222 460 1233 l 565 1079 q 568 1069 568 1075 q 554 1058 568 1058 l 456 1058 q 436 1069 442 1058 l 381 1160 q 375 1164 378 1164 q 371 1160 372 1164 l 315 1069 q 296 1058 310 1058 l 197 1058 z "},"Ồ":{"ha":756,"x_min":68,"x_max":688,"o":"m 376 -12 q 215 25 285 -12 q 106 131 144 63 q 68 290 68 200 l 68 682 q 106 840 68 771 q 215 946 144 908 q 376 983 285 983 q 540 946 469 983 q 649 840 610 908 q 688 682 688 771 l 688 290 q 649 131 688 200 q 540 25 610 63 q 376 -12 469 -12 m 376 126 q 485 170 444 126 q 526 283 526 214 l 526 686 q 485 801 526 757 q 376 844 444 844 q 269 801 310 844 q 229 686 229 757 l 229 283 q 269 170 229 214 q 376 126 310 126 z "},"Ổ":{"ha":756,"x_min":68,"x_max":706,"o":"m 376 -12 q 215 25 285 -12 q 106 131 144 63 q 68 290 68 200 l 68 682 q 106 840 68 771 q 215 946 144 908 q 376 983 285 983 q 540 946 469 983 q 649 840 610 908 q 688 682 688 771 l 688 290 q 649 131 688 200 q 540 25 610 63 q 376 -12 469 -12 m 376 126 q 485 170 444 126 q 526 283 526 214 l 526 686 q 485 801 526 757 q 376 844 444 844 q 269 801 310 844 q 229 686 229 757 l 229 283 q 269 170 229 214 q 376 126 310 126 m 558 1200 q 547 1208 550 1203 q 547 1222 543 1214 q 592 1288 561 1257 q 613 1315 607 1304 q 619 1344 619 1326 q 606 1372 619 1360 q 575 1383 593 1383 q 542 1374 556 1383 q 510 1342 528 1365 q 496 1333 504 1333 q 485 1338 489 1333 l 450 1363 q 443 1375 443 1369 q 447 1386 443 1381 q 504 1444 475 1426 q 579 1461 533 1461 q 671 1429 636 1461 q 706 1344 706 1397 q 693 1295 706 1315 q 654 1247 681 1275 q 618 1203 629 1222 q 597 1193 610 1192 l 558 1200 m 197 1058 q 185 1065 188 1058 q 188 1079 182 1071 l 282 1222 q 301 1233 289 1233 l 447 1233 q 467 1222 460 1233 l 565 1079 q 568 1069 568 1075 q 554 1058 568 1058 l 456 1058 q 436 1069 442 1058 l 381 1160 q 375 1164 378 1164 q 371 1160 372 1164 l 315 1069 q 296 1058 310 1058 l 197 1058 z "},"Ỗ":{"ha":756,"x_min":68,"x_max":688,"o":"m 376 -12 q 215 25 285 -12 q 106 131 144 63 q 68 290 68 200 l 68 682 q 106 840 68 771 q 215 946 144 908 q 376 983 285 983 q 540 946 469 983 q 649 840 610 908 q 688 682 688 771 l 688 290 q 649 131 688 200 q 540 25 610 63 q 376 -12 469 -12 m 376 126 q 485 170 444 126 q 526 283 526 214 l 526 686 q 485 801 526 757 q 376 844 444 844 q 269 801 310 844 q 229 686 229 757 l 229 283 q 269 170 229 214 q 376 126 310 126 z "},"Ö":{"ha":756,"x_min":68,"x_max":688,"o":"m 376 -12 q 215 25 285 -12 q 106 131 144 63 q 68 290 68 200 l 68 682 q 106 840 68 771 q 215 946 144 908 q 376 983 285 983 q 540 946 469 983 q 649 840 610 908 q 688 682 688 771 l 688 290 q 649 131 688 200 q 540 25 610 63 q 376 -12 469 -12 m 376 126 q 485 170 444 126 q 526 283 526 214 l 526 686 q 485 801 526 757 q 376 844 444 844 q 269 801 310 844 q 229 686 229 757 l 229 283 q 269 170 229 214 q 376 126 310 126 z "},"Ọ":{"ha":756,"x_min":68,"x_max":688,"o":"m 376 -12 q 215 25 285 -12 q 106 131 144 63 q 68 290 68 200 l 68 682 q 106 840 68 771 q 215 946 144 908 q 376 983 285 983 q 540 946 469 983 q 649 840 610 908 q 688 682 688 771 l 688 290 q 649 131 688 200 q 540 25 610 63 q 376 -12 469 -12 m 376 126 q 485 170 444 126 q 526 283 526 214 l 526 686 q 485 801 526 757 q 376 844 444 844 q 269 801 310 844 q 229 686 229 757 l 229 283 q 269 170 229 214 q 376 126 310 126 m 379 -297 q 311 -270 338 -297 q 285 -203 285 -243 q 311 -136 285 -162 q 379 -110 338 -110 q 446 -136 419 -110 q 472 -203 472 -162 q 446 -270 472 -243 q 379 -297 419 -297 z "},"Ò":{"ha":756,"x_min":68,"x_max":688,"o":"m 376 -12 q 215 25 285 -12 q 106 131 144 63 q 68 290 68 200 l 68 682 q 106 840 68 771 q 215 946 144 908 q 376 983 285 983 q 540 946 469 983 q 649 840 610 908 q 688 682 688 771 l 688 290 q 649 131 688 200 q 540 25 610 63 q 376 -12 469 -12 m 376 126 q 485 170 444 126 q 526 283 526 214 l 526 686 q 485 801 526 757 q 376 844 444 844 q 269 801 310 844 q 229 686 229 757 l 229 283 q 269 170 229 214 q 376 126 310 126 m 431 1079 q 433 1071 433 1074 q 419 1060 433 1060 l 333 1060 q 314 1071 321 1060 l 214 1213 q 211 1222 211 1217 q 225 1233 211 1233 l 331 1233 q 351 1222 344 1233 l 431 1079 z "},"Ỏ":{"ha":756,"x_min":68,"x_max":688,"o":"m 376 -12 q 215 25 285 -12 q 106 131 144 63 q 68 290 68 200 l 68 682 q 106 840 68 771 q 215 946 144 908 q 376 983 285 983 q 540 946 469 983 q 649 840 610 908 q 688 682 688 771 l 688 290 q 649 131 688 200 q 540 25 610 63 q 376 -12 469 -12 m 376 126 q 485 170 444 126 q 526 283 526 214 l 526 686 q 485 801 526 757 q 376 844 444 844 q 269 801 310 844 q 229 686 229 757 l 229 283 q 269 170 229 214 q 376 126 310 126 m 363 1033 q 351 1054 343 1038 q 397 1122 367 1092 q 419 1149 413 1138 q 426 1181 426 1161 q 413 1208 426 1196 q 381 1219 399 1219 q 346 1210 360 1219 q 313 1176 332 1201 q 300 1168 308 1168 q 289 1172 293 1168 l 253 1199 q 246 1211 246 1203 q 249 1222 246 1218 q 308 1282 278 1264 q 385 1300 338 1300 q 478 1267 443 1300 q 514 1181 514 1235 q 501 1128 514 1149 q 461 1081 488 1107 q 425 1036 436 1056 q 404 1025 418 1024 l 363 1033 z "},"Ơ":{"ha":756,"x_min":68,"x_max":713,"o":"m 604 910 q 600 906 600 908 q 603 901 600 904 q 665 805 643 861 q 688 682 688 749 l 688 290 q 649 131 688 200 q 540 25 610 63 q 376 -12 469 -12 q 215 25 285 -12 q 106 131 144 63 q 68 290 68 200 l 68 682 q 106 840 68 771 q 215 946 144 908 q 376 983 285 983 q 511 958 451 983 q 519 963 517 957 q 533 974 522 971 q 590 1001 565 978 q 618 1072 614 1025 q 635 1089 618 1089 l 696 1089 q 708 1083 703 1089 q 711 1065 713 1076 q 677 968 706 1007 q 604 910 649 929 m 526 686 q 485 801 526 757 q 376 844 444 844 q 269 801 310 844 q 229 686 229 757 l 229 283 q 269 170 229 214 q 376 126 310 126 q 485 170 444 126 q 526 283 526 214 l 526 686 z "},"Ớ":{"ha":756,"x_min":68,"x_max":713,"o":"m 604 910 q 600 906 600 908 q 603 901 600 904 q 665 805 643 861 q 688 682 688 749 l 688 290 q 649 131 688 200 q 540 25 610 63 q 376 -12 469 -12 q 215 25 285 -12 q 106 131 144 63 q 68 290 68 200 l 68 682 q 106 840 68 771 q 215 946 144 908 q 376 983 285 983 q 511 958 451 983 q 519 963 517 957 q 533 974 522 971 q 590 1001 565 978 q 618 1072 614 1025 q 635 1089 618 1089 l 696 1089 q 708 1083 703 1089 q 711 1065 713 1076 q 677 968 706 1007 q 604 910 649 929 m 526 686 q 485 801 526 757 q 376 844 444 844 q 269 801 310 844 q 229 686 229 757 l 229 283 q 269 170 229 214 q 376 126 310 126 q 485 170 444 126 q 526 283 526 214 l 526 686 m 311 1060 q 299 1065 301 1060 q 300 1079 296 1071 l 379 1222 q 400 1233 386 1233 l 504 1233 q 517 1227 514 1233 q 515 1213 521 1221 l 417 1071 q 397 1060 410 1060 l 311 1060 z "},"Ợ":{"ha":756,"x_min":68,"x_max":713,"o":"m 604 910 q 600 906 600 908 q 603 901 600 904 q 665 805 643 861 q 688 682 688 749 l 688 290 q 649 131 688 200 q 540 25 610 63 q 376 -12 469 -12 q 215 25 285 -12 q 106 131 144 63 q 68 290 68 200 l 68 682 q 106 840 68 771 q 215 946 144 908 q 376 983 285 983 q 511 958 451 983 q 519 963 517 957 q 533 974 522 971 q 590 1001 565 978 q 618 1072 614 1025 q 635 1089 618 1089 l 696 1089 q 708 1083 703 1089 q 711 1065 713 1076 q 677 968 706 1007 q 604 910 649 929 m 526 686 q 485 801 526 757 q 376 844 444 844 q 269 801 310 844 q 229 686 229 757 l 229 283 q 269 170 229 214 q 376 126 310 126 q 485 170 444 126 q 526 283 526 214 l 526 686 m 379 -297 q 311 -270 338 -297 q 285 -203 285 -243 q 311 -136 285 -162 q 379 -110 338 -110 q 446 -136 419 -110 q 472 -203 472 -162 q 446 -270 472 -243 q 379 -297 419 -297 z "},"Ờ":{"ha":756,"x_min":68,"x_max":713,"o":"m 604 910 q 600 906 600 908 q 603 901 600 904 q 665 805 643 861 q 688 682 688 749 l 688 290 q 649 131 688 200 q 540 25 610 63 q 376 -12 469 -12 q 215 25 285 -12 q 106 131 144 63 q 68 290 68 200 l 68 682 q 106 840 68 771 q 215 946 144 908 q 376 983 285 983 q 511 958 451 983 q 519 963 517 957 q 533 974 522 971 q 590 1001 565 978 q 618 1072 614 1025 q 635 1089 618 1089 l 696 1089 q 708 1083 703 1089 q 711 1065 713 1076 q 677 968 706 1007 q 604 910 649 929 m 526 686 q 485 801 526 757 q 376 844 444 844 q 269 801 310 844 q 229 686 229 757 l 229 283 q 269 170 229 214 q 376 126 310 126 q 485 170 444 126 q 526 283 526 214 l 526 686 m 431 1079 q 433 1071 433 1074 q 419 1060 433 1060 l 333 1060 q 314 1071 321 1060 l 214 1213 q 211 1222 211 1217 q 225 1233 211 1233 l 331 1233 q 351 1222 344 1233 l 431 1079 z "},"Ở":{"ha":756,"x_min":68,"x_max":713,"o":"m 604 910 q 600 906 600 908 q 603 901 600 904 q 665 805 643 861 q 688 682 688 749 l 688 290 q 649 131 688 200 q 540 25 610 63 q 376 -12 469 -12 q 215 25 285 -12 q 106 131 144 63 q 68 290 68 200 l 68 682 q 106 840 68 771 q 215 946 144 908 q 376 983 285 983 q 511 958 451 983 q 519 963 517 957 q 533 974 522 971 q 590 1001 565 978 q 618 1072 614 1025 q 635 1089 618 1089 l 696 1089 q 708 1083 703 1089 q 711 1065 713 1076 q 677 968 706 1007 q 604 910 649 929 m 526 686 q 485 801 526 757 q 376 844 444 844 q 269 801 310 844 q 229 686 229 757 l 229 283 q 269 170 229 214 q 376 126 310 126 q 485 170 444 126 q 526 283 526 214 l 526 686 m 363 1033 q 351 1054 343 1038 q 397 1122 367 1092 q 419 1149 413 1138 q 426 1181 426 1161 q 413 1208 426 1196 q 381 1219 399 1219 q 346 1210 360 1219 q 313 1176 332 1201 q 300 1168 308 1168 q 289 1172 293 1168 l 253 1199 q 246 1211 246 1203 q 249 1222 246 1218 q 308 1282 278 1264 q 385 1300 338 1300 q 478 1267 443 1300 q 514 1181 514 1235 q 501 1128 514 1149 q 461 1081 488 1107 q 425 1036 436 1056 q 404 1025 418 1024 l 363 1033 z "},"Ỡ":{"ha":756,"x_min":68,"x_max":713,"o":"m 604 910 q 600 906 600 908 q 603 901 600 904 q 665 805 643 861 q 688 682 688 749 l 688 290 q 649 131 688 200 q 540 25 610 63 q 376 -12 469 -12 q 215 25 285 -12 q 106 131 144 63 q 68 290 68 200 l 68 682 q 106 840 68 771 q 215 946 144 908 q 376 983 285 983 q 511 958 451 983 q 519 963 517 957 q 533 974 522 971 q 590 1001 565 978 q 618 1072 614 1025 q 635 1089 618 1089 l 696 1089 q 708 1083 703 1089 q 711 1065 713 1076 q 677 968 706 1007 q 604 910 649 929 m 526 686 q 485 801 526 757 q 376 844 444 844 q 269 801 310 844 q 229 686 229 757 l 229 283 q 269 170 229 214 q 376 126 310 126 q 485 170 444 126 q 526 283 526 214 l 526 686 m 458 1089 q 417 1096 435 1089 q 375 1117 399 1103 q 353 1128 367 1121 q 329 1138 339 1135 q 308 1140 319 1140 q 243 1110 269 1140 q 221 1107 232 1096 l 175 1149 q 171 1172 164 1160 q 225 1232 192 1211 q 299 1253 258 1253 q 344 1245 325 1253 q 393 1221 364 1238 q 412 1210 399 1218 q 436 1199 425 1203 q 458 1196 447 1196 q 519 1228 496 1196 q 533 1238 526 1238 q 543 1232 538 1238 l 586 1190 q 592 1178 592 1185 q 589 1167 592 1171 q 535 1109 569 1129 q 458 1089 500 1089 z "},"Ő":{"ha":756,"x_min":68,"x_max":688,"o":"m 376 -12 q 215 25 285 -12 q 106 131 144 63 q 68 290 68 200 l 68 682 q 106 840 68 771 q 215 946 144 908 q 376 983 285 983 q 540 946 469 983 q 649 840 610 908 q 688 682 688 771 l 688 290 q 649 131 688 200 q 540 25 610 63 q 376 -12 469 -12 m 376 126 q 485 170 444 126 q 526 283 526 214 l 526 686 q 485 801 526 757 q 376 844 444 844 q 269 801 310 844 q 229 686 229 757 l 229 283 q 269 170 229 214 q 376 126 310 126 m 222 1060 q 209 1065 213 1060 q 210 1079 206 1069 l 279 1221 q 299 1233 285 1233 l 406 1233 q 418 1228 415 1233 q 417 1214 421 1222 l 342 1072 q 321 1060 335 1060 l 222 1060 m 443 1060 q 431 1065 433 1060 q 432 1079 428 1071 l 507 1221 q 528 1233 513 1233 l 628 1233 q 640 1228 638 1233 q 639 1214 643 1222 l 564 1072 q 543 1060 557 1060 l 443 1060 z "},"Ō":{"ha":756,"x_min":68,"x_max":688,"o":"m 376 -12 q 215 25 285 -12 q 106 131 144 63 q 68 290 68 200 l 68 682 q 106 840 68 771 q 215 946 144 908 q 376 983 285 983 q 540 946 469 983 q 649 840 610 908 q 688 682 688 771 l 688 290 q 649 131 688 200 q 540 25 610 63 q 376 -12 469 -12 m 376 126 q 485 170 444 126 q 526 283 526 214 l 526 686 q 485 801 526 757 q 376 844 444 844 q 269 801 310 844 q 229 686 229 757 l 229 283 q 269 170 229 214 q 376 126 310 126 m 219 1074 q 208 1078 213 1074 q 203 1090 203 1083 l 203 1168 q 208 1180 203 1175 q 219 1185 213 1185 l 532 1185 q 544 1180 539 1185 q 549 1168 549 1175 l 549 1090 q 544 1078 549 1083 q 532 1074 539 1074 l 219 1074 z "},"Ø":{"ha":846,"x_min":36,"x_max":713,"o":"m 706 968 q 713 956 713 963 q 710 944 713 953 l 654 843 q 654 835 653 839 q 690 682 690 767 l 690 290 q 651 131 690 200 q 542 25 613 63 q 379 -12 471 -12 q 208 29 285 -12 q 204 31 207 31 q 200 28 201 31 l 158 -46 q 136 -53 149 -61 l 50 -4 q 44 18 36 6 l 104 128 q 104 136 106 133 q 69 290 69 206 l 69 682 q 108 840 69 771 q 217 946 147 908 q 379 983 288 983 q 551 940 476 983 q 560 943 558 938 l 601 1018 q 624 1024 610 1033 l 706 968 m 231 369 q 233 364 231 364 q 239 368 236 364 l 481 800 q 479 810 483 807 q 379 844 438 844 q 272 801 313 844 q 231 686 231 757 l 231 369 m 529 603 q 526 608 529 608 q 521 604 524 608 l 279 171 q 281 161 278 165 q 379 126 319 126 q 488 170 447 126 q 529 283 529 214 l 529 603 z "},"Õ":{"ha":756,"x_min":68,"x_max":688,"o":"m 376 -12 q 215 25 285 -12 q 106 131 144 63 q 68 290 68 200 l 68 682 q 106 840 68 771 q 215 946 144 908 q 376 983 285 983 q 540 946 469 983 q 649 840 610 908 q 688 682 688 771 l 688 290 q 649 131 688 200 q 540 25 610 63 q 376 -12 469 -12 m 376 126 q 485 170 444 126 q 526 283 526 214 l 526 686 q 485 801 526 757 q 376 844 444 844 q 269 801 310 844 q 229 686 229 757 l 229 283 q 269 170 229 214 q 376 126 310 126 m 471 1076 q 429 1083 447 1076 q 388 1104 411 1090 q 365 1115 379 1108 q 342 1125 351 1122 q 321 1128 332 1128 q 256 1097 282 1128 q 233 1094 244 1083 l 188 1136 q 183 1160 176 1147 q 238 1219 204 1199 q 311 1240 271 1240 q 357 1233 338 1240 q 406 1208 376 1225 q 424 1198 411 1206 q 449 1187 438 1190 q 471 1183 460 1183 q 532 1215 508 1183 q 546 1225 539 1225 q 556 1219 550 1225 l 599 1178 q 604 1165 604 1172 q 601 1154 604 1158 q 547 1097 582 1117 q 471 1076 513 1076 z "},"Œ":{"ha":1122,"x_min":68,"x_max":1069,"o":"m 1069 850 q 1065 838 1069 843 q 1053 833 1060 833 l 683 833 q 676 826 676 833 l 676 565 q 683 558 676 558 l 914 558 q 926 553 921 558 q 931 542 931 549 l 931 436 q 926 424 931 429 q 914 419 921 419 l 683 419 q 676 413 676 419 l 676 146 q 683 139 676 139 l 1053 139 q 1065 134 1060 139 q 1069 122 1069 129 l 1069 17 q 1065 5 1069 10 q 1053 0 1060 0 l 532 0 q 520 5 525 0 q 515 17 515 10 l 515 46 q 513 51 515 50 q 507 50 510 53 q 332 -12 436 -12 q 199 25 260 -12 q 103 131 139 63 q 68 285 68 199 l 68 688 q 103 841 68 774 q 199 946 139 908 q 332 983 260 983 q 507 921 436 983 q 513 919 510 918 q 515 925 515 921 l 515 956 q 520 967 515 963 q 532 972 525 972 l 1053 972 q 1065 967 1060 972 q 1069 956 1069 963 l 1069 850 m 371 126 q 475 169 435 126 q 515 278 515 211 l 515 692 q 475 801 515 758 q 371 844 435 844 q 269 801 308 844 q 229 692 229 758 l 229 278 q 268 169 229 211 q 371 126 307 126 z "},"P":{"ha":731,"x_min":83,"x_max":693,"o":"m 421 974 q 563 938 501 974 q 659 835 625 901 q 693 685 693 769 q 659 538 693 601 q 563 438 625 474 q 422 403 501 403 l 251 403 q 244 396 244 403 l 244 17 q 240 5 244 10 q 228 0 235 0 l 100 0 q 88 5 93 0 q 83 17 83 10 l 83 957 q 88 969 83 964 q 100 974 93 974 l 421 974 m 397 532 q 495 573 458 532 q 532 682 532 614 q 495 793 532 751 q 397 835 458 835 l 251 835 q 244 828 244 835 l 244 539 q 251 532 244 532 l 397 532 z "},"Þ":{"ha":717,"x_min":83,"x_max":679,"o":"m 408 771 q 550 735 489 771 q 645 633 611 699 q 679 483 679 568 q 644 336 679 400 q 548 238 610 272 q 408 203 486 203 l 251 203 q 244 196 244 203 l 244 17 q 240 5 244 10 q 228 0 235 0 l 100 0 q 88 5 93 0 q 83 17 83 10 l 83 956 q 88 967 83 963 q 100 972 93 972 l 228 972 q 240 967 235 972 q 244 956 244 963 l 244 778 q 251 771 244 771 l 408 771 m 383 333 q 481 372 444 333 q 518 481 518 411 q 481 590 518 550 q 383 631 444 631 l 251 631 q 244 624 244 631 l 244 340 q 251 333 244 333 l 383 333 z "},"Q":{"ha":724,"x_min":63,"x_max":661,"o":"m 361 983 q 518 945 450 983 q 624 838 586 907 q 661 679 661 769 l 661 288 q 604 101 661 178 q 449 -1 547 24 q 443 -8 443 -3 l 443 -128 q 438 -140 443 -135 q 426 -144 433 -144 l 297 -144 q 285 -140 290 -144 q 281 -128 281 -135 l 281 -8 q 275 -1 281 -3 q 119 99 176 22 q 63 288 63 176 l 63 679 q 100 838 63 769 q 205 945 138 907 q 361 983 272 983 m 500 692 q 462 802 500 760 q 361 844 424 844 q 262 802 300 844 q 224 692 224 760 l 224 281 q 262 170 224 213 q 361 128 300 128 q 462 170 424 128 q 500 281 500 213 l 500 692 z "},"R":{"ha":746,"x_min":89,"x_max":700,"o":"m 553 0 q 533 14 538 0 l 383 413 q 376 418 381 418 l 257 418 q 250 411 250 418 l 250 17 q 245 5 250 10 q 233 0 240 0 l 106 0 q 94 5 99 0 q 89 17 89 10 l 89 956 q 94 967 89 963 q 106 972 99 972 l 426 972 q 567 937 506 972 q 661 837 628 901 q 694 689 694 772 q 653 532 694 599 q 539 438 611 465 q 535 428 532 435 l 699 19 q 700 11 700 17 q 686 0 700 0 l 553 0 m 257 833 q 250 826 250 833 l 250 550 q 257 543 250 543 l 403 543 q 497 583 461 543 q 533 688 533 622 q 497 794 533 754 q 403 833 461 833 l 257 833 z "},"Ŕ":{"ha":746,"x_min":89,"x_max":700,"o":"m 553 0 q 533 14 538 0 l 383 413 q 376 418 381 418 l 257 418 q 250 411 250 418 l 250 17 q 245 5 250 10 q 233 0 240 0 l 106 0 q 94 5 99 0 q 89 17 89 10 l 89 956 q 94 967 89 963 q 106 972 99 972 l 426 972 q 567 937 506 972 q 661 837 628 901 q 694 689 694 772 q 653 532 694 599 q 539 438 611 465 q 535 428 532 435 l 699 19 q 700 11 700 17 q 686 0 700 0 l 553 0 m 257 833 q 250 826 250 833 l 250 550 q 257 543 250 543 l 403 543 q 497 583 461 543 q 533 688 533 622 q 497 794 533 754 q 403 833 461 833 l 257 833 m 293 1061 q 281 1067 283 1061 q 282 1081 278 1072 l 361 1224 q 382 1235 368 1235 l 486 1235 q 499 1228 496 1235 q 497 1214 503 1222 l 399 1072 q 379 1061 392 1061 l 293 1061 z "},"Ř":{"ha":746,"x_min":89,"x_max":700,"o":"m 553 0 q 533 14 538 0 l 383 413 q 376 418 381 418 l 257 418 q 250 411 250 418 l 250 17 q 245 5 250 10 q 233 0 240 0 l 106 0 q 94 5 99 0 q 89 17 89 10 l 89 956 q 94 967 89 963 q 106 972 99 972 l 426 972 q 567 937 506 972 q 661 837 628 901 q 694 689 694 772 q 653 532 694 599 q 539 438 611 465 q 535 428 532 435 l 699 19 q 700 11 700 17 q 686 0 700 0 l 553 0 m 257 833 q 250 826 250 833 l 250 550 q 257 543 250 543 l 403 543 q 497 583 461 543 q 533 688 533 622 q 497 794 533 754 q 403 833 461 833 l 257 833 m 176 1214 q 174 1224 174 1218 q 186 1235 174 1235 l 285 1235 q 304 1224 299 1235 l 360 1133 q 365 1129 363 1129 q 369 1133 368 1129 l 425 1224 q 444 1235 431 1235 l 543 1235 q 556 1228 553 1235 q 554 1214 560 1222 l 456 1071 q 436 1060 449 1060 l 290 1060 q 271 1071 278 1060 l 176 1214 z "},"S":{"ha":713,"x_min":53,"x_max":661,"o":"m 360 -11 q 199 22 268 -11 q 91 115 129 54 q 53 254 53 175 l 53 290 q 58 302 53 297 q 69 307 63 307 l 194 307 q 206 302 201 307 q 211 290 211 297 l 211 263 q 253 165 211 203 q 365 128 294 128 q 465 161 431 128 q 500 249 500 194 q 481 313 500 286 q 426 363 461 340 q 317 425 390 386 q 181 504 232 469 q 94 593 129 539 q 58 725 58 647 q 138 914 58 844 q 349 983 218 983 q 508 949 439 983 q 615 853 578 915 q 653 710 653 790 l 653 681 q 648 669 653 674 q 636 664 643 664 l 511 664 q 499 669 504 664 q 494 681 494 674 l 494 707 q 454 806 494 767 q 346 844 414 844 q 251 813 286 844 q 217 726 217 782 q 235 663 217 689 q 290 613 253 636 q 401 551 326 589 q 549 463 501 494 q 628 380 596 431 q 661 256 661 329 q 579 61 661 133 q 360 -11 497 -11 z "},"Ś":{"ha":713,"x_min":53,"x_max":661,"o":"m 360 -11 q 199 22 268 -11 q 91 115 129 54 q 53 254 53 175 l 53 290 q 58 302 53 297 q 69 307 63 307 l 194 307 q 206 302 201 307 q 211 290 211 297 l 211 263 q 253 165 211 203 q 365 128 294 128 q 465 161 431 128 q 500 249 500 194 q 481 313 500 286 q 426 363 461 340 q 317 425 390 386 q 181 504 232 469 q 94 593 129 539 q 58 725 58 647 q 138 914 58 844 q 349 983 218 983 q 508 949 439 983 q 615 853 578 915 q 653 710 653 790 l 653 681 q 648 669 653 674 q 636 664 643 664 l 511 664 q 499 669 504 664 q 494 681 494 674 l 494 707 q 454 806 494 767 q 346 844 414 844 q 251 813 286 844 q 217 726 217 782 q 235 663 217 689 q 290 613 253 636 q 401 551 326 589 q 549 463 501 494 q 628 380 596 431 q 661 256 661 329 q 579 61 661 133 q 360 -11 497 -11 m 285 1061 q 272 1067 275 1061 q 274 1081 269 1072 l 353 1224 q 374 1235 360 1235 l 478 1235 q 491 1228 488 1235 q 489 1214 494 1222 l 390 1072 q 371 1061 383 1061 l 285 1061 z "},"Š":{"ha":713,"x_min":53,"x_max":661,"o":"m 360 -11 q 199 22 268 -11 q 91 115 129 54 q 53 254 53 175 l 53 290 q 58 302 53 297 q 69 307 63 307 l 194 307 q 206 302 201 307 q 211 290 211 297 l 211 263 q 253 165 211 203 q 365 128 294 128 q 465 161 431 128 q 500 249 500 194 q 481 313 500 286 q 426 363 461 340 q 317 425 390 386 q 181 504 232 469 q 94 593 129 539 q 58 725 58 647 q 138 914 58 844 q 349 983 218 983 q 508 949 439 983 q 615 853 578 915 q 653 710 653 790 l 653 681 q 648 669 653 674 q 636 664 643 664 l 511 664 q 499 669 504 664 q 494 681 494 674 l 494 707 q 454 806 494 767 q 346 844 414 844 q 251 813 286 844 q 217 726 217 782 q 235 663 217 689 q 290 613 253 636 q 401 551 326 589 q 549 463 501 494 q 628 380 596 431 q 661 256 661 329 q 579 61 661 133 q 360 -11 497 -11 m 168 1214 q 165 1224 165 1218 q 178 1235 165 1235 l 276 1235 q 296 1224 290 1235 l 351 1133 q 357 1129 354 1129 q 361 1133 360 1129 l 417 1224 q 436 1235 422 1235 l 535 1235 q 548 1228 544 1235 q 546 1214 551 1222 l 447 1071 q 428 1060 440 1060 l 282 1060 q 263 1071 269 1060 l 168 1214 z "},"Ş":{"ha":713,"x_min":53,"x_max":661,"o":"m 661 256 q 597 78 661 149 q 424 -7 533 8 q 421 -15 414 -8 q 478 -137 478 -74 q 474 -172 478 -156 q 429 -237 463 -218 q 351 -257 396 -257 q 286 -247 318 -257 q 275 -228 274 -243 l 282 -176 q 301 -164 283 -160 q 319 -167 315 -167 q 357 -153 343 -167 q 371 -115 371 -140 q 307 -11 371 -65 q 299 -8 301 -8 q 119 78 186 7 q 53 254 53 149 l 53 290 q 58 302 53 297 q 69 307 63 307 l 194 307 q 206 302 201 307 q 211 290 211 297 l 211 263 q 253 165 211 203 q 365 128 294 128 q 465 161 431 128 q 500 249 500 194 q 481 313 500 286 q 426 363 461 340 q 317 425 390 386 q 181 504 232 469 q 94 593 129 539 q 58 725 58 647 q 138 914 58 844 q 349 983 218 983 q 508 949 439 983 q 615 853 578 915 q 653 710 653 790 l 653 681 q 648 669 653 674 q 636 664 643 664 l 511 664 q 499 669 504 664 q 494 681 494 674 l 494 707 q 454 806 494 767 q 346 844 414 844 q 251 813 286 844 q 217 726 217 782 q 235 663 217 689 q 290 613 253 636 q 401 551 326 589 q 549 463 501 494 q 628 380 596 431 q 661 256 661 329 z "},"Ŝ":{"ha":713,"x_min":53,"x_max":661,"o":"m 360 -11 q 199 22 268 -11 q 91 115 129 54 q 53 254 53 175 l 53 290 q 58 302 53 297 q 69 307 63 307 l 194 307 q 206 302 201 307 q 211 290 211 297 l 211 263 q 253 165 211 203 q 365 128 294 128 q 465 161 431 128 q 500 249 500 194 q 481 313 500 286 q 426 363 461 340 q 317 425 390 386 q 181 504 232 469 q 94 593 129 539 q 58 725 58 647 q 138 914 58 844 q 349 983 218 983 q 508 949 439 983 q 615 853 578 915 q 653 710 653 790 l 653 681 q 648 669 653 674 q 636 664 643 664 l 511 664 q 499 669 504 664 q 494 681 494 674 l 494 707 q 454 806 494 767 q 346 844 414 844 q 251 813 286 844 q 217 726 217 782 q 235 663 217 689 q 290 613 253 636 q 401 551 326 589 q 549 463 501 494 q 628 380 596 431 q 661 256 661 329 q 579 61 661 133 q 360 -11 497 -11 m 172 1060 q 160 1066 163 1060 q 163 1081 157 1072 l 257 1224 q 276 1235 264 1235 l 422 1235 q 442 1224 435 1235 l 540 1081 q 543 1071 543 1076 q 529 1060 543 1060 l 431 1060 q 411 1071 417 1060 l 356 1161 q 350 1165 353 1165 q 346 1161 347 1165 l 290 1071 q 271 1060 285 1060 l 172 1060 z "},"Ə":{"ha":810,"x_min":60,"x_max":742,"o":"m 728 661 q 742 460 742 579 q 732 261 742 343 q 627 60 715 136 q 403 -15 539 -15 q 165 69 254 -15 q 64 292 75 153 q 60 418 60 354 l 61 499 q 78 515 61 515 l 575 515 q 582 522 582 515 q 572 635 581 585 q 513 749 561 706 q 389 792 464 792 q 284 757 328 790 q 218 668 240 724 q 197 658 211 653 l 86 696 q 75 717 71 701 q 190 874 107 818 q 397 931 274 931 q 621 858 533 931 q 728 661 708 786 m 403 125 q 519 168 474 125 q 575 283 565 211 q 581 371 578 304 q 574 378 581 378 l 231 378 q 224 371 224 378 q 228 286 224 324 q 283 169 235 214 q 403 125 331 125 z "},"T":{"ha":717,"x_min":43,"x_max":674,"o":"m 657 972 q 669 967 664 972 q 674 956 674 963 l 674 849 q 669 837 674 842 q 657 832 664 832 l 442 832 q 435 825 435 832 l 435 17 q 430 5 435 10 q 418 0 425 0 l 290 0 q 278 5 283 0 q 274 17 274 10 l 274 825 q 267 832 274 832 l 60 832 q 48 837 53 832 q 43 849 43 842 l 43 956 q 48 967 43 963 q 60 972 53 972 l 657 972 z "},"Ŧ":{"ha":717,"x_min":43,"x_max":674,"o":"m 674 849 q 669 837 674 842 q 657 832 664 832 l 442 832 q 435 825 435 832 l 435 579 q 442 572 435 572 l 550 572 q 562 567 557 572 q 567 556 567 563 l 567 490 q 562 478 567 483 q 550 474 557 474 l 442 474 q 435 467 435 474 l 435 17 q 430 5 435 10 q 418 0 425 0 l 290 0 q 278 5 283 0 q 274 17 274 10 l 274 467 q 267 474 274 474 l 154 474 q 142 478 147 474 q 138 490 138 483 l 138 556 q 142 567 138 563 q 154 572 147 572 l 267 572 q 274 579 274 572 l 274 825 q 267 832 274 832 l 60 832 q 48 837 53 832 q 43 849 43 842 l 43 956 q 48 967 43 963 q 60 972 53 972 l 657 972 q 669 967 664 972 q 674 956 674 963 l 674 849 z "},"Ť":{"ha":717,"x_min":43,"x_max":674,"o":"m 657 972 q 669 967 664 972 q 674 956 674 963 l 674 849 q 669 837 674 842 q 657 832 664 832 l 442 832 q 435 825 435 832 l 435 17 q 430 5 435 10 q 418 0 425 0 l 290 0 q 278 5 283 0 q 274 17 274 10 l 274 825 q 267 832 274 832 l 60 832 q 48 837 53 832 q 43 849 43 842 l 43 956 q 48 967 43 963 q 60 972 53 972 l 657 972 z "},"U":{"ha":774,"x_min":81,"x_max":693,"o":"m 386 -11 q 226 26 296 -11 q 119 133 157 64 q 81 292 81 201 l 81 956 q 85 967 81 963 q 97 972 90 972 l 225 972 q 237 967 232 972 q 242 956 242 963 l 242 283 q 281 171 242 214 q 386 128 321 128 q 492 171 451 128 q 532 283 532 214 l 532 956 q 537 967 532 963 q 549 972 542 972 l 676 972 q 688 967 683 972 q 693 956 693 963 l 693 292 q 655 133 693 201 q 547 26 617 64 q 386 -11 478 -11 z "},"Ú":{"ha":774,"x_min":81,"x_max":693,"o":"m 386 -11 q 226 26 296 -11 q 119 133 157 64 q 81 292 81 201 l 81 956 q 85 967 81 963 q 97 972 90 972 l 225 972 q 237 967 232 972 q 242 956 242 963 l 242 283 q 281 171 242 214 q 386 128 321 128 q 492 171 451 128 q 532 283 532 214 l 532 956 q 537 967 532 963 q 549 972 542 972 l 676 972 q 688 967 683 972 q 693 956 693 963 l 693 292 q 655 133 693 201 q 547 26 617 64 q 386 -11 478 -11 m 321 1061 q 308 1067 311 1061 q 310 1081 306 1072 l 389 1224 q 410 1235 396 1235 l 514 1235 q 527 1228 524 1235 q 525 1214 531 1222 l 426 1072 q 407 1061 419 1061 l 321 1061 z "},"Ŭ":{"ha":774,"x_min":81,"x_max":693,"o":"m 386 -11 q 226 26 296 -11 q 119 133 157 64 q 81 292 81 201 l 81 956 q 85 967 81 963 q 97 972 90 972 l 225 972 q 237 967 232 972 q 242 956 242 963 l 242 283 q 281 171 242 214 q 386 128 321 128 q 492 171 451 128 q 532 283 532 214 l 532 956 q 537 967 532 963 q 549 972 542 972 l 676 972 q 688 967 683 972 q 693 956 693 963 l 693 292 q 655 133 693 201 q 547 26 617 64 q 386 -11 478 -11 m 386 1054 q 263 1095 313 1054 q 207 1200 214 1136 l 207 1203 q 222 1217 207 1217 l 282 1217 q 299 1201 296 1217 q 329 1151 306 1169 q 386 1132 353 1132 q 444 1151 419 1132 q 474 1201 468 1171 q 490 1217 476 1217 l 550 1217 q 567 1201 567 1217 q 510 1096 560 1138 q 386 1054 460 1054 z "},"Û":{"ha":774,"x_min":81,"x_max":693,"o":"m 386 -11 q 226 26 296 -11 q 119 133 157 64 q 81 292 81 201 l 81 956 q 85 967 81 963 q 97 972 90 972 l 225 972 q 237 967 232 972 q 242 956 242 963 l 242 283 q 281 171 242 214 q 386 128 321 128 q 492 171 451 128 q 532 283 532 214 l 532 956 q 537 967 532 963 q 549 972 542 972 l 676 972 q 688 967 683 972 q 693 956 693 963 l 693 292 q 655 133 693 201 q 547 26 617 64 q 386 -11 478 -11 m 207 1060 q 194 1066 197 1060 q 197 1081 192 1072 l 292 1224 q 311 1235 299 1235 l 457 1235 q 476 1224 469 1235 l 575 1081 q 578 1071 578 1076 q 564 1060 578 1060 l 465 1060 q 446 1071 451 1060 l 390 1161 q 385 1165 388 1165 q 381 1161 382 1165 l 325 1071 q 306 1060 319 1060 l 207 1060 z "},"Ü":{"ha":774,"x_min":81,"x_max":693,"o":"m 386 -11 q 226 26 296 -11 q 119 133 157 64 q 81 292 81 201 l 81 956 q 85 967 81 963 q 97 972 90 972 l 225 972 q 237 967 232 972 q 242 956 242 963 l 242 283 q 281 171 242 214 q 386 128 321 128 q 492 171 451 128 q 532 283 532 214 l 532 956 q 537 967 532 963 q 549 972 542 972 l 676 972 q 688 967 683 972 q 693 956 693 963 l 693 292 q 655 133 693 201 q 547 26 617 64 q 386 -11 478 -11 z "},"Ụ":{"ha":774,"x_min":81,"x_max":693,"o":"m 386 -11 q 226 26 296 -11 q 119 133 157 64 q 81 292 81 201 l 81 956 q 85 967 81 963 q 97 972 90 972 l 225 972 q 237 967 232 972 q 242 956 242 963 l 242 283 q 281 171 242 214 q 386 128 321 128 q 492 171 451 128 q 532 283 532 214 l 532 956 q 537 967 532 963 q 549 972 542 972 l 676 972 q 688 967 683 972 q 693 956 693 963 l 693 292 q 655 133 693 201 q 547 26 617 64 q 386 -11 478 -11 m 389 -297 q 321 -270 347 -297 q 294 -203 294 -243 q 321 -136 294 -162 q 389 -110 347 -110 q 456 -136 429 -110 q 482 -203 482 -162 q 456 -270 482 -243 q 389 -297 429 -297 z "},"Ù":{"ha":774,"x_min":81,"x_max":693,"o":"m 386 -11 q 226 26 296 -11 q 119 133 157 64 q 81 292 81 201 l 81 956 q 85 967 81 963 q 97 972 90 972 l 225 972 q 237 967 232 972 q 242 956 242 963 l 242 283 q 281 171 242 214 q 386 128 321 128 q 492 171 451 128 q 532 283 532 214 l 532 956 q 537 967 532 963 q 549 972 542 972 l 676 972 q 688 967 683 972 q 693 956 693 963 l 693 292 q 655 133 693 201 q 547 26 617 64 q 386 -11 478 -11 m 440 1081 q 443 1072 443 1075 q 429 1061 443 1061 l 343 1061 q 324 1072 331 1061 l 224 1214 q 221 1224 221 1218 q 235 1235 221 1235 l 340 1235 q 361 1224 354 1235 l 440 1081 z "},"Ủ":{"ha":774,"x_min":81,"x_max":693,"o":"m 386 -11 q 226 26 296 -11 q 119 133 157 64 q 81 292 81 201 l 81 956 q 85 967 81 963 q 97 972 90 972 l 225 972 q 237 967 232 972 q 242 956 242 963 l 242 283 q 281 171 242 214 q 386 128 321 128 q 492 171 451 128 q 532 283 532 214 l 532 956 q 537 967 532 963 q 549 972 542 972 l 676 972 q 688 967 683 972 q 693 956 693 963 l 693 292 q 655 133 693 201 q 547 26 617 64 q 386 -11 478 -11 m 372 1035 q 361 1056 353 1039 q 407 1124 376 1093 q 429 1151 422 1139 q 436 1182 436 1163 q 422 1209 436 1197 q 390 1221 408 1221 q 356 1212 369 1221 q 322 1178 342 1203 q 310 1169 318 1169 q 299 1174 303 1169 l 263 1200 q 256 1213 256 1204 q 258 1224 256 1219 q 317 1283 288 1265 q 394 1301 347 1301 q 488 1269 453 1301 q 524 1182 524 1236 q 510 1129 524 1150 q 471 1082 497 1108 q 435 1038 446 1057 q 414 1026 428 1025 l 372 1035 z "},"Ư":{"ha":774,"x_min":81,"x_max":833,"o":"m 817 1089 q 833 1072 833 1089 q 791 959 828 1003 q 699 901 754 915 q 693 894 693 900 l 693 292 q 655 133 693 201 q 547 26 617 64 q 386 -11 478 -11 q 226 26 296 -11 q 119 133 157 64 q 81 292 81 201 l 81 956 q 85 967 81 963 q 97 972 90 972 l 225 972 q 237 967 232 972 q 242 956 242 963 l 242 283 q 281 171 242 214 q 386 128 321 128 q 492 171 451 128 q 532 283 532 214 l 532 956 q 537 967 532 963 q 549 972 542 972 l 639 972 q 705 996 675 972 q 739 1072 735 1019 q 756 1089 739 1089 l 817 1089 z "},"Ứ":{"ha":774,"x_min":81,"x_max":833,"o":"m 817 1089 q 833 1072 833 1089 q 791 959 828 1003 q 699 901 754 915 q 693 894 693 900 l 693 292 q 655 133 693 201 q 547 26 617 64 q 386 -11 478 -11 q 226 26 296 -11 q 119 133 157 64 q 81 292 81 201 l 81 956 q 85 967 81 963 q 97 972 90 972 l 225 972 q 237 967 232 972 q 242 956 242 963 l 242 283 q 281 171 242 214 q 386 128 321 128 q 492 171 451 128 q 532 283 532 214 l 532 956 q 537 967 532 963 q 549 972 542 972 l 639 972 q 705 996 675 972 q 739 1072 735 1019 q 756 1089 739 1089 l 817 1089 m 321 1061 q 308 1067 311 1061 q 310 1081 306 1072 l 389 1224 q 410 1235 396 1235 l 514 1235 q 527 1228 524 1235 q 525 1214 531 1222 l 426 1072 q 407 1061 419 1061 l 321 1061 z "},"Ự":{"ha":774,"x_min":81,"x_max":833,"o":"m 817 1089 q 833 1072 833 1089 q 791 959 828 1003 q 699 901 754 915 q 693 894 693 900 l 693 292 q 655 133 693 201 q 547 26 617 64 q 386 -11 478 -11 q 226 26 296 -11 q 119 133 157 64 q 81 292 81 201 l 81 956 q 85 967 81 963 q 97 972 90 972 l 225 972 q 237 967 232 972 q 242 956 242 963 l 242 283 q 281 171 242 214 q 386 128 321 128 q 492 171 451 128 q 532 283 532 214 l 532 956 q 537 967 532 963 q 549 972 542 972 l 639 972 q 705 996 675 972 q 739 1072 735 1019 q 756 1089 739 1089 l 817 1089 m 389 -297 q 321 -270 347 -297 q 294 -203 294 -243 q 321 -136 294 -162 q 389 -110 347 -110 q 456 -136 429 -110 q 482 -203 482 -162 q 456 -270 482 -243 q 389 -297 429 -297 z "},"Ừ":{"ha":774,"x_min":81,"x_max":833,"o":"m 817 1089 q 833 1072 833 1089 q 791 959 828 1003 q 699 901 754 915 q 693 894 693 900 l 693 292 q 655 133 693 201 q 547 26 617 64 q 386 -11 478 -11 q 226 26 296 -11 q 119 133 157 64 q 81 292 81 201 l 81 956 q 85 967 81 963 q 97 972 90 972 l 225 972 q 237 967 232 972 q 242 956 242 963 l 242 283 q 281 171 242 214 q 386 128 321 128 q 492 171 451 128 q 532 283 532 214 l 532 956 q 537 967 532 963 q 549 972 542 972 l 639 972 q 705 996 675 972 q 739 1072 735 1019 q 756 1089 739 1089 l 817 1089 m 440 1081 q 443 1072 443 1075 q 429 1061 443 1061 l 343 1061 q 324 1072 331 1061 l 224 1214 q 221 1224 221 1218 q 235 1235 221 1235 l 340 1235 q 361 1224 354 1235 l 440 1081 z "},"Ử":{"ha":774,"x_min":81,"x_max":833,"o":"m 817 1089 q 833 1072 833 1089 q 791 959 828 1003 q 699 901 754 915 q 693 894 693 900 l 693 292 q 655 133 693 201 q 547 26 617 64 q 386 -11 478 -11 q 226 26 296 -11 q 119 133 157 64 q 81 292 81 201 l 81 956 q 85 967 81 963 q 97 972 90 972 l 225 972 q 237 967 232 972 q 242 956 242 963 l 242 283 q 281 171 242 214 q 386 128 321 128 q 492 171 451 128 q 532 283 532 214 l 532 956 q 537 967 532 963 q 549 972 542 972 l 639 972 q 705 996 675 972 q 739 1072 735 1019 q 756 1089 739 1089 l 817 1089 m 372 1035 q 361 1056 353 1039 q 407 1124 376 1093 q 429 1151 422 1139 q 436 1182 436 1163 q 422 1209 436 1197 q 390 1221 408 1221 q 356 1212 369 1221 q 322 1178 342 1203 q 310 1169 318 1169 q 299 1174 303 1169 l 263 1200 q 256 1213 256 1204 q 258 1224 256 1219 q 317 1283 288 1265 q 394 1301 347 1301 q 488 1269 453 1301 q 524 1182 524 1236 q 510 1129 524 1150 q 471 1082 497 1108 q 435 1038 446 1057 q 414 1026 428 1025 l 372 1035 z "},"Ữ":{"ha":774,"x_min":81,"x_max":833,"o":"m 817 1089 q 833 1072 833 1089 q 791 959 828 1003 q 699 901 754 915 q 693 894 693 900 l 693 292 q 655 133 693 201 q 547 26 617 64 q 386 -11 478 -11 q 226 26 296 -11 q 119 133 157 64 q 81 292 81 201 l 81 956 q 85 967 81 963 q 97 972 90 972 l 225 972 q 237 967 232 972 q 242 956 242 963 l 242 283 q 281 171 242 214 q 386 128 321 128 q 492 171 451 128 q 532 283 532 214 l 532 956 q 537 967 532 963 q 549 972 542 972 l 639 972 q 705 996 675 972 q 739 1072 735 1019 q 756 1089 739 1089 l 817 1089 m 481 1078 q 439 1085 457 1078 q 397 1106 421 1092 q 375 1117 389 1110 q 351 1126 361 1124 q 331 1129 342 1129 q 265 1099 292 1129 q 243 1096 254 1085 l 197 1138 q 193 1161 186 1149 q 247 1221 214 1200 q 321 1242 281 1242 q 367 1234 347 1242 q 415 1210 386 1226 q 434 1199 421 1207 q 458 1188 447 1192 q 481 1185 469 1185 q 542 1217 518 1185 q 556 1226 549 1226 q 565 1221 560 1226 l 608 1179 q 614 1167 614 1174 q 611 1156 614 1160 q 557 1098 592 1118 q 481 1078 522 1078 z "},"Ű":{"ha":774,"x_min":81,"x_max":693,"o":"m 386 -11 q 226 26 296 -11 q 119 133 157 64 q 81 292 81 201 l 81 956 q 85 967 81 963 q 97 972 90 972 l 225 972 q 237 967 232 972 q 242 956 242 963 l 242 283 q 281 171 242 214 q 386 128 321 128 q 492 171 451 128 q 532 283 532 214 l 532 956 q 537 967 532 963 q 549 972 542 972 l 676 972 q 688 967 683 972 q 693 956 693 963 l 693 292 q 655 133 693 201 q 547 26 617 64 q 386 -11 478 -11 m 232 1061 q 219 1066 222 1061 q 219 1081 215 1071 l 289 1222 q 308 1235 294 1235 l 415 1235 q 428 1229 425 1235 q 426 1215 431 1224 l 351 1074 q 331 1061 344 1061 l 232 1061 m 453 1061 q 440 1067 443 1061 q 442 1081 438 1072 l 517 1222 q 538 1235 522 1235 l 638 1235 q 650 1229 647 1235 q 649 1215 653 1224 l 574 1074 q 553 1061 567 1061 l 453 1061 z "},"Ū":{"ha":774,"x_min":81,"x_max":693,"o":"m 386 -11 q 226 26 296 -11 q 119 133 157 64 q 81 292 81 201 l 81 956 q 85 967 81 963 q 97 972 90 972 l 225 972 q 237 967 232 972 q 242 956 242 963 l 242 283 q 281 171 242 214 q 386 128 321 128 q 492 171 451 128 q 532 283 532 214 l 532 956 q 537 967 532 963 q 549 972 542 972 l 676 972 q 688 967 683 972 q 693 956 693 963 l 693 292 q 655 133 693 201 q 547 26 617 64 q 386 -11 478 -11 m 229 1075 q 217 1080 222 1075 q 213 1092 213 1085 l 213 1169 q 217 1181 213 1176 q 229 1186 222 1186 l 542 1186 q 553 1181 549 1186 q 558 1169 558 1176 l 558 1092 q 553 1080 558 1085 q 542 1075 549 1075 l 229 1075 z "},"Ų":{"ha":774,"x_min":81,"x_max":693,"o":"m 532 956 q 537 967 532 963 q 549 972 542 972 l 676 972 q 688 967 683 972 q 693 956 693 963 l 693 292 q 624 88 693 168 q 436 -8 554 7 q 428 -11 433 -8 q 375 -106 375 -64 q 389 -145 375 -132 q 424 -158 403 -158 q 443 -156 429 -158 l 451 -154 q 464 -168 463 -154 l 471 -219 l 471 -224 q 458 -240 471 -235 q 394 -250 429 -250 q 317 -230 350 -250 q 272 -164 283 -210 q 268 -129 268 -147 q 319 -14 268 -71 q 317 -6 325 -8 q 144 95 208 15 q 81 292 81 175 l 81 956 q 85 967 81 963 q 97 972 90 972 l 225 972 q 237 967 232 972 q 242 956 242 963 l 242 283 q 281 171 242 214 q 386 128 321 128 q 492 171 451 128 q 532 283 532 214 l 532 956 z "},"Ů":{"ha":774,"x_min":81,"x_max":693,"o":"m 386 -11 q 226 26 296 -11 q 119 133 157 64 q 81 292 81 201 l 81 956 q 85 967 81 963 q 97 972 90 972 l 225 972 q 237 967 232 972 q 242 956 242 963 l 242 283 q 281 171 242 214 q 386 128 321 128 q 492 171 451 128 q 532 283 532 214 l 532 956 q 537 967 532 963 q 549 972 542 972 l 676 972 q 688 967 683 972 q 693 956 693 963 l 693 292 q 655 133 693 201 q 547 26 617 64 q 386 -11 478 -11 m 388 1051 q 270 1099 318 1051 q 222 1217 222 1147 q 270 1333 222 1286 q 388 1381 318 1381 q 504 1333 457 1381 q 551 1217 551 1286 q 504 1099 551 1147 q 388 1051 457 1051 m 388 1139 q 442 1162 419 1139 q 464 1217 464 1185 q 442 1272 464 1250 q 388 1294 419 1294 q 333 1272 356 1294 q 311 1217 311 1250 q 333 1162 311 1185 q 388 1139 356 1139 z "},"Ũ":{"ha":774,"x_min":81,"x_max":693,"o":"m 386 -11 q 226 26 296 -11 q 119 133 157 64 q 81 292 81 201 l 81 956 q 85 967 81 963 q 97 972 90 972 l 225 972 q 237 967 232 972 q 242 956 242 963 l 242 283 q 281 171 242 214 q 386 128 321 128 q 492 171 451 128 q 532 283 532 214 l 532 956 q 537 967 532 963 q 549 972 542 972 l 676 972 q 688 967 683 972 q 693 956 693 963 l 693 292 q 655 133 693 201 q 547 26 617 64 q 386 -11 478 -11 m 481 1078 q 439 1085 457 1078 q 397 1106 421 1092 q 375 1117 389 1110 q 351 1126 361 1124 q 331 1129 342 1129 q 265 1099 292 1129 q 243 1096 254 1085 l 197 1138 q 193 1161 186 1149 q 247 1221 214 1200 q 321 1242 281 1242 q 367 1234 347 1242 q 415 1210 386 1226 q 434 1199 421 1207 q 458 1188 447 1192 q 481 1185 469 1185 q 542 1217 518 1185 q 556 1226 549 1226 q 565 1221 560 1226 l 608 1179 q 614 1167 614 1174 q 611 1156 614 1160 q 557 1098 592 1118 q 481 1078 522 1078 z "},"V":{"ha":750,"x_min":40,"x_max":714,"o":"m 306 0 q 286 14 290 0 l 40 954 l 40 960 q 56 972 40 972 l 193 972 q 211 958 207 972 l 375 260 q 379 254 376 254 q 383 260 382 254 l 543 957 q 561 972 547 972 l 696 972 q 710 954 714 972 l 464 14 q 444 0 460 0 l 306 0 z "},"W":{"ha":1071,"x_min":35,"x_max":1040,"o":"m 272 0 q 254 14 258 0 l 35 954 l 35 960 q 50 972 35 972 l 183 972 q 201 957 199 972 l 331 350 q 335 346 332 346 q 339 351 338 346 l 458 957 q 476 972 460 972 l 597 972 q 615 957 613 972 l 744 350 q 749 344 746 344 q 753 350 751 344 l 875 957 q 893 972 878 972 l 1021 972 q 1036 954 1040 972 l 829 15 q 811 0 826 0 l 686 0 q 668 15 671 0 l 540 642 q 536 646 539 646 q 532 642 533 646 l 411 15 q 393 0 410 0 l 272 0 z "},"Ẃ":{"ha":1090,"x_min":35,"x_max":1040,"o":"m 272 0 q 254 14 258 0 l 35 954 l 35 960 q 50 972 35 972 l 183 972 q 201 957 199 972 l 331 350 q 335 346 332 346 q 339 351 338 346 l 458 957 q 476 972 460 972 l 597 972 q 615 957 613 972 l 744 350 q 749 344 746 344 q 753 350 751 344 l 875 957 q 893 972 878 972 l 1021 972 q 1036 954 1040 972 l 829 15 q 811 0 826 0 l 686 0 q 668 15 671 0 l 540 642 q 536 646 539 646 q 532 642 533 646 l 411 15 q 393 0 410 0 l 272 0 m 478 1061 q 465 1067 468 1061 q 467 1081 463 1072 l 546 1224 q 567 1235 553 1235 l 671 1235 q 684 1228 681 1235 q 682 1214 688 1222 l 583 1072 q 564 1061 576 1061 l 478 1061 z "},"Ŵ":{"ha":1090,"x_min":35,"x_max":1040,"o":"m 272 0 q 254 14 258 0 l 35 954 l 35 960 q 50 972 35 972 l 183 972 q 201 957 199 972 l 331 350 q 335 346 332 346 q 339 351 338 346 l 458 957 q 476 972 460 972 l 597 972 q 615 957 613 972 l 744 350 q 749 344 746 344 q 753 350 751 344 l 875 957 q 893 972 878 972 l 1021 972 q 1036 954 1040 972 l 829 15 q 811 0 826 0 l 686 0 q 668 15 671 0 l 540 642 q 536 646 539 646 q 532 642 533 646 l 411 15 q 393 0 410 0 l 272 0 m 365 1060 q 353 1066 356 1060 q 356 1081 350 1072 l 450 1224 q 469 1235 457 1235 l 615 1235 q 635 1224 628 1235 l 733 1081 q 736 1071 736 1076 q 722 1060 736 1060 l 624 1060 q 604 1071 610 1060 l 549 1161 q 543 1165 546 1165 q 539 1161 540 1165 l 483 1071 q 464 1060 478 1060 l 365 1060 z "},"Ẅ":{"ha":1090,"x_min":35,"x_max":1040,"o":"m 272 0 q 254 14 258 0 l 35 954 l 35 960 q 50 972 35 972 l 183 972 q 201 957 199 972 l 331 350 q 335 346 332 346 q 339 351 338 346 l 458 957 q 476 972 460 972 l 597 972 q 615 957 613 972 l 744 350 q 749 344 746 344 q 753 350 751 344 l 875 957 q 893 972 878 972 l 1021 972 q 1036 954 1040 972 l 829 15 q 811 0 826 0 l 686 0 q 668 15 671 0 l 540 642 q 536 646 539 646 q 532 642 533 646 l 411 15 q 393 0 410 0 l 272 0 z "},"Ẁ":{"ha":1090,"x_min":35,"x_max":1040,"o":"m 272 0 q 254 14 258 0 l 35 954 l 35 960 q 50 972 35 972 l 183 972 q 201 957 199 972 l 331 350 q 335 346 332 346 q 339 351 338 346 l 458 957 q 476 972 460 972 l 597 972 q 615 957 613 972 l 744 350 q 749 344 746 344 q 753 350 751 344 l 875 957 q 893 972 878 972 l 1021 972 q 1036 954 1040 972 l 829 15 q 811 0 826 0 l 686 0 q 668 15 671 0 l 540 642 q 536 646 539 646 q 532 642 533 646 l 411 15 q 393 0 410 0 l 272 0 m 597 1081 q 600 1072 600 1075 q 586 1061 600 1061 l 500 1061 q 481 1072 488 1061 l 381 1214 q 378 1224 378 1218 q 392 1235 378 1235 l 497 1235 q 518 1224 511 1235 l 597 1081 z "},"X":{"ha":747,"x_min":42,"x_max":706,"o":"m 58 0 q 45 5 49 0 q 46 19 42 10 l 279 482 q 279 490 281 486 l 46 953 q 43 961 43 958 q 58 972 43 972 l 193 972 q 213 960 207 972 l 371 636 q 379 636 375 631 l 536 960 q 556 972 543 972 l 689 972 q 702 967 699 972 q 701 953 706 963 l 468 490 q 468 482 467 486 l 701 19 q 704 11 704 14 q 689 0 704 0 l 556 0 q 536 13 543 0 l 379 335 q 371 335 375 342 l 213 13 q 193 0 207 0 l 58 0 z "},"Y":{"ha":733,"x_min":43,"x_max":692,"o":"m 303 1 q 291 6 296 1 q 286 18 286 11 l 286 393 l 285 401 l 44 953 q 43 961 43 956 q 57 972 43 972 l 193 972 q 213 960 208 972 l 363 585 q 371 585 367 575 l 519 960 q 539 972 524 972 l 676 972 q 689 967 686 972 q 689 953 692 961 l 447 401 l 446 393 l 446 18 q 441 6 446 11 q 429 1 436 1 l 303 1 z "},"Ý":{"ha":733,"x_min":43,"x_max":692,"o":"m 303 1 q 291 6 296 1 q 286 18 286 11 l 286 393 l 285 401 l 44 953 q 43 961 43 956 q 57 972 43 972 l 193 972 q 213 960 208 972 l 363 585 q 371 585 367 575 l 519 960 q 539 972 524 972 l 676 972 q 689 967 686 972 q 689 953 692 961 l 447 401 l 446 393 l 446 18 q 441 6 446 11 q 429 1 436 1 l 303 1 m 300 1060 q 288 1065 290 1060 q 289 1079 285 1071 l 368 1222 q 389 1233 375 1233 l 493 1233 q 506 1227 503 1233 q 504 1213 510 1221 l 406 1071 q 386 1060 399 1060 l 300 1060 z "},"Ŷ":{"ha":733,"x_min":43,"x_max":692,"o":"m 303 1 q 291 6 296 1 q 286 18 286 11 l 286 393 l 285 401 l 44 953 q 43 961 43 956 q 57 972 43 972 l 193 972 q 213 960 208 972 l 363 585 q 371 585 367 575 l 519 960 q 539 972 524 972 l 676 972 q 689 967 686 972 q 689 953 692 961 l 447 401 l 446 393 l 446 18 q 441 6 446 11 q 429 1 436 1 l 303 1 m 188 1058 q 175 1065 178 1058 q 178 1079 172 1071 l 272 1222 q 292 1233 279 1233 l 438 1233 q 457 1222 450 1233 l 556 1079 q 558 1069 558 1075 q 544 1058 558 1058 l 446 1058 q 426 1069 432 1058 l 371 1160 q 365 1164 368 1164 q 361 1160 363 1164 l 306 1069 q 286 1058 300 1058 l 188 1058 z "},"Ÿ":{"ha":733,"x_min":43,"x_max":692,"o":"m 303 1 q 291 6 296 1 q 286 18 286 11 l 286 393 l 285 401 l 44 953 q 43 961 43 956 q 57 972 43 972 l 193 972 q 213 960 208 972 l 363 585 q 371 585 367 575 l 519 960 q 539 972 524 972 l 676 972 q 689 967 686 972 q 689 953 692 961 l 447 401 l 446 393 l 446 18 q 441 6 446 11 q 429 1 436 1 l 303 1 z "},"Ỵ":{"ha":733,"x_min":43,"x_max":692,"o":"m 303 1 q 291 6 296 1 q 286 18 286 11 l 286 393 l 285 401 l 44 953 q 43 961 43 956 q 57 972 43 972 l 193 972 q 213 960 208 972 l 363 585 q 371 585 367 575 l 519 960 q 539 972 524 972 l 676 972 q 689 967 686 972 q 689 953 692 961 l 447 401 l 446 393 l 446 18 q 441 6 446 11 q 429 1 436 1 l 303 1 m 368 -297 q 300 -270 326 -297 q 274 -203 274 -243 q 300 -136 274 -162 q 368 -110 326 -110 q 435 -136 408 -110 q 461 -203 461 -162 q 435 -270 461 -243 q 368 -297 408 -297 z "},"Ỳ":{"ha":733,"x_min":43,"x_max":692,"o":"m 303 1 q 291 6 296 1 q 286 18 286 11 l 286 393 l 285 401 l 44 953 q 43 961 43 956 q 57 972 43 972 l 193 972 q 213 960 208 972 l 363 585 q 371 585 367 575 l 519 960 q 539 972 524 972 l 676 972 q 689 967 686 972 q 689 953 692 961 l 447 401 l 446 393 l 446 18 q 441 6 446 11 q 429 1 436 1 l 303 1 m 419 1079 q 422 1071 422 1074 q 408 1060 422 1060 l 322 1060 q 303 1071 310 1060 l 203 1213 q 200 1222 200 1217 q 214 1233 200 1233 l 319 1233 q 340 1222 333 1233 l 419 1079 z "},"Ỷ":{"ha":733,"x_min":43,"x_max":692,"o":"m 303 1 q 291 6 296 1 q 286 18 286 11 l 286 393 l 285 401 l 44 953 q 43 961 43 956 q 57 972 43 972 l 193 972 q 213 960 208 972 l 363 585 q 371 585 367 575 l 519 960 q 539 972 524 972 l 676 972 q 689 967 686 972 q 689 953 692 961 l 447 401 l 446 393 l 446 18 q 441 6 446 11 q 429 1 436 1 l 303 1 m 351 1033 q 340 1054 332 1038 q 386 1122 356 1092 q 408 1149 401 1138 q 415 1181 415 1161 q 401 1208 415 1196 q 369 1219 388 1219 q 335 1210 349 1219 q 301 1176 321 1201 q 289 1168 297 1168 q 278 1172 282 1168 l 242 1199 q 235 1211 235 1203 q 238 1222 235 1218 q 297 1282 267 1264 q 374 1300 326 1300 q 467 1267 432 1300 q 503 1181 503 1235 q 490 1128 503 1149 q 450 1081 476 1107 q 414 1036 425 1056 q 393 1025 407 1024 l 351 1033 z "},"Ỹ":{"ha":733,"x_min":43,"x_max":692,"o":"m 303 1 q 291 6 296 1 q 286 18 286 11 l 286 393 l 285 401 l 44 953 q 43 961 43 956 q 57 972 43 972 l 193 972 q 213 960 208 972 l 363 585 q 371 585 367 575 l 519 960 q 539 972 524 972 l 676 972 q 689 967 686 972 q 689 953 692 961 l 447 401 l 446 393 l 446 18 q 441 6 446 11 q 429 1 436 1 l 303 1 m 460 1076 q 418 1083 436 1076 q 376 1104 400 1090 q 354 1115 368 1108 q 331 1125 340 1122 q 310 1128 321 1128 q 244 1097 271 1128 q 222 1094 233 1083 l 176 1136 q 172 1160 165 1147 q 226 1219 193 1199 q 300 1240 260 1240 q 346 1233 326 1240 q 394 1208 365 1225 q 413 1198 400 1206 q 438 1187 426 1190 q 460 1183 449 1183 q 521 1215 497 1183 q 535 1225 528 1225 q 544 1219 539 1225 l 588 1178 q 593 1165 593 1172 q 590 1154 593 1158 q 536 1097 571 1117 q 460 1076 501 1076 z "},"Z":{"ha":667,"x_min":43,"x_max":617,"o":"m 60 0 q 48 5 53 0 q 43 17 43 10 l 43 132 q 49 153 43 143 l 439 825 q 433 833 443 833 l 60 833 q 48 838 53 833 q 43 850 43 843 l 43 956 q 48 967 43 963 q 60 972 53 972 l 600 972 q 612 967 607 972 q 617 956 617 963 l 617 840 q 611 819 617 829 l 221 147 q 226 139 217 139 l 600 139 q 612 134 607 139 q 617 122 617 129 l 617 17 q 612 5 617 10 q 600 0 607 0 l 60 0 z "},"Ź":{"ha":667,"x_min":43,"x_max":617,"o":"m 60 0 q 48 5 53 0 q 43 17 43 10 l 43 132 q 49 153 43 143 l 439 825 q 433 833 443 833 l 60 833 q 48 838 53 833 q 43 850 43 843 l 43 956 q 48 967 43 963 q 60 972 53 972 l 600 972 q 612 967 607 972 q 617 956 617 963 l 617 840 q 611 819 617 829 l 221 147 q 226 139 217 139 l 600 139 q 612 134 607 139 q 617 122 617 129 l 617 17 q 612 5 617 10 q 600 0 607 0 l 60 0 m 264 1061 q 251 1067 254 1061 q 253 1081 249 1072 l 332 1224 q 353 1235 339 1235 l 457 1235 q 470 1228 467 1235 q 468 1214 474 1222 l 369 1072 q 350 1061 363 1061 l 264 1061 z "},"Ž":{"ha":667,"x_min":43,"x_max":617,"o":"m 60 0 q 48 5 53 0 q 43 17 43 10 l 43 132 q 49 153 43 143 l 439 825 q 433 833 443 833 l 60 833 q 48 838 53 833 q 43 850 43 843 l 43 956 q 48 967 43 963 q 60 972 53 972 l 600 972 q 612 967 607 972 q 617 956 617 963 l 617 840 q 611 819 617 829 l 221 147 q 226 139 217 139 l 600 139 q 612 134 607 139 q 617 122 617 129 l 617 17 q 612 5 617 10 q 600 0 607 0 l 60 0 m 147 1214 q 144 1224 144 1218 q 157 1235 144 1235 l 256 1235 q 275 1224 269 1235 l 331 1133 q 336 1129 333 1129 q 340 1133 339 1129 l 396 1224 q 415 1235 401 1235 l 514 1235 q 527 1228 524 1235 q 525 1214 531 1222 l 426 1071 q 407 1060 419 1060 l 261 1060 q 242 1071 249 1060 l 147 1214 z "},"Ż":{"ha":667,"x_min":43,"x_max":617,"o":"m 60 0 q 48 5 53 0 q 43 17 43 10 l 43 132 q 49 153 43 143 l 439 825 q 433 833 443 833 l 60 833 q 48 838 53 833 q 43 850 43 843 l 43 956 q 48 967 43 963 q 60 972 53 972 l 600 972 q 612 967 607 972 q 617 956 617 963 l 617 840 q 611 819 617 829 l 221 147 q 226 139 217 139 l 600 139 q 612 134 607 139 q 617 122 617 129 l 617 17 q 612 5 617 10 q 600 0 607 0 l 60 0 m 331 1069 q 260 1097 288 1069 q 232 1168 232 1125 q 260 1239 232 1211 q 331 1267 288 1267 q 401 1239 374 1267 q 428 1168 428 1211 q 400 1097 428 1125 q 331 1069 372 1069 z "},"Ģ":{"ha":746,"x_min":68,"x_max":678,"o":"m 372 -11 q 213 25 282 -11 q 106 127 144 61 q 68 279 68 193 l 68 693 q 106 845 68 779 q 213 947 144 911 q 372 983 282 983 q 532 948 463 983 q 640 849 601 913 q 678 703 678 785 l 678 671 q 673 659 678 664 q 661 654 668 654 l 533 654 q 522 659 526 654 q 517 671 517 664 l 517 703 q 477 805 517 765 q 372 844 438 844 q 269 803 308 844 q 229 696 229 763 l 229 276 q 270 169 229 210 q 376 128 311 128 q 478 165 440 128 q 517 265 517 201 l 517 375 q 510 382 517 382 l 383 382 q 372 387 376 382 q 367 399 367 392 l 367 500 q 372 512 367 507 q 383 517 376 517 l 661 517 q 673 512 668 517 q 678 500 678 507 l 678 283 q 594 67 678 146 q 372 -11 511 -11 z "},"Ķ":{"ha":763,"x_min":89,"x_max":736,"o":"m 106 0 q 94 5 99 0 q 89 17 89 10 l 89 956 q 94 967 89 963 q 106 972 99 972 l 233 972 q 245 967 240 972 q 250 956 250 963 l 250 556 q 253 550 250 551 q 258 553 256 549 l 543 961 q 563 972 550 972 l 703 972 q 716 966 713 972 q 714 951 719 960 l 451 561 q 451 551 450 557 l 733 19 q 736 11 736 14 q 722 0 736 0 l 581 0 q 560 13 567 0 l 340 426 q 336 431 339 431 q 331 428 333 431 l 253 321 q 250 313 250 315 l 250 17 q 245 5 250 10 q 233 0 240 0 l 106 0 z "},"Ņ":{"ha":817,"x_min":88,"x_max":729,"o":"m 568 956 q 573 967 568 963 q 585 972 578 972 l 713 972 q 724 967 719 972 q 729 956 729 963 l 729 17 q 724 5 729 10 q 713 0 719 0 l 578 0 q 558 13 565 0 l 256 635 q 250 638 253 639 q 247 632 247 638 l 249 17 q 244 5 249 10 q 232 0 239 0 l 104 0 q 92 5 97 0 q 88 17 88 10 l 88 956 q 92 967 88 963 q 104 972 97 972 l 238 972 q 257 960 251 972 l 561 335 q 567 331 564 331 q 569 338 569 332 l 568 956 z "},"Ŗ":{"ha":746,"x_min":89,"x_max":700,"o":"m 553 0 q 533 14 538 0 l 383 413 q 376 418 381 418 l 257 418 q 250 411 250 418 l 250 17 q 245 5 250 10 q 233 0 240 0 l 106 0 q 94 5 99 0 q 89 17 89 10 l 89 956 q 94 967 89 963 q 106 972 99 972 l 426 972 q 567 937 506 972 q 661 837 628 901 q 694 689 694 772 q 653 532 694 599 q 539 438 611 465 q 535 428 532 435 l 699 19 q 700 11 700 17 q 686 0 700 0 l 553 0 m 257 833 q 250 826 250 833 l 250 550 q 257 543 250 543 l 403 543 q 497 583 461 543 q 533 688 533 622 q 497 794 533 754 q 403 833 461 833 l 257 833 z "},"Ţ":{"ha":717,"x_min":43,"x_max":674,"o":"m 657 972 q 669 967 664 972 q 674 956 674 963 l 674 849 q 669 837 674 842 q 657 832 664 832 l 442 832 q 435 825 435 832 l 435 17 q 430 5 435 10 q 418 0 425 0 l 290 0 q 278 5 283 0 q 274 17 274 10 l 274 825 q 267 832 274 832 l 60 832 q 48 837 53 832 q 43 849 43 842 l 43 956 q 48 967 43 963 q 60 972 53 972 l 657 972 m 322 -254 q 311 -233 310 -249 l 318 -182 q 339 -169 319 -165 q 357 -172 350 -172 q 393 -159 379 -172 q 407 -121 407 -146 q 347 -21 407 -72 q 339 -8 339 -15 q 353 0 339 0 l 422 0 q 443 -8 435 0 q 514 -143 514 -69 q 510 -178 514 -161 q 465 -244 499 -224 q 388 -264 432 -264 q 322 -254 354 -264 z "},"Ș":{"ha":713,"x_min":53,"x_max":661,"o":"m 360 -11 q 199 22 268 -11 q 91 115 129 54 q 53 254 53 175 l 53 290 q 58 302 53 297 q 69 307 63 307 l 194 307 q 206 302 201 307 q 211 290 211 297 l 211 263 q 253 165 211 203 q 365 128 294 128 q 465 161 431 128 q 500 249 500 194 q 481 313 500 286 q 426 363 461 340 q 317 425 390 386 q 181 504 232 469 q 94 593 129 539 q 58 725 58 647 q 138 914 58 844 q 349 983 218 983 q 508 949 439 983 q 615 853 578 915 q 653 710 653 790 l 653 681 q 648 669 653 674 q 636 664 643 664 l 511 664 q 499 669 504 664 q 494 681 494 674 l 494 707 q 454 806 494 767 q 346 844 414 844 q 251 813 286 844 q 217 726 217 782 q 235 663 217 689 q 290 613 253 636 q 401 551 326 589 q 549 463 501 494 q 628 380 596 431 q 661 256 661 329 q 579 61 661 133 q 360 -11 497 -11 z "},"Ț":{"ha":717,"x_min":43,"x_max":674,"o":"m 657 972 q 669 967 664 972 q 674 956 674 963 l 674 849 q 669 837 674 842 q 657 832 664 832 l 442 832 q 435 825 435 832 l 435 17 q 430 5 435 10 q 418 0 425 0 l 290 0 q 278 5 283 0 q 274 17 274 10 l 274 825 q 267 832 274 832 l 60 832 q 48 837 53 832 q 43 849 43 842 l 43 956 q 48 967 43 963 q 60 972 53 972 l 657 972 z "},"a":{"ha":664,"x_min":43,"x_max":600,"o":"m 331 721 q 471 691 410 721 q 566 608 532 661 q 600 488 600 556 l 600 17 q 595 5 600 10 q 583 0 590 0 l 456 0 q 444 5 449 0 q 439 17 439 10 l 439 51 q 436 57 439 56 q 431 56 433 58 q 263 -11 372 -11 q 107 38 171 -11 q 43 199 43 88 q 117 372 43 315 q 322 429 192 429 l 432 429 q 439 436 439 429 l 439 471 q 410 552 439 522 q 332 582 382 582 q 266 563 292 582 q 233 513 240 544 q 214 497 229 497 l 79 506 q 67 510 72 506 q 64 521 63 515 q 147 665 72 610 q 331 721 221 721 m 304 119 q 399 151 358 119 q 439 233 439 182 l 439 306 q 432 313 439 313 l 339 313 q 242 286 278 313 q 207 210 207 260 q 234 142 207 165 q 304 119 261 119 z "},"á":{"ha":663,"x_min":43,"x_max":600,"o":"m 331 721 q 471 691 410 721 q 566 608 532 661 q 600 488 600 556 l 600 17 q 595 5 600 10 q 583 0 590 0 l 456 0 q 444 5 449 0 q 439 17 439 10 l 439 51 q 436 57 439 56 q 431 56 433 58 q 263 -11 372 -11 q 107 38 171 -11 q 43 199 43 88 q 117 372 43 315 q 322 429 192 429 l 432 429 q 439 436 439 429 l 439 471 q 410 552 439 522 q 332 582 382 582 q 266 563 292 582 q 233 513 240 544 q 214 497 229 497 l 79 506 q 67 510 72 506 q 64 521 63 515 q 147 665 72 610 q 331 721 221 721 m 304 119 q 399 151 358 119 q 439 233 439 182 l 439 306 q 432 313 439 313 l 339 313 q 242 286 278 313 q 207 210 207 260 q 234 142 207 165 q 304 119 261 119 m 265 799 q 253 804 256 799 q 254 818 250 810 l 333 961 q 354 972 340 972 l 458 972 q 472 966 468 972 q 469 951 475 960 l 371 810 q 351 799 364 799 l 265 799 z "},"ă":{"ha":663,"x_min":43,"x_max":600,"o":"m 331 721 q 471 691 410 721 q 566 608 532 661 q 600 488 600 556 l 600 17 q 595 5 600 10 q 583 0 590 0 l 456 0 q 444 5 449 0 q 439 17 439 10 l 439 51 q 436 57 439 56 q 431 56 433 58 q 263 -11 372 -11 q 107 38 171 -11 q 43 199 43 88 q 117 372 43 315 q 322 429 192 429 l 432 429 q 439 436 439 429 l 439 471 q 410 552 439 522 q 332 582 382 582 q 266 563 292 582 q 233 513 240 544 q 214 497 229 497 l 79 506 q 67 510 72 506 q 64 521 63 515 q 147 665 72 610 q 331 721 221 721 m 304 119 q 399 151 358 119 q 439 233 439 182 l 439 306 q 432 313 439 313 l 339 313 q 242 286 278 313 q 207 210 207 260 q 234 142 207 165 q 304 119 261 119 m 332 772 q 209 813 258 772 q 153 919 160 854 l 153 922 q 168 936 153 936 l 232 936 q 249 921 246 936 q 277 871 254 890 q 332 851 300 851 q 387 871 364 851 q 415 921 410 890 q 432 936 418 936 l 496 936 q 513 921 513 936 q 456 814 506 856 q 332 772 407 772 z "},"ắ":{"ha":663,"x_min":43,"x_max":600,"o":"m 331 721 q 471 691 410 721 q 566 608 532 661 q 600 488 600 556 l 600 17 q 595 5 600 10 q 583 0 590 0 l 456 0 q 444 5 449 0 q 439 17 439 10 l 439 51 q 436 57 439 56 q 431 56 433 58 q 263 -11 372 -11 q 107 38 171 -11 q 43 199 43 88 q 117 372 43 315 q 322 429 192 429 l 432 429 q 439 436 439 429 l 439 471 q 410 552 439 522 q 332 582 382 582 q 266 563 292 582 q 233 513 240 544 q 214 497 229 497 l 79 506 q 67 510 72 506 q 64 521 63 515 q 147 665 72 610 q 331 721 221 721 m 304 119 q 399 151 358 119 q 439 233 439 182 l 439 306 q 432 313 439 313 l 339 313 q 242 286 278 313 q 207 210 207 260 q 234 142 207 165 q 304 119 261 119 z "},"ặ":{"ha":663,"x_min":43,"x_max":600,"o":"m 331 721 q 471 691 410 721 q 566 608 532 661 q 600 488 600 556 l 600 17 q 595 5 600 10 q 583 0 590 0 l 456 0 q 444 5 449 0 q 439 17 439 10 l 439 51 q 436 57 439 56 q 431 56 433 58 q 263 -11 372 -11 q 107 38 171 -11 q 43 199 43 88 q 117 372 43 315 q 322 429 192 429 l 432 429 q 439 436 439 429 l 439 471 q 410 552 439 522 q 332 582 382 582 q 266 563 292 582 q 233 513 240 544 q 214 497 229 497 l 79 506 q 67 510 72 506 q 64 521 63 515 q 147 665 72 610 q 331 721 221 721 m 304 119 q 399 151 358 119 q 439 233 439 182 l 439 306 q 432 313 439 313 l 339 313 q 242 286 278 313 q 207 210 207 260 q 234 142 207 165 q 304 119 261 119 m 332 -297 q 264 -270 290 -297 q 238 -203 238 -243 q 264 -136 238 -162 q 332 -110 290 -110 q 399 -136 372 -110 q 425 -203 425 -162 q 399 -270 425 -243 q 332 -297 372 -297 m 332 792 q 209 833 258 792 q 153 938 160 874 l 153 940 q 168 954 153 954 l 228 954 q 244 939 242 954 q 275 888 251 907 q 332 869 299 869 q 390 889 365 869 q 419 939 414 908 q 436 954 422 954 l 496 954 q 513 939 513 954 q 456 833 506 875 q 332 792 406 792 z "},"ằ":{"ha":663,"x_min":43,"x_max":600,"o":"m 331 721 q 471 691 410 721 q 566 608 532 661 q 600 488 600 556 l 600 17 q 595 5 600 10 q 583 0 590 0 l 456 0 q 444 5 449 0 q 439 17 439 10 l 439 51 q 436 57 439 56 q 431 56 433 58 q 263 -11 372 -11 q 107 38 171 -11 q 43 199 43 88 q 117 372 43 315 q 322 429 192 429 l 432 429 q 439 436 439 429 l 439 471 q 410 552 439 522 q 332 582 382 582 q 266 563 292 582 q 233 513 240 544 q 214 497 229 497 l 79 506 q 67 510 72 506 q 64 521 63 515 q 147 665 72 610 q 331 721 221 721 m 304 119 q 399 151 358 119 q 439 233 439 182 l 439 306 q 432 313 439 313 l 339 313 q 242 286 278 313 q 207 210 207 260 q 234 142 207 165 q 304 119 261 119 z "},"ẳ":{"ha":663,"x_min":43,"x_max":600,"o":"m 331 721 q 471 691 410 721 q 566 608 532 661 q 600 488 600 556 l 600 17 q 595 5 600 10 q 583 0 590 0 l 456 0 q 444 5 449 0 q 439 17 439 10 l 439 51 q 436 57 439 56 q 431 56 433 58 q 263 -11 372 -11 q 107 38 171 -11 q 43 199 43 88 q 117 372 43 315 q 322 429 192 429 l 432 429 q 439 436 439 429 l 439 471 q 410 552 439 522 q 332 582 382 582 q 266 563 292 582 q 233 513 240 544 q 214 497 229 497 l 79 506 q 67 510 72 506 q 64 521 63 515 q 147 665 72 610 q 331 721 221 721 m 304 119 q 399 151 358 119 q 439 233 439 182 l 439 306 q 432 313 439 313 l 339 313 q 242 286 278 313 q 207 210 207 260 q 234 142 207 165 q 304 119 261 119 m 319 986 q 308 994 311 989 q 308 1008 304 1000 q 326 1042 317 1029 q 351 1072 335 1054 q 373 1099 367 1089 q 379 1128 379 1110 q 367 1154 379 1143 q 336 1165 354 1165 q 305 1157 318 1165 q 275 1128 292 1149 q 272 1125 274 1126 q 269 1122 271 1124 q 249 1121 261 1111 l 215 1144 q 211 1168 203 1154 q 267 1224 239 1207 q 339 1242 294 1242 q 429 1210 396 1242 q 463 1128 463 1179 q 450 1078 463 1099 q 413 1032 438 1057 q 379 990 386 1001 q 358 979 372 978 l 319 986 m 332 792 q 209 833 258 792 q 153 938 160 874 l 153 940 q 168 954 153 954 l 228 954 q 244 939 242 954 q 274 889 250 908 q 332 869 299 869 q 390 889 365 869 q 419 939 414 908 q 436 954 422 954 l 496 954 q 513 939 513 954 q 456 833 506 875 q 332 792 406 792 z "},"ẵ":{"ha":663,"x_min":43,"x_max":600,"o":"m 331 721 q 471 691 410 721 q 566 608 532 661 q 600 488 600 556 l 600 17 q 595 5 600 10 q 583 0 590 0 l 456 0 q 444 5 449 0 q 439 17 439 10 l 439 51 q 436 57 439 56 q 431 56 433 58 q 263 -11 372 -11 q 107 38 171 -11 q 43 199 43 88 q 117 372 43 315 q 322 429 192 429 l 432 429 q 439 436 439 429 l 439 471 q 410 552 439 522 q 332 582 382 582 q 266 563 292 582 q 233 513 240 544 q 214 497 229 497 l 79 506 q 67 510 72 506 q 64 521 63 515 q 147 665 72 610 q 331 721 221 721 m 304 119 q 399 151 358 119 q 439 233 439 182 l 439 306 q 432 313 439 313 l 339 313 q 242 286 278 313 q 207 210 207 260 q 234 142 207 165 q 304 119 261 119 m 421 1003 q 379 1009 397 1003 q 340 1028 361 1015 q 322 1038 335 1031 q 298 1049 308 1046 q 278 1051 288 1051 q 217 1022 242 1051 q 203 1014 208 1014 q 193 1019 199 1014 l 151 1058 q 147 1081 140 1069 q 199 1138 167 1118 q 268 1158 231 1158 q 311 1151 293 1158 q 358 1128 329 1144 q 376 1117 364 1125 q 399 1106 389 1110 q 421 1103 410 1103 q 478 1133 456 1103 q 492 1143 485 1143 q 501 1138 496 1143 l 540 1100 q 546 1088 546 1094 q 543 1076 546 1081 q 492 1022 525 1040 q 421 1003 460 1003 m 332 792 q 209 833 258 792 q 153 938 160 874 l 153 940 q 168 954 153 954 l 228 954 q 244 939 242 954 q 274 889 250 908 q 332 869 299 869 q 390 889 365 869 q 419 939 414 908 q 436 954 422 954 l 496 954 q 513 939 513 954 q 456 833 506 875 q 332 792 406 792 z "},"ǎ":{"ha":663,"x_min":43,"x_max":600,"o":"m 331 721 q 471 691 410 721 q 566 608 532 661 q 600 488 600 556 l 600 17 q 595 5 600 10 q 583 0 590 0 l 456 0 q 444 5 449 0 q 439 17 439 10 l 439 51 q 436 57 439 56 q 431 56 433 58 q 263 -11 372 -11 q 107 38 171 -11 q 43 199 43 88 q 117 372 43 315 q 322 429 192 429 l 432 429 q 439 436 439 429 l 439 471 q 410 552 439 522 q 332 582 382 582 q 266 563 292 582 q 233 513 240 544 q 214 497 229 497 l 79 506 q 67 510 72 506 q 64 521 63 515 q 147 665 72 610 q 331 721 221 721 m 304 119 q 399 151 358 119 q 439 233 439 182 l 439 306 q 432 313 439 313 l 339 313 q 242 286 278 313 q 207 210 207 260 q 234 142 207 165 q 304 119 261 119 z "},"â":{"ha":663,"x_min":43,"x_max":600,"o":"m 331 721 q 471 691 410 721 q 566 608 532 661 q 600 488 600 556 l 600 17 q 595 5 600 10 q 583 0 590 0 l 456 0 q 444 5 449 0 q 439 17 439 10 l 439 51 q 436 57 439 56 q 431 56 433 58 q 263 -11 372 -11 q 107 38 171 -11 q 43 199 43 88 q 117 372 43 315 q 322 429 192 429 l 432 429 q 439 436 439 429 l 439 471 q 410 552 439 522 q 332 582 382 582 q 266 563 292 582 q 233 513 240 544 q 214 497 229 497 l 79 506 q 67 510 72 506 q 64 521 63 515 q 147 665 72 610 q 331 721 221 721 m 304 119 q 399 151 358 119 q 439 233 439 182 l 439 306 q 432 313 439 313 l 339 313 q 242 286 278 313 q 207 210 207 260 q 234 142 207 165 q 304 119 261 119 m 153 797 q 140 803 143 797 q 143 818 138 810 l 238 961 q 257 972 244 972 l 403 972 q 422 961 415 972 l 521 818 q 524 808 524 814 q 510 797 524 797 l 411 797 q 392 808 397 797 l 336 899 q 331 903 333 903 q 326 899 328 903 l 271 808 q 251 797 265 797 l 153 797 z "},"ấ":{"ha":663,"x_min":43,"x_max":740,"o":"m 331 721 q 471 691 410 721 q 566 608 532 661 q 600 488 600 556 l 600 17 q 595 5 600 10 q 583 0 590 0 l 456 0 q 444 5 449 0 q 439 17 439 10 l 439 51 q 436 57 439 56 q 431 56 433 58 q 263 -11 372 -11 q 107 38 171 -11 q 43 199 43 88 q 117 372 43 315 q 322 429 192 429 l 432 429 q 439 436 439 429 l 439 471 q 410 552 439 522 q 332 582 382 582 q 266 563 292 582 q 233 513 240 544 q 214 497 229 497 l 79 506 q 67 510 72 506 q 64 521 63 515 q 147 665 72 610 q 331 721 221 721 m 304 119 q 399 151 358 119 q 439 233 439 182 l 439 306 q 432 313 439 313 l 339 313 q 242 286 278 313 q 207 210 207 260 q 234 142 207 165 q 304 119 261 119 z "},"ậ":{"ha":663,"x_min":43,"x_max":600,"o":"m 331 721 q 471 691 410 721 q 566 608 532 661 q 600 488 600 556 l 600 17 q 595 5 600 10 q 583 0 590 0 l 456 0 q 444 5 449 0 q 439 17 439 10 l 439 51 q 436 57 439 56 q 431 56 433 58 q 263 -11 372 -11 q 107 38 171 -11 q 43 199 43 88 q 117 372 43 315 q 322 429 192 429 l 432 429 q 439 436 439 429 l 439 471 q 410 552 439 522 q 332 582 382 582 q 266 563 292 582 q 233 513 240 544 q 214 497 229 497 l 79 506 q 67 510 72 506 q 64 521 63 515 q 147 665 72 610 q 331 721 221 721 m 304 119 q 399 151 358 119 q 439 233 439 182 l 439 306 q 432 313 439 313 l 339 313 q 242 286 278 313 q 207 210 207 260 q 234 142 207 165 q 304 119 261 119 m 332 -297 q 264 -270 290 -297 q 238 -203 238 -243 q 264 -136 238 -162 q 332 -110 290 -110 q 399 -136 372 -110 q 425 -203 425 -162 q 399 -270 425 -243 q 332 -297 372 -297 m 153 797 q 140 803 143 797 q 143 818 138 810 l 238 961 q 257 972 244 972 l 403 972 q 422 961 415 972 l 521 818 q 524 808 524 814 q 510 797 524 797 l 411 797 q 392 808 397 797 l 336 899 q 331 903 333 903 q 326 899 328 903 l 271 808 q 251 797 265 797 l 153 797 z "},"ầ":{"ha":663,"x_min":43,"x_max":614,"o":"m 331 721 q 471 691 410 721 q 566 608 532 661 q 600 488 600 556 l 600 17 q 595 5 600 10 q 583 0 590 0 l 456 0 q 444 5 449 0 q 439 17 439 10 l 439 51 q 436 57 439 56 q 431 56 433 58 q 263 -11 372 -11 q 107 38 171 -11 q 43 199 43 88 q 117 372 43 315 q 322 429 192 429 l 432 429 q 439 436 439 429 l 439 471 q 410 552 439 522 q 332 582 382 582 q 266 563 292 582 q 233 513 240 544 q 214 497 229 497 l 79 506 q 67 510 72 506 q 64 521 63 515 q 147 665 72 610 q 331 721 221 721 m 304 119 q 399 151 358 119 q 439 233 439 182 l 439 306 q 432 313 439 313 l 339 313 q 242 286 278 313 q 207 210 207 260 q 234 142 207 165 q 304 119 261 119 z "},"ẩ":{"ha":663,"x_min":43,"x_max":661,"o":"m 331 721 q 471 691 410 721 q 566 608 532 661 q 600 488 600 556 l 600 17 q 595 5 600 10 q 583 0 590 0 l 456 0 q 444 5 449 0 q 439 17 439 10 l 439 51 q 436 57 439 56 q 431 56 433 58 q 263 -11 372 -11 q 107 38 171 -11 q 43 199 43 88 q 117 372 43 315 q 322 429 192 429 l 432 429 q 439 436 439 429 l 439 471 q 410 552 439 522 q 332 582 382 582 q 266 563 292 582 q 233 513 240 544 q 214 497 229 497 l 79 506 q 67 510 72 506 q 64 521 63 515 q 147 665 72 610 q 331 721 221 721 m 304 119 q 399 151 358 119 q 439 233 439 182 l 439 306 q 432 313 439 313 l 339 313 q 242 286 278 313 q 207 210 207 260 q 234 142 207 165 q 304 119 261 119 m 514 939 q 502 947 506 942 q 503 961 499 953 q 547 1026 517 996 q 569 1054 563 1043 q 575 1083 575 1065 q 562 1110 575 1099 q 531 1122 549 1122 q 497 1113 511 1122 q 465 1081 483 1104 q 451 1072 460 1072 q 440 1076 444 1072 l 406 1101 q 399 1114 399 1108 q 403 1125 399 1119 q 460 1183 431 1165 q 535 1200 489 1200 q 626 1168 592 1200 q 661 1083 661 1136 q 649 1034 661 1054 q 610 986 636 1014 q 574 942 585 961 q 553 932 565 931 l 514 939 m 153 797 q 140 803 143 797 q 143 818 138 810 l 238 961 q 257 972 244 972 l 403 972 q 422 961 415 972 l 521 818 q 524 808 524 814 q 510 797 524 797 l 411 797 q 392 808 397 797 l 336 899 q 331 903 333 903 q 326 899 328 903 l 271 808 q 251 797 265 797 l 153 797 z "},"ẫ":{"ha":663,"x_min":43,"x_max":600,"o":"m 331 721 q 471 691 410 721 q 566 608 532 661 q 600 488 600 556 l 600 17 q 595 5 600 10 q 583 0 590 0 l 456 0 q 444 5 449 0 q 439 17 439 10 l 439 51 q 436 57 439 56 q 431 56 433 58 q 263 -11 372 -11 q 107 38 171 -11 q 43 199 43 88 q 117 372 43 315 q 322 429 192 429 l 432 429 q 439 436 439 429 l 439 471 q 410 552 439 522 q 332 582 382 582 q 266 563 292 582 q 233 513 240 544 q 214 497 229 497 l 79 506 q 67 510 72 506 q 64 521 63 515 q 147 665 72 610 q 331 721 221 721 m 304 119 q 399 151 358 119 q 439 233 439 182 l 439 306 q 432 313 439 313 l 339 313 q 242 286 278 313 q 207 210 207 260 q 234 142 207 165 q 304 119 261 119 z "},"ä":{"ha":663,"x_min":43,"x_max":600,"o":"m 331 721 q 471 691 410 721 q 566 608 532 661 q 600 488 600 556 l 600 17 q 595 5 600 10 q 583 0 590 0 l 456 0 q 444 5 449 0 q 439 17 439 10 l 439 51 q 436 57 439 56 q 431 56 433 58 q 263 -11 372 -11 q 107 38 171 -11 q 43 199 43 88 q 117 372 43 315 q 322 429 192 429 l 432 429 q 439 436 439 429 l 439 471 q 410 552 439 522 q 332 582 382 582 q 266 563 292 582 q 233 513 240 544 q 214 497 229 497 l 79 506 q 67 510 72 506 q 64 521 63 515 q 147 665 72 610 q 331 721 221 721 m 304 119 q 399 151 358 119 q 439 233 439 182 l 439 306 q 432 313 439 313 l 339 313 q 242 286 278 313 q 207 210 207 260 q 234 142 207 165 q 304 119 261 119 z "},"ạ":{"ha":663,"x_min":43,"x_max":600,"o":"m 331 721 q 471 691 410 721 q 566 608 532 661 q 600 488 600 556 l 600 17 q 595 5 600 10 q 583 0 590 0 l 456 0 q 444 5 449 0 q 439 17 439 10 l 439 51 q 436 57 439 56 q 431 56 433 58 q 263 -11 372 -11 q 107 38 171 -11 q 43 199 43 88 q 117 372 43 315 q 322 429 192 429 l 432 429 q 439 436 439 429 l 439 471 q 410 552 439 522 q 332 582 382 582 q 266 563 292 582 q 233 513 240 544 q 214 497 229 497 l 79 506 q 67 510 72 506 q 64 521 63 515 q 147 665 72 610 q 331 721 221 721 m 304 119 q 399 151 358 119 q 439 233 439 182 l 439 306 q 432 313 439 313 l 339 313 q 242 286 278 313 q 207 210 207 260 q 234 142 207 165 q 304 119 261 119 m 332 -297 q 264 -270 290 -297 q 238 -203 238 -243 q 264 -136 238 -162 q 332 -110 290 -110 q 399 -136 372 -110 q 425 -203 425 -162 q 399 -270 425 -243 q 332 -297 372 -297 z "},"à":{"ha":663,"x_min":43,"x_max":600,"o":"m 331 721 q 471 691 410 721 q 566 608 532 661 q 600 488 600 556 l 600 17 q 595 5 600 10 q 583 0 590 0 l 456 0 q 444 5 449 0 q 439 17 439 10 l 439 51 q 436 57 439 56 q 431 56 433 58 q 263 -11 372 -11 q 107 38 171 -11 q 43 199 43 88 q 117 372 43 315 q 322 429 192 429 l 432 429 q 439 436 439 429 l 439 471 q 410 552 439 522 q 332 582 382 582 q 266 563 292 582 q 233 513 240 544 q 214 497 229 497 l 79 506 q 67 510 72 506 q 64 521 63 515 q 147 665 72 610 q 331 721 221 721 m 304 119 q 399 151 358 119 q 439 233 439 182 l 439 306 q 432 313 439 313 l 339 313 q 242 286 278 313 q 207 210 207 260 q 234 142 207 165 q 304 119 261 119 m 385 818 q 388 810 388 813 q 374 799 388 799 l 288 799 q 268 810 275 799 l 168 951 q 165 961 165 956 q 179 972 165 972 l 285 972 q 306 961 299 972 l 385 818 z "},"ả":{"ha":663,"x_min":43,"x_max":600,"o":"m 331 721 q 471 691 410 721 q 566 608 532 661 q 600 488 600 556 l 600 17 q 595 5 600 10 q 583 0 590 0 l 456 0 q 444 5 449 0 q 439 17 439 10 l 439 51 q 436 57 439 56 q 431 56 433 58 q 263 -11 372 -11 q 107 38 171 -11 q 43 199 43 88 q 117 372 43 315 q 322 429 192 429 l 432 429 q 439 436 439 429 l 439 471 q 410 552 439 522 q 332 582 382 582 q 266 563 292 582 q 233 513 240 544 q 214 497 229 497 l 79 506 q 67 510 72 506 q 64 521 63 515 q 147 665 72 610 q 331 721 221 721 m 304 119 q 399 151 358 119 q 439 233 439 182 l 439 306 q 432 313 439 313 l 339 313 q 242 286 278 313 q 207 210 207 260 q 234 142 207 165 q 304 119 261 119 m 317 772 q 306 793 297 776 q 351 861 321 831 q 374 888 367 876 q 381 919 381 900 q 367 947 381 935 q 335 958 353 958 q 300 949 314 958 q 267 915 286 940 q 254 907 263 907 q 243 911 247 907 l 207 938 q 200 950 200 942 q 203 961 200 957 q 262 1021 232 1003 q 339 1039 292 1039 q 433 1006 397 1039 q 468 919 468 974 q 455 867 468 888 q 415 819 442 846 q 379 775 390 794 q 358 764 372 763 l 317 772 z "},"ā":{"ha":663,"x_min":43,"x_max":600,"o":"m 331 721 q 471 691 410 721 q 566 608 532 661 q 600 488 600 556 l 600 17 q 595 5 600 10 q 583 0 590 0 l 456 0 q 444 5 449 0 q 439 17 439 10 l 439 51 q 436 57 439 56 q 431 56 433 58 q 263 -11 372 -11 q 107 38 171 -11 q 43 199 43 88 q 117 372 43 315 q 322 429 192 429 l 432 429 q 439 436 439 429 l 439 471 q 410 552 439 522 q 332 582 382 582 q 266 563 292 582 q 233 513 240 544 q 214 497 229 497 l 79 506 q 67 510 72 506 q 64 521 63 515 q 147 665 72 610 q 331 721 221 721 m 304 119 q 399 151 358 119 q 439 233 439 182 l 439 306 q 432 313 439 313 l 339 313 q 242 286 278 313 q 207 210 207 260 q 234 142 207 165 q 304 119 261 119 m 174 813 q 162 817 167 813 q 157 829 157 822 l 157 907 q 162 919 157 914 q 174 924 167 924 l 486 924 q 498 919 493 924 q 503 907 503 914 l 503 829 q 498 817 503 822 q 486 813 493 813 l 174 813 z "},"ą":{"ha":663,"x_min":43,"x_max":611,"o":"m 592 -168 q 604 -182 603 -168 l 611 -233 l 611 -237 q 599 -254 611 -249 q 535 -264 569 -264 q 445 -236 482 -264 q 408 -144 408 -208 q 479 -8 408 -74 q 481 -3 482 -6 q 476 0 481 0 l 456 0 q 444 5 449 0 q 439 17 439 10 l 439 51 q 436 57 439 56 q 431 56 433 58 q 263 -11 372 -11 q 107 38 171 -11 q 43 199 43 88 q 117 372 43 315 q 322 429 192 429 l 432 429 q 439 436 439 429 l 439 471 q 410 552 439 522 q 332 582 382 582 q 266 563 292 582 q 233 513 240 544 q 214 497 229 497 l 79 506 q 67 510 72 506 q 64 524 63 515 q 147 666 74 611 q 331 721 221 721 q 471 691 410 721 q 566 608 532 661 q 600 488 600 556 l 600 13 q 590 -8 600 0 q 515 -119 515 -68 q 529 -159 515 -146 q 565 -172 543 -172 q 583 -169 569 -172 l 592 -168 m 304 119 q 399 151 358 119 q 439 233 439 182 l 439 306 q 432 313 439 313 l 339 313 q 242 286 278 313 q 207 210 207 260 q 234 142 207 165 q 304 119 261 119 z "},"å":{"ha":663,"x_min":43,"x_max":600,"o":"m 331 721 q 471 691 410 721 q 566 608 532 661 q 600 488 600 556 l 600 17 q 595 5 600 10 q 583 0 590 0 l 456 0 q 444 5 449 0 q 439 17 439 10 l 439 51 q 436 57 439 56 q 431 56 433 58 q 263 -11 372 -11 q 107 38 171 -11 q 43 199 43 88 q 117 372 43 315 q 322 429 192 429 l 432 429 q 439 436 439 429 l 439 471 q 410 552 439 522 q 332 582 382 582 q 266 563 292 582 q 233 513 240 544 q 214 497 229 497 l 79 506 q 67 510 72 506 q 64 521 63 515 q 147 665 72 610 q 331 721 221 721 m 304 119 q 399 151 358 119 q 439 233 439 182 l 439 306 q 432 313 439 313 l 339 313 q 242 286 278 313 q 207 210 207 260 q 234 142 207 165 q 304 119 261 119 m 332 789 q 215 837 263 789 q 167 954 167 885 q 215 1071 167 1024 q 332 1118 263 1118 q 449 1071 401 1118 q 496 954 496 1024 q 449 837 496 885 q 332 789 401 789 m 332 876 q 386 899 364 876 q 408 954 408 922 q 386 1010 408 988 q 332 1032 364 1032 q 278 1010 300 1032 q 256 954 256 988 q 278 899 256 922 q 332 876 300 876 z "},"ã":{"ha":663,"x_min":43,"x_max":600,"o":"m 331 721 q 471 691 410 721 q 566 608 532 661 q 600 488 600 556 l 600 17 q 595 5 600 10 q 583 0 590 0 l 456 0 q 444 5 449 0 q 439 17 439 10 l 439 51 q 436 57 439 56 q 431 56 433 58 q 263 -11 372 -11 q 107 38 171 -11 q 43 199 43 88 q 117 372 43 315 q 322 429 192 429 l 432 429 q 439 436 439 429 l 439 471 q 410 552 439 522 q 332 582 382 582 q 266 563 292 582 q 233 513 240 544 q 214 497 229 497 l 79 506 q 67 510 72 506 q 64 521 63 515 q 147 665 72 610 q 331 721 221 721 m 304 119 q 399 151 358 119 q 439 233 439 182 l 439 306 q 432 313 439 313 l 339 313 q 242 286 278 313 q 207 210 207 260 q 234 142 207 165 q 304 119 261 119 m 425 815 q 383 822 401 815 q 342 843 365 829 q 319 854 333 847 q 296 864 306 861 q 275 867 286 867 q 210 836 236 867 q 188 833 199 822 l 142 875 q 138 899 131 886 q 192 958 158 938 q 265 979 225 979 q 311 972 292 979 q 360 947 331 964 q 378 937 365 944 q 403 926 392 929 q 425 922 414 922 q 486 954 463 922 q 500 964 493 964 q 510 958 504 964 l 553 917 q 558 904 558 911 q 556 893 558 897 q 501 835 536 856 q 425 815 467 815 z "},"æ":{"ha":1049,"x_min":43,"x_max":994,"o":"m 275 -11 q 109 35 175 -11 q 43 194 43 82 q 114 362 43 307 q 315 417 185 417 l 431 417 q 438 424 438 417 l 438 465 q 410 551 438 519 q 328 582 382 582 q 257 563 286 582 q 221 513 228 544 q 201 497 217 494 l 74 508 q 58 526 57 511 q 142 667 68 613 q 321 721 217 721 q 438 695 386 721 q 519 628 490 669 q 528 628 524 622 q 609 694 557 668 q 724 721 661 721 q 899 663 825 721 q 986 508 972 604 q 994 311 994 440 q 978 294 994 294 l 613 294 q 606 288 606 294 q 607 238 606 258 q 647 163 611 190 q 733 135 682 135 q 806 154 776 135 q 850 206 835 174 q 872 215 858 221 l 971 179 q 981 172 978 178 q 982 158 985 165 q 894 35 960 82 q 731 -11 828 -11 q 601 17 657 -11 q 522 86 544 46 q 515 90 517 94 q 425 17 490 46 q 275 -11 360 -11 m 604 424 q 611 417 604 417 l 826 417 q 833 424 833 417 q 831 481 833 444 q 794 554 824 526 q 719 582 764 582 q 644 554 674 582 q 608 481 614 526 q 604 424 608 476 m 307 113 q 399 142 360 113 q 438 222 438 171 l 438 288 q 431 294 438 294 l 336 294 q 241 271 276 294 q 206 201 206 247 q 233 136 206 160 q 307 113 261 113 z "},"b":{"ha":692,"x_min":76,"x_max":629,"o":"m 617 510 q 629 357 629 439 q 614 200 629 272 q 536 42 589 94 q 397 -11 483 -11 q 246 56 299 -11 q 240 58 243 60 q 238 53 238 57 l 238 17 q 233 5 238 10 q 221 0 228 0 l 93 0 q 81 5 86 0 q 76 17 76 10 l 76 956 q 81 967 76 963 q 93 972 86 972 l 221 972 q 233 967 228 972 q 238 956 238 963 l 238 660 q 240 655 238 656 q 246 658 243 654 q 392 721 294 721 q 617 510 574 721 m 453 217 q 467 356 467 265 q 450 500 467 446 q 349 582 421 582 q 254 499 276 582 q 239 356 239 450 q 253 215 239 264 q 350 128 276 128 q 453 217 428 128 z "},"c":{"ha":663,"x_min":60,"x_max":615,"o":"m 342 -11 q 158 47 229 -11 q 71 204 86 104 q 60 357 60 261 q 71 508 60 444 q 158 663 86 606 q 342 721 231 721 q 522 666 449 721 q 611 522 596 611 q 614 508 613 517 q 615 488 615 500 l 615 485 q 600 469 615 472 l 474 457 l 471 457 q 456 472 458 457 q 453 493 456 482 q 416 556 446 531 q 340 582 386 582 q 265 554 294 582 q 228 481 235 526 q 221 356 221 428 q 229 228 221 276 q 265 155 236 182 q 340 128 294 128 q 417 155 388 128 q 453 221 447 182 l 454 235 q 461 247 456 242 q 474 250 467 251 l 599 239 q 615 221 615 236 l 613 197 q 526 46 600 103 q 342 -11 453 -11 z "},"ć":{"ha":663,"x_min":60,"x_max":615,"o":"m 342 -11 q 158 47 229 -11 q 71 204 86 104 q 60 357 60 261 q 71 508 60 444 q 158 663 86 606 q 342 721 231 721 q 522 666 449 721 q 611 522 596 611 q 614 508 613 517 q 615 488 615 500 l 615 485 q 600 469 615 472 l 474 457 l 471 457 q 456 472 458 457 q 453 493 456 482 q 416 556 446 531 q 340 582 386 582 q 265 554 294 582 q 228 481 235 526 q 221 356 221 428 q 229 228 221 276 q 265 155 236 182 q 340 128 294 128 q 417 155 388 128 q 453 221 447 182 l 454 235 q 461 247 456 242 q 474 250 467 251 l 599 239 q 615 221 615 236 l 613 197 q 526 46 600 103 q 342 -11 453 -11 m 274 799 q 261 804 264 799 q 263 818 258 810 l 342 961 q 363 972 349 972 l 467 972 q 480 966 476 972 q 478 951 483 960 l 379 810 q 360 799 372 799 l 274 799 z "},"č":{"ha":663,"x_min":60,"x_max":615,"o":"m 342 -11 q 158 47 229 -11 q 71 204 86 104 q 60 357 60 261 q 71 508 60 444 q 158 663 86 606 q 342 721 231 721 q 522 666 449 721 q 611 522 596 611 q 614 508 613 517 q 615 488 615 500 l 615 485 q 600 469 615 472 l 474 457 l 471 457 q 456 472 458 457 q 453 493 456 482 q 416 556 446 531 q 340 582 386 582 q 265 554 294 582 q 228 481 235 526 q 221 356 221 428 q 229 228 221 276 q 265 155 236 182 q 340 128 294 128 q 417 155 388 128 q 453 221 447 182 l 454 235 q 461 247 456 242 q 474 250 467 251 l 599 239 q 615 221 615 236 l 613 197 q 526 46 600 103 q 342 -11 453 -11 m 157 951 q 154 961 154 956 q 167 972 154 972 l 265 972 q 285 961 279 972 l 340 871 q 346 867 343 867 q 350 871 349 867 l 406 961 q 425 972 411 972 l 524 972 q 537 966 533 972 q 535 951 540 960 l 436 808 q 417 797 429 797 l 271 797 q 251 808 258 797 l 157 951 z "},"ç":{"ha":663,"x_min":60,"x_max":615,"o":"m 454 235 q 461 247 456 242 q 474 250 467 251 l 599 239 q 615 221 615 236 l 613 197 q 545 63 601 117 q 401 -7 489 8 q 399 -15 393 -10 q 457 -139 457 -74 q 453 -172 457 -156 q 408 -237 442 -218 q 331 -257 375 -257 q 265 -247 297 -257 q 254 -228 253 -243 l 261 -176 q 281 -164 263 -160 q 299 -167 292 -167 q 330 -157 317 -167 q 349 -128 343 -147 q 350 -117 350 -124 q 285 -8 350 -67 l 276 -4 q 138 65 192 10 q 71 204 83 121 q 60 357 60 261 q 71 508 60 444 q 158 663 86 606 q 342 721 231 721 q 522 666 449 721 q 611 522 596 611 q 614 508 613 517 q 615 488 615 500 l 615 485 q 600 469 615 472 l 474 457 l 471 457 q 456 472 458 457 q 453 493 456 482 q 416 556 446 531 q 340 582 386 582 q 265 554 294 582 q 228 481 235 526 q 221 356 221 428 q 229 228 221 276 q 265 155 236 182 q 340 128 294 128 q 417 155 388 128 q 453 221 447 182 l 454 235 z "},"ĉ":{"ha":663,"x_min":60,"x_max":615,"o":"m 342 -11 q 158 47 229 -11 q 71 204 86 104 q 60 357 60 261 q 71 508 60 444 q 158 663 86 606 q 342 721 231 721 q 522 666 449 721 q 611 522 596 611 q 614 508 613 517 q 615 488 615 500 l 615 485 q 600 469 615 472 l 474 457 l 471 457 q 456 472 458 457 q 453 493 456 482 q 416 556 446 531 q 340 582 386 582 q 265 554 294 582 q 228 481 235 526 q 221 356 221 428 q 229 228 221 276 q 265 155 236 182 q 340 128 294 128 q 417 155 388 128 q 453 221 447 182 l 454 235 q 461 247 456 242 q 474 250 467 251 l 599 239 q 615 221 615 236 l 613 197 q 526 46 600 103 q 342 -11 453 -11 m 160 797 q 147 803 150 797 q 150 818 144 810 l 244 961 q 264 972 251 972 l 410 972 q 429 961 422 972 l 528 818 q 531 808 531 814 q 517 797 531 797 l 418 797 q 399 808 404 797 l 343 899 q 338 903 340 903 q 333 899 335 903 l 278 808 q 258 797 272 797 l 160 797 z "},"ċ":{"ha":663,"x_min":60,"x_max":615,"o":"m 342 -11 q 158 47 229 -11 q 71 204 86 104 q 60 357 60 261 q 71 508 60 444 q 158 663 86 606 q 342 721 231 721 q 522 666 449 721 q 611 522 596 611 q 614 508 613 517 q 615 488 615 500 l 615 485 q 600 469 615 472 l 474 457 l 471 457 q 456 472 458 457 q 453 493 456 482 q 416 556 446 531 q 340 582 386 582 q 265 554 294 582 q 228 481 235 526 q 221 356 221 428 q 229 228 221 276 q 265 155 236 182 q 340 128 294 128 q 417 155 388 128 q 453 221 447 182 l 454 235 q 461 247 456 242 q 474 250 467 251 l 599 239 q 615 221 615 236 l 613 197 q 526 46 600 103 q 342 -11 453 -11 m 340 807 q 269 835 297 807 q 242 906 242 863 q 269 976 242 949 q 340 1004 297 1004 q 410 976 383 1004 q 438 906 438 949 q 410 835 438 863 q 340 807 382 807 z "},"d":{"ha":692,"x_min":63,"x_max":615,"o":"m 454 956 q 459 967 454 963 q 471 972 464 972 l 599 972 q 610 967 606 972 q 615 956 615 963 l 615 17 q 610 5 615 10 q 599 0 606 0 l 471 0 q 459 5 464 0 q 454 17 454 10 l 454 53 q 451 58 454 57 q 446 56 449 60 q 294 -11 393 -11 q 78 200 125 -11 q 63 357 63 264 q 75 510 63 449 q 299 721 118 721 q 446 657 399 721 q 451 654 449 653 q 454 660 454 656 l 454 956 m 439 215 q 453 356 453 264 q 438 499 453 450 q 343 582 415 582 q 242 500 269 582 q 224 356 224 447 q 239 217 224 271 q 342 128 264 128 q 439 215 415 128 z "},"ð":{"ha":685,"x_min":60,"x_max":614,"o":"m 607 483 q 614 335 614 426 q 604 196 614 253 q 517 45 589 101 q 336 -11 446 -11 q 156 44 226 -11 q 69 196 85 100 q 60 335 60 244 q 69 474 60 425 q 131 603 78 551 q 263 661 185 654 q 310 664 278 664 q 419 639 378 664 q 426 638 424 636 q 425 643 428 639 q 367 764 408 693 q 363 768 365 767 q 358 768 361 769 l 240 736 l 235 735 q 219 749 224 735 l 207 794 l 206 800 q 219 815 206 811 l 306 839 q 308 849 313 842 q 222 951 257 914 q 217 963 217 957 q 231 972 217 972 l 357 972 q 378 963 369 972 l 397 939 q 442 882 439 886 q 451 879 447 876 l 563 910 l 568 911 q 583 897 579 911 l 594 849 l 596 843 q 583 828 596 832 l 506 807 q 501 800 497 804 q 574 651 547 726 q 607 483 600 575 m 446 219 q 451 332 451 265 q 446 443 451 399 q 410 516 439 489 q 336 543 381 543 q 263 515 293 543 q 226 443 233 488 q 221 332 221 399 q 228 219 221 278 q 264 147 235 174 q 336 119 293 119 q 410 147 381 119 q 446 219 439 175 z "},"ď":{"ha":692,"x_min":63,"x_max":893,"o":"m 454 956 q 459 967 454 963 q 471 972 464 972 l 599 972 q 610 967 606 972 q 615 956 615 963 l 615 17 q 610 5 615 10 q 599 0 606 0 l 471 0 q 459 5 464 0 q 454 17 454 10 l 454 53 q 451 58 454 57 q 446 56 449 60 q 294 -11 393 -11 q 78 200 125 -11 q 63 357 63 264 q 75 510 63 449 q 299 721 118 721 q 446 657 399 721 q 451 654 449 653 q 454 660 454 656 l 454 956 m 439 215 q 453 356 453 264 q 438 499 453 450 q 343 582 415 582 q 242 500 269 582 q 224 356 224 447 q 239 217 224 271 q 342 128 264 128 q 439 215 415 128 z "},"đ":{"ha":692,"x_min":63,"x_max":686,"o":"m 669 879 q 681 874 676 879 q 686 863 686 869 l 686 796 q 681 784 686 789 q 669 779 676 779 l 622 779 q 615 772 615 779 l 615 17 q 610 5 615 10 q 599 0 606 0 l 471 0 q 459 5 464 0 q 454 17 454 10 l 454 53 q 451 58 454 57 q 446 56 449 60 q 294 -11 393 -11 q 78 200 125 -11 q 63 357 63 264 q 75 510 63 449 q 299 721 118 721 q 446 657 399 721 q 451 654 449 653 q 454 660 454 656 l 454 772 q 447 779 454 779 l 272 779 q 260 784 265 779 q 256 796 256 789 l 256 863 q 260 874 256 869 q 272 879 265 879 l 447 879 q 454 886 454 879 l 454 956 q 459 967 454 963 q 471 972 464 972 l 599 972 q 610 967 606 972 q 615 956 615 963 l 615 886 q 622 879 615 879 l 669 879 m 439 215 q 453 356 453 264 q 438 499 453 450 q 343 582 415 582 q 242 500 269 582 q 224 356 224 447 q 239 217 224 271 q 342 128 264 128 q 439 215 415 128 z "},"e":{"ha":672,"x_min":61,"x_max":619,"o":"m 615 474 q 619 368 619 428 l 618 308 q 601 292 618 292 l 229 292 q 222 285 222 292 q 228 228 225 246 q 267 154 235 182 q 347 126 299 126 q 417 147 389 128 q 461 201 446 167 q 482 213 468 217 l 596 189 q 607 168 613 183 q 512 35 579 82 q 347 -11 444 -11 q 163 44 232 -11 q 72 199 93 100 q 63 278 65 236 q 61 389 61 319 q 68 499 61 461 q 154 660 82 600 q 338 721 226 721 q 533 653 458 721 q 615 474 607 585 m 339 582 q 263 555 293 582 q 226 482 233 528 q 222 413 222 451 q 229 406 222 406 l 450 406 q 457 413 457 406 q 451 481 454 460 q 415 554 446 526 q 339 582 385 582 z "},"é":{"ha":671,"x_min":61,"x_max":619,"o":"m 615 474 q 619 368 619 428 l 618 308 q 601 292 618 292 l 229 292 q 222 285 222 292 q 228 228 225 246 q 267 154 235 182 q 347 126 299 126 q 417 147 389 128 q 461 201 446 167 q 482 213 468 217 l 596 189 q 607 168 613 183 q 512 35 579 82 q 347 -11 444 -11 q 163 44 232 -11 q 72 199 93 100 q 63 278 65 236 q 61 389 61 319 q 68 499 61 461 q 154 660 82 600 q 338 721 226 721 q 533 653 458 721 q 615 474 607 585 m 339 582 q 263 555 293 582 q 226 482 233 528 q 222 413 222 451 q 229 406 222 406 l 450 406 q 457 413 457 406 q 451 481 454 460 q 415 554 446 526 q 339 582 385 582 m 269 799 q 257 804 260 799 q 258 818 254 810 l 338 961 q 358 972 344 972 l 463 972 q 476 966 472 972 q 474 951 479 960 l 375 810 q 356 799 368 799 l 269 799 z "},"ě":{"ha":671,"x_min":61,"x_max":619,"o":"m 615 474 q 619 368 619 428 l 618 308 q 601 292 618 292 l 229 292 q 222 285 222 292 q 228 228 225 246 q 267 154 235 182 q 347 126 299 126 q 417 147 389 128 q 461 201 446 167 q 482 213 468 217 l 596 189 q 607 168 613 183 q 512 35 579 82 q 347 -11 444 -11 q 163 44 232 -11 q 72 199 93 100 q 63 278 65 236 q 61 389 61 319 q 68 499 61 461 q 154 660 82 600 q 338 721 226 721 q 533 653 458 721 q 615 474 607 585 m 339 582 q 263 555 293 582 q 226 482 233 528 q 222 413 222 451 q 229 406 222 406 l 450 406 q 457 413 457 406 q 451 481 454 460 q 415 554 446 526 q 339 582 385 582 z "},"ȩ":{"ha":671,"x_min":61,"x_max":619,"o":"m 615 474 q 619 368 619 428 l 618 308 q 601 292 618 292 l 229 292 q 222 285 222 292 q 228 228 225 246 q 267 154 235 182 q 347 126 299 126 q 417 147 389 128 q 461 201 446 167 q 482 213 468 217 l 596 189 q 607 168 613 183 q 534 53 583 99 q 413 -6 485 8 q 410 -14 404 -8 q 464 -132 464 -69 q 460 -167 464 -150 q 415 -233 449 -212 q 338 -253 382 -253 q 272 -243 304 -253 q 261 -222 260 -237 l 268 -171 q 289 -158 269 -154 q 308 -161 303 -161 q 356 -122 346 -161 q 357 -110 357 -118 q 299 -11 357 -65 q 290 -8 293 -8 q 145 59 200 6 q 72 199 90 113 q 63 278 65 236 q 61 389 61 319 q 68 499 61 461 q 154 660 82 600 q 338 721 226 721 q 533 653 458 721 q 615 474 607 585 m 339 582 q 263 555 293 582 q 226 482 233 528 q 222 413 222 451 q 229 406 222 406 l 450 406 q 457 413 457 406 q 451 481 454 460 q 415 554 446 526 q 339 582 385 582 z "},"ê":{"ha":671,"x_min":61,"x_max":619,"o":"m 615 474 q 619 368 619 428 l 618 308 q 601 292 618 292 l 229 292 q 222 285 222 292 q 228 228 225 246 q 267 154 235 182 q 347 126 299 126 q 417 147 389 128 q 461 201 446 167 q 482 213 468 217 l 596 189 q 607 168 613 183 q 512 35 579 82 q 347 -11 444 -11 q 163 44 232 -11 q 72 199 93 100 q 63 278 65 236 q 61 389 61 319 q 68 499 61 461 q 154 660 82 600 q 338 721 226 721 q 533 653 458 721 q 615 474 607 585 m 339 582 q 263 555 293 582 q 226 482 233 528 q 222 413 222 451 q 229 406 222 406 l 450 406 q 457 413 457 406 q 451 481 454 460 q 415 554 446 526 q 339 582 385 582 m 156 797 q 143 803 146 797 q 146 818 140 810 l 240 961 q 260 972 247 972 l 406 972 q 425 961 418 972 l 524 818 q 526 808 526 814 q 513 797 526 797 l 414 797 q 394 808 400 797 l 339 899 q 333 903 336 903 q 329 899 331 903 l 274 808 q 254 797 268 797 l 156 797 z "},"ế":{"ha":671,"x_min":61,"x_max":744,"o":"m 615 474 q 619 368 619 428 l 618 308 q 601 292 618 292 l 229 292 q 222 285 222 292 q 228 228 225 246 q 267 154 235 182 q 347 126 299 126 q 417 147 389 128 q 461 201 446 167 q 482 213 468 217 l 596 189 q 607 168 613 183 q 512 35 579 82 q 347 -11 444 -11 q 163 44 232 -11 q 72 199 93 100 q 63 278 65 236 q 61 389 61 319 q 68 499 61 461 q 154 660 82 600 q 338 721 226 721 q 533 653 458 721 q 615 474 607 585 m 339 582 q 263 555 293 582 q 226 482 233 528 q 222 413 222 451 q 229 406 222 406 l 450 406 q 457 413 457 406 q 451 481 454 460 q 415 554 446 526 q 339 582 385 582 z "},"ệ":{"ha":671,"x_min":61,"x_max":619,"o":"m 615 474 q 619 368 619 428 l 618 308 q 601 292 618 292 l 229 292 q 222 285 222 292 q 228 228 225 246 q 267 154 235 182 q 347 126 299 126 q 417 147 389 128 q 461 201 446 167 q 482 213 468 217 l 596 189 q 607 168 613 183 q 512 35 579 82 q 347 -11 444 -11 q 163 44 232 -11 q 72 199 93 100 q 63 278 65 236 q 61 389 61 319 q 68 499 61 461 q 154 660 82 600 q 338 721 226 721 q 533 653 458 721 q 615 474 607 585 m 339 582 q 263 555 293 582 q 226 482 233 528 q 222 413 222 451 q 229 406 222 406 l 450 406 q 457 413 457 406 q 451 481 454 460 q 415 554 446 526 q 339 582 385 582 m 343 -304 q 275 -277 301 -304 q 249 -210 249 -250 q 275 -143 249 -169 q 343 -117 301 -117 q 410 -143 383 -117 q 436 -210 436 -169 q 410 -277 436 -250 q 343 -304 383 -304 m 156 797 q 143 803 146 797 q 146 818 140 810 l 240 961 q 260 972 247 972 l 406 972 q 425 961 418 972 l 524 818 q 526 808 526 814 q 513 797 526 797 l 414 797 q 394 808 400 797 l 339 899 q 333 903 336 903 q 329 899 331 903 l 274 808 q 254 797 268 797 l 156 797 z "},"ề":{"ha":671,"x_min":61,"x_max":619,"o":"m 615 474 q 619 368 619 428 l 618 308 q 601 292 618 292 l 229 292 q 222 285 222 292 q 228 228 225 246 q 267 154 235 182 q 347 126 299 126 q 417 147 389 128 q 461 201 446 167 q 482 213 468 217 l 596 189 q 607 168 613 183 q 512 35 579 82 q 347 -11 444 -11 q 163 44 232 -11 q 72 199 93 100 q 63 278 65 236 q 61 389 61 319 q 68 499 61 461 q 154 660 82 600 q 338 721 226 721 q 533 653 458 721 q 615 474 607 585 m 339 582 q 263 555 293 582 q 226 482 233 528 q 222 413 222 451 q 229 406 222 406 l 450 406 q 457 413 457 406 q 451 481 454 460 q 415 554 446 526 q 339 582 385 582 z "},"ể":{"ha":671,"x_min":61,"x_max":664,"o":"m 615 474 q 619 368 619 428 l 618 308 q 601 292 618 292 l 229 292 q 222 285 222 292 q 228 228 225 246 q 267 154 235 182 q 347 126 299 126 q 417 147 389 128 q 461 201 446 167 q 482 213 468 217 l 596 189 q 607 168 613 183 q 512 35 579 82 q 347 -11 444 -11 q 163 44 232 -11 q 72 199 93 100 q 63 278 65 236 q 61 389 61 319 q 68 499 61 461 q 154 660 82 600 q 338 721 226 721 q 533 653 458 721 q 615 474 607 585 m 339 582 q 263 555 293 582 q 226 482 233 528 q 222 413 222 451 q 229 406 222 406 l 450 406 q 457 413 457 406 q 451 481 454 460 q 415 554 446 526 q 339 582 385 582 m 517 939 q 505 947 508 942 q 506 961 501 953 q 550 1026 519 996 q 572 1054 565 1043 q 578 1083 578 1065 q 565 1110 578 1099 q 533 1122 551 1122 q 500 1113 514 1122 q 468 1081 486 1104 q 454 1072 463 1072 q 443 1076 447 1072 l 408 1101 q 401 1114 401 1108 q 406 1125 401 1119 q 463 1183 433 1165 q 538 1200 492 1200 q 629 1168 594 1200 q 664 1083 664 1136 q 651 1034 664 1054 q 613 986 639 1014 q 576 942 588 961 q 556 932 568 931 l 517 939 m 156 797 q 143 803 146 797 q 146 818 140 810 l 240 961 q 260 972 247 972 l 406 972 q 425 961 418 972 l 524 818 q 526 808 526 814 q 513 797 526 797 l 414 797 q 394 808 400 797 l 339 899 q 333 903 336 903 q 329 899 331 903 l 274 808 q 254 797 268 797 l 156 797 z "},"ễ":{"ha":671,"x_min":61,"x_max":619,"o":"m 615 474 q 619 368 619 428 l 618 308 q 601 292 618 292 l 229 292 q 222 285 222 292 q 228 228 225 246 q 267 154 235 182 q 347 126 299 126 q 417 147 389 128 q 461 201 446 167 q 482 213 468 217 l 596 189 q 607 168 613 183 q 512 35 579 82 q 347 -11 444 -11 q 163 44 232 -11 q 72 199 93 100 q 63 278 65 236 q 61 389 61 319 q 68 499 61 461 q 154 660 82 600 q 338 721 226 721 q 533 653 458 721 q 615 474 607 585 m 339 582 q 263 555 293 582 q 226 482 233 528 q 222 413 222 451 q 229 406 222 406 l 450 406 q 457 413 457 406 q 451 481 454 460 q 415 554 446 526 q 339 582 385 582 z "},"ë":{"ha":671,"x_min":61,"x_max":619,"o":"m 615 474 q 619 368 619 428 l 618 308 q 601 292 618 292 l 229 292 q 222 285 222 292 q 228 228 225 246 q 267 154 235 182 q 347 126 299 126 q 417 147 389 128 q 461 201 446 167 q 482 213 468 217 l 596 189 q 607 168 613 183 q 512 35 579 82 q 347 -11 444 -11 q 163 44 232 -11 q 72 199 93 100 q 63 278 65 236 q 61 389 61 319 q 68 499 61 461 q 154 660 82 600 q 338 721 226 721 q 533 653 458 721 q 615 474 607 585 m 339 582 q 263 555 293 582 q 226 482 233 528 q 222 413 222 451 q 229 406 222 406 l 450 406 q 457 413 457 406 q 451 481 454 460 q 415 554 446 526 q 339 582 385 582 z "},"ė":{"ha":671,"x_min":61,"x_max":619,"o":"m 615 474 q 619 368 619 428 l 618 308 q 601 292 618 292 l 229 292 q 222 285 222 292 q 228 228 225 246 q 267 154 235 182 q 347 126 299 126 q 417 147 389 128 q 461 201 446 167 q 482 213 468 217 l 596 189 q 607 168 613 183 q 512 35 579 82 q 347 -11 444 -11 q 163 44 232 -11 q 72 199 93 100 q 63 278 65 236 q 61 389 61 319 q 68 499 61 461 q 154 660 82 600 q 338 721 226 721 q 533 653 458 721 q 615 474 607 585 m 339 582 q 263 555 293 582 q 226 482 233 528 q 222 413 222 451 q 229 406 222 406 l 450 406 q 457 413 457 406 q 451 481 454 460 q 415 554 446 526 q 339 582 385 582 m 336 807 q 265 835 293 807 q 238 906 238 863 q 265 976 238 949 q 336 1004 293 1004 q 406 976 379 1004 q 433 906 433 949 q 406 835 433 863 q 336 807 378 807 z "},"ẹ":{"ha":671,"x_min":61,"x_max":619,"o":"m 615 474 q 619 368 619 428 l 618 308 q 601 292 618 292 l 229 292 q 222 285 222 292 q 228 228 225 246 q 267 154 235 182 q 347 126 299 126 q 417 147 389 128 q 461 201 446 167 q 482 213 468 217 l 596 189 q 607 168 613 183 q 512 35 579 82 q 347 -11 444 -11 q 163 44 232 -11 q 72 199 93 100 q 63 278 65 236 q 61 389 61 319 q 68 499 61 461 q 154 660 82 600 q 338 721 226 721 q 533 653 458 721 q 615 474 607 585 m 339 582 q 263 555 293 582 q 226 482 233 528 q 222 413 222 451 q 229 406 222 406 l 450 406 q 457 413 457 406 q 451 481 454 460 q 415 554 446 526 q 339 582 385 582 m 343 -304 q 275 -277 301 -304 q 249 -210 249 -250 q 275 -143 249 -169 q 343 -117 301 -117 q 410 -143 383 -117 q 436 -210 436 -169 q 410 -277 436 -250 q 343 -304 383 -304 z "},"è":{"ha":671,"x_min":61,"x_max":619,"o":"m 615 474 q 619 368 619 428 l 618 308 q 601 292 618 292 l 229 292 q 222 285 222 292 q 228 228 225 246 q 267 154 235 182 q 347 126 299 126 q 417 147 389 128 q 461 201 446 167 q 482 213 468 217 l 596 189 q 607 168 613 183 q 512 35 579 82 q 347 -11 444 -11 q 163 44 232 -11 q 72 199 93 100 q 63 278 65 236 q 61 389 61 319 q 68 499 61 461 q 154 660 82 600 q 338 721 226 721 q 533 653 458 721 q 615 474 607 585 m 339 582 q 263 555 293 582 q 226 482 233 528 q 222 413 222 451 q 229 406 222 406 l 450 406 q 457 413 457 406 q 451 481 454 460 q 415 554 446 526 q 339 582 385 582 m 389 818 q 392 810 392 813 q 378 799 392 799 l 292 799 q 272 810 279 799 l 172 951 q 169 961 169 956 q 183 972 169 972 l 289 972 q 310 961 303 972 l 389 818 z "},"ẻ":{"ha":671,"x_min":61,"x_max":619,"o":"m 615 474 q 619 368 619 428 l 618 308 q 601 292 618 292 l 229 292 q 222 285 222 292 q 228 228 225 246 q 267 154 235 182 q 347 126 299 126 q 417 147 389 128 q 461 201 446 167 q 482 213 468 217 l 596 189 q 607 168 613 183 q 512 35 579 82 q 347 -11 444 -11 q 163 44 232 -11 q 72 199 93 100 q 63 278 65 236 q 61 389 61 319 q 68 499 61 461 q 154 660 82 600 q 338 721 226 721 q 533 653 458 721 q 615 474 607 585 m 339 582 q 263 555 293 582 q 226 482 233 528 q 222 413 222 451 q 229 406 222 406 l 450 406 q 457 413 457 406 q 451 481 454 460 q 415 554 446 526 q 339 582 385 582 m 321 772 q 310 793 301 776 q 356 861 325 831 q 378 888 371 876 q 385 919 385 900 q 371 947 385 935 q 339 958 357 958 q 304 949 318 958 q 271 915 290 940 q 258 907 267 907 q 247 911 251 907 l 211 938 q 204 950 204 942 q 207 961 204 957 q 266 1021 236 1003 q 343 1039 296 1039 q 437 1006 401 1039 q 472 919 472 974 q 459 867 472 888 q 419 819 446 846 q 383 775 394 794 q 363 764 376 763 l 321 772 z "},"ē":{"ha":671,"x_min":61,"x_max":619,"o":"m 615 474 q 619 368 619 428 l 618 308 q 601 292 618 292 l 229 292 q 222 285 222 292 q 228 228 225 246 q 267 154 235 182 q 347 126 299 126 q 417 147 389 128 q 461 201 446 167 q 482 213 468 217 l 596 189 q 607 168 613 183 q 512 35 579 82 q 347 -11 444 -11 q 163 44 232 -11 q 72 199 93 100 q 63 278 65 236 q 61 389 61 319 q 68 499 61 461 q 154 660 82 600 q 338 721 226 721 q 533 653 458 721 q 615 474 607 585 m 339 582 q 263 555 293 582 q 226 482 233 528 q 222 413 222 451 q 229 406 222 406 l 450 406 q 457 413 457 406 q 451 481 454 460 q 415 554 446 526 q 339 582 385 582 m 178 838 q 166 842 171 838 q 161 854 161 847 l 161 932 q 166 944 161 939 q 178 949 171 949 l 490 949 q 502 944 497 949 q 507 932 507 939 l 507 854 q 502 842 507 847 q 490 838 497 838 l 178 838 z "},"ę":{"ha":671,"x_min":61,"x_max":619,"o":"m 615 474 q 619 368 619 428 l 618 308 q 601 292 618 292 l 229 292 q 222 285 222 292 q 228 228 225 246 q 267 154 235 182 q 347 126 299 126 q 417 147 389 128 q 461 201 446 167 q 482 213 468 217 l 596 189 q 607 168 613 183 q 528 49 582 94 q 397 -8 475 3 q 389 -11 394 -8 q 329 -114 329 -67 q 344 -152 329 -139 q 379 -165 358 -165 q 397 -162 386 -165 l 406 -161 q 418 -175 417 -161 l 425 -226 l 425 -231 q 413 -246 425 -242 q 347 -256 381 -256 q 258 -228 294 -256 q 222 -137 222 -200 q 281 -14 222 -72 q 278 -6 286 -8 q 141 63 193 10 q 72 199 89 115 q 63 278 65 236 q 61 389 61 319 q 68 499 61 461 q 154 660 82 600 q 338 721 226 721 q 533 653 458 721 q 615 474 607 585 m 339 582 q 263 555 293 582 q 226 482 233 528 q 222 413 222 451 q 229 406 222 406 l 450 406 q 457 413 457 406 q 451 481 454 460 q 415 554 446 526 q 339 582 385 582 z "},"ẽ":{"ha":671,"x_min":61,"x_max":619,"o":"m 615 474 q 619 368 619 428 l 618 308 q 601 292 618 292 l 229 292 q 222 285 222 292 q 228 228 225 246 q 267 154 235 182 q 347 126 299 126 q 417 147 389 128 q 461 201 446 167 q 482 213 468 217 l 596 189 q 607 168 613 183 q 512 35 579 82 q 347 -11 444 -11 q 163 44 232 -11 q 72 199 93 100 q 63 278 65 236 q 61 389 61 319 q 68 499 61 461 q 154 660 82 600 q 338 721 226 721 q 533 653 458 721 q 615 474 607 585 m 339 582 q 263 555 293 582 q 226 482 233 528 q 222 413 222 451 q 229 406 222 406 l 450 406 q 457 413 457 406 q 451 481 454 460 q 415 554 446 526 q 339 582 385 582 m 429 815 q 388 822 406 815 q 346 843 369 829 q 324 854 338 847 q 300 864 310 861 q 279 867 290 867 q 214 836 240 867 q 192 833 203 822 l 146 875 q 142 899 135 886 q 196 958 163 938 q 269 979 229 979 q 315 972 296 979 q 364 947 335 964 q 383 937 369 944 q 407 926 396 929 q 429 922 418 922 q 490 954 467 922 q 504 964 497 964 q 514 958 508 964 l 557 917 q 563 904 563 911 q 560 893 563 897 q 506 835 540 856 q 429 815 471 815 z "},"ə":{"ha":671,"x_min":51,"x_max":613,"o":"m 610 354 q 603 213 613 265 q 516 50 589 111 q 333 -11 443 -11 q 138 57 213 -11 q 56 236 64 125 q 51 343 51 282 l 53 403 q 69 419 53 419 l 442 419 q 449 426 449 419 q 443 482 446 464 q 404 556 436 529 q 324 583 372 583 q 254 563 283 583 q 210 508 225 543 q 189 497 203 493 l 75 521 q 64 542 58 526 q 159 674 92 628 q 324 721 226 721 q 508 666 439 721 q 599 513 578 611 q 610 354 610 457 m 332 128 q 408 156 378 128 q 444 229 438 183 q 449 297 449 261 q 442 304 449 304 l 221 304 q 214 297 214 304 q 219 231 217 253 q 256 156 225 185 q 332 128 286 128 z "},"ʒ":{"ha":649,"x_min":60,"x_max":596,"o":"m 331 369 q 328 364 328 367 q 333 361 329 361 q 530 251 464 338 q 596 51 596 165 q 547 -125 596 -50 q 414 -240 497 -200 q 229 -279 331 -279 q 75 -256 154 -279 q 63 -236 63 -251 l 67 -128 q 72 -116 67 -119 q 86 -115 78 -112 q 217 -136 158 -136 q 374 -89 313 -136 q 435 56 435 -42 q 387 192 435 136 q 249 249 339 249 q 147 232 203 249 q 139 231 144 231 q 125 240 129 231 l 86 314 q 83 322 83 319 q 90 336 83 329 l 332 556 q 334 561 335 558 q 329 564 333 564 l 76 564 q 65 569 69 564 q 60 581 60 574 l 60 693 q 65 705 60 700 q 76 710 69 710 l 528 710 q 540 705 535 710 q 544 693 544 700 l 544 581 q 536 560 544 568 l 331 369 z "},"ǯ":{"ha":649,"x_min":60,"x_max":596,"o":"m 331 369 q 328 364 328 367 q 333 361 329 361 q 530 251 464 338 q 596 51 596 165 q 547 -125 596 -50 q 414 -240 497 -200 q 229 -279 331 -279 q 75 -256 154 -279 q 63 -236 63 -251 l 67 -128 q 72 -116 67 -119 q 86 -115 78 -112 q 217 -136 158 -136 q 374 -89 313 -136 q 435 56 435 -42 q 387 192 435 136 q 249 249 339 249 q 147 232 203 249 q 139 231 144 231 q 125 240 129 231 l 86 314 q 83 322 83 319 q 90 336 83 329 l 332 556 q 334 561 335 558 q 329 564 333 564 l 76 564 q 65 569 69 564 q 60 581 60 574 l 60 693 q 65 705 60 700 q 76 710 69 710 l 528 710 q 540 705 535 710 q 544 693 544 700 l 544 581 q 536 560 544 568 l 331 369 z "},"f":{"ha":463,"x_min":35,"x_max":421,"o":"m 404 710 q 416 705 411 710 q 421 693 421 700 l 421 599 q 416 587 421 592 q 404 582 411 582 l 292 582 q 285 575 285 582 l 285 17 q 280 5 285 10 q 268 0 275 0 l 142 0 q 130 5 135 0 q 125 17 125 10 l 125 575 q 118 582 125 582 l 51 582 q 40 587 44 582 q 35 599 35 592 l 35 693 q 40 705 35 700 q 51 710 44 710 l 118 710 q 125 717 125 710 l 125 747 q 149 884 125 835 q 227 955 174 933 q 371 975 281 976 l 400 975 q 412 970 407 975 q 417 958 417 965 l 417 863 q 412 851 417 856 q 400 846 407 846 l 378 846 q 306 820 326 844 q 285 738 285 796 l 285 717 q 292 710 285 710 l 404 710 z "},"g":{"ha":681,"x_min":58,"x_max":613,"o":"m 451 693 q 456 705 451 700 q 468 710 461 710 l 596 710 q 608 705 603 710 q 613 693 613 700 l 613 38 q 525 -202 613 -124 q 272 -281 438 -281 q 211 -278 253 -281 q 194 -260 194 -276 l 199 -149 q 217 -133 199 -132 q 258 -135 231 -135 q 407 -92 363 -135 q 451 47 451 -49 l 451 60 q 449 65 451 64 q 443 63 446 67 q 297 1 390 1 q 144 55 207 1 q 67 207 82 108 q 58 357 58 249 q 69 515 58 472 q 142 665 83 610 q 292 721 200 721 q 443 658 388 721 q 449 656 446 656 q 451 661 451 657 l 451 693 m 447 236 q 451 357 451 289 q 446 482 451 436 q 411 554 440 526 q 338 582 382 582 q 264 554 293 582 q 228 482 235 526 q 219 357 219 431 q 226 236 219 289 q 264 164 233 192 q 339 136 294 136 q 413 164 385 136 q 447 236 442 192 z "},"ğ":{"ha":681,"x_min":58,"x_max":613,"o":"m 451 693 q 456 705 451 700 q 468 710 461 710 l 596 710 q 608 705 603 710 q 613 693 613 700 l 613 38 q 525 -202 613 -124 q 272 -281 438 -281 q 211 -278 253 -281 q 194 -260 194 -276 l 199 -149 q 217 -133 199 -132 q 258 -135 231 -135 q 407 -92 363 -135 q 451 47 451 -49 l 451 60 q 449 65 451 64 q 443 63 446 67 q 297 1 390 1 q 144 55 207 1 q 67 207 82 108 q 58 357 58 249 q 69 515 58 472 q 142 665 83 610 q 292 721 200 721 q 443 658 388 721 q 449 656 446 656 q 451 661 451 657 l 451 693 m 447 236 q 451 357 451 289 q 446 482 451 436 q 411 554 440 526 q 338 582 382 582 q 264 554 293 582 q 228 482 235 526 q 219 357 219 431 q 226 236 219 289 q 264 164 233 192 q 339 136 294 136 q 413 164 385 136 q 447 236 442 192 m 349 772 q 226 813 275 772 q 169 919 176 854 l 169 922 q 185 936 169 936 l 249 936 q 265 921 263 936 q 294 871 271 890 q 349 851 317 851 q 403 871 381 851 q 432 921 426 890 q 449 936 435 936 l 513 936 q 529 921 529 936 q 473 814 522 856 q 349 772 424 772 z "},"ǧ":{"ha":681,"x_min":58,"x_max":613,"o":"m 451 693 q 456 705 451 700 q 468 710 461 710 l 596 710 q 608 705 603 710 q 613 693 613 700 l 613 38 q 525 -202 613 -124 q 272 -281 438 -281 q 211 -278 253 -281 q 194 -260 194 -276 l 199 -149 q 217 -133 199 -132 q 258 -135 231 -135 q 407 -92 363 -135 q 451 47 451 -49 l 451 60 q 449 65 451 64 q 443 63 446 67 q 297 1 390 1 q 144 55 207 1 q 67 207 82 108 q 58 357 58 249 q 69 515 58 472 q 142 665 83 610 q 292 721 200 721 q 443 658 388 721 q 449 656 446 656 q 451 661 451 657 l 451 693 m 447 236 q 451 357 451 289 q 446 482 451 436 q 411 554 440 526 q 338 582 382 582 q 264 554 293 582 q 228 482 235 526 q 219 357 219 431 q 226 236 219 289 q 264 164 233 192 q 339 136 294 136 q 413 164 385 136 q 447 236 442 192 z "},"ĝ":{"ha":681,"x_min":58,"x_max":613,"o":"m 451 693 q 456 705 451 700 q 468 710 461 710 l 596 710 q 608 705 603 710 q 613 693 613 700 l 613 38 q 525 -202 613 -124 q 272 -281 438 -281 q 211 -278 253 -281 q 194 -260 194 -276 l 199 -149 q 217 -133 199 -132 q 258 -135 231 -135 q 407 -92 363 -135 q 451 47 451 -49 l 451 60 q 449 65 451 64 q 443 63 446 67 q 297 1 390 1 q 144 55 207 1 q 67 207 82 108 q 58 357 58 249 q 69 515 58 472 q 142 665 83 610 q 292 721 200 721 q 443 658 388 721 q 449 656 446 656 q 451 661 451 657 l 451 693 m 447 236 q 451 357 451 289 q 446 482 451 436 q 411 554 440 526 q 338 582 382 582 q 264 554 293 582 q 228 482 235 526 q 219 357 219 431 q 226 236 219 289 q 264 164 233 192 q 339 136 294 136 q 413 164 385 136 q 447 236 442 192 m 169 797 q 157 803 160 797 q 160 818 154 810 l 254 961 q 274 972 261 972 l 419 972 q 439 961 432 972 l 538 818 q 540 808 540 814 q 526 797 540 797 l 428 797 q 408 808 414 797 l 353 899 q 347 903 350 903 q 343 899 344 903 l 288 808 q 268 797 282 797 l 169 797 z "},"ġ":{"ha":681,"x_min":58,"x_max":613,"o":"m 451 693 q 456 705 451 700 q 468 710 461 710 l 596 710 q 608 705 603 710 q 613 693 613 700 l 613 38 q 525 -202 613 -124 q 272 -281 438 -281 q 211 -278 253 -281 q 194 -260 194 -276 l 199 -149 q 217 -133 199 -132 q 258 -135 231 -135 q 407 -92 363 -135 q 451 47 451 -49 l 451 60 q 449 65 451 64 q 443 63 446 67 q 297 1 390 1 q 144 55 207 1 q 67 207 82 108 q 58 357 58 249 q 69 515 58 472 q 142 665 83 610 q 292 721 200 721 q 443 658 388 721 q 449 656 446 656 q 451 661 451 657 l 451 693 m 447 236 q 451 357 451 289 q 446 482 451 436 q 411 554 440 526 q 338 582 382 582 q 264 554 293 582 q 228 482 235 526 q 219 357 219 431 q 226 236 219 289 q 264 164 233 192 q 339 136 294 136 q 413 164 385 136 q 447 236 442 192 m 349 807 q 278 835 306 807 q 250 906 250 863 q 278 976 250 949 q 349 1004 306 1004 q 419 976 392 1004 q 446 906 446 949 q 418 835 446 863 q 349 807 390 807 z "},"ǥ":{"ha":704,"x_min":58,"x_max":700,"o":"m 683 407 q 695 402 690 407 q 700 390 700 397 l 700 324 q 695 312 700 317 q 683 307 690 307 l 619 307 q 613 300 613 307 l 613 38 q 525 -202 613 -124 q 272 -281 438 -281 q 211 -278 253 -281 q 194 -260 194 -276 l 199 -149 q 217 -133 199 -132 q 258 -135 231 -135 q 407 -92 363 -135 q 451 47 451 -49 l 451 60 q 449 65 451 64 q 443 63 446 67 q 297 1 390 1 q 144 55 207 1 q 67 207 82 108 q 58 357 58 249 q 69 515 58 472 q 142 665 83 610 q 292 721 200 721 q 443 658 388 721 q 449 656 446 656 q 451 661 451 657 l 451 693 q 456 705 451 700 q 468 710 461 710 l 596 710 q 608 705 603 710 q 613 693 613 700 l 613 414 q 619 407 613 407 l 683 407 m 339 136 q 413 164 385 136 q 447 236 442 192 l 451 300 q 444 307 451 307 l 336 307 q 324 312 329 307 q 319 324 319 317 l 319 390 q 324 402 319 397 q 336 407 329 407 l 444 407 q 451 414 451 407 q 446 482 449 454 q 411 554 440 526 q 338 582 382 582 q 264 554 293 582 q 228 482 235 526 q 219 357 219 431 q 226 236 219 289 q 264 164 233 192 q 339 136 294 136 z "},"h":{"ha":682,"x_min":75,"x_max":613,"o":"m 397 721 q 556 657 499 721 q 613 481 613 593 l 613 17 q 608 5 613 10 q 596 0 603 0 l 468 0 q 456 5 461 0 q 451 17 451 10 l 451 458 q 423 549 451 515 q 346 582 394 582 q 266 548 296 582 q 236 457 236 514 l 236 17 q 231 5 236 10 q 219 0 226 0 l 92 0 q 80 5 85 0 q 75 17 75 10 l 75 956 q 80 967 75 963 q 92 972 85 972 l 219 972 q 231 967 226 972 q 236 956 236 963 l 236 657 q 239 651 236 653 q 244 654 242 650 q 397 721 300 721 z "},"ħ":{"ha":682,"x_min":-6,"x_max":613,"o":"m 397 721 q 556 657 499 721 q 613 481 613 593 l 613 17 q 608 5 613 10 q 596 0 603 0 l 468 0 q 456 5 461 0 q 451 17 451 10 l 451 458 q 423 549 451 515 q 346 582 394 582 q 266 548 296 582 q 236 457 236 514 l 236 17 q 231 5 236 10 q 219 0 226 0 l 92 0 q 80 5 85 0 q 75 17 75 10 l 75 758 q 68 765 75 765 l 11 765 q -1 770 4 765 q -6 782 -6 775 l -6 849 q -1 860 -6 856 q 11 865 4 865 l 68 865 q 75 872 75 865 l 75 956 q 80 967 75 963 q 92 972 85 972 l 219 972 q 231 967 226 972 q 236 956 236 963 l 236 872 q 243 865 236 865 l 408 865 q 420 860 415 865 q 425 849 425 856 l 425 782 q 420 770 425 775 q 408 765 415 765 l 243 765 q 236 758 236 765 l 236 657 q 239 651 236 653 q 244 654 242 650 q 397 721 300 721 z "},"ȟ":{"ha":682,"x_min":75,"x_max":613,"o":"m 397 721 q 556 657 499 721 q 613 481 613 593 l 613 17 q 608 5 613 10 q 596 0 603 0 l 468 0 q 456 5 461 0 q 451 17 451 10 l 451 458 q 423 549 451 515 q 346 582 394 582 q 266 548 296 582 q 236 457 236 514 l 236 17 q 231 5 236 10 q 219 0 226 0 l 92 0 q 80 5 85 0 q 75 17 75 10 l 75 956 q 80 967 75 963 q 92 972 85 972 l 219 972 q 231 967 226 972 q 236 956 236 963 l 236 657 q 239 651 236 653 q 244 654 242 650 q 397 721 300 721 z "},"ĥ":{"ha":682,"x_min":75,"x_max":613,"o":"m 397 721 q 556 657 499 721 q 613 481 613 593 l 613 17 q 608 5 613 10 q 596 0 603 0 l 468 0 q 456 5 461 0 q 451 17 451 10 l 451 458 q 423 549 451 515 q 346 582 394 582 q 266 548 296 582 q 236 457 236 514 l 236 17 q 231 5 236 10 q 219 0 226 0 l 92 0 q 80 5 85 0 q 75 17 75 10 l 75 956 q 80 967 75 963 q 92 972 85 972 l 219 972 q 231 967 226 972 q 236 956 236 963 l 236 657 q 239 651 236 653 q 244 654 242 650 q 397 721 300 721 m 174 1042 q 161 1048 164 1042 q 164 1063 158 1054 l 258 1206 q 278 1217 265 1217 l 424 1217 q 443 1206 436 1217 l 542 1063 q 544 1053 544 1058 q 531 1042 544 1042 l 432 1042 q 413 1053 418 1042 l 357 1143 q 351 1147 354 1147 q 347 1143 349 1147 l 292 1053 q 272 1042 286 1042 l 174 1042 z "},"i":{"ha":326,"x_min":65,"x_max":261,"o":"m 163 807 q 92 835 119 807 q 65 906 65 863 q 92 976 65 949 q 163 1004 119 1004 q 234 977 207 1004 q 261 906 261 950 q 233 835 261 863 q 163 807 206 807 m 99 0 q 87 5 92 0 q 82 17 82 10 l 82 694 q 87 706 82 701 q 99 711 92 711 l 226 711 q 238 706 233 711 q 243 694 243 701 l 243 17 q 238 5 243 10 q 226 0 233 0 l 99 0 z "},"ı":{"ha":285,"x_min":63,"x_max":224,"o":"m 79 0 q 67 5 72 0 q 63 17 63 10 l 63 693 q 67 705 63 700 q 79 710 72 710 l 207 710 q 219 705 214 710 q 224 693 224 700 l 224 17 q 219 5 224 10 q 207 0 214 0 l 79 0 z "},"í":{"ha":285,"x_min":61,"x_max":286,"o":"m 79 0 q 67 5 72 0 q 63 17 63 10 l 63 693 q 67 705 63 700 q 79 710 72 710 l 207 710 q 219 705 214 710 q 224 693 224 700 l 224 17 q 219 5 224 10 q 207 0 214 0 l 79 0 m 76 799 q 64 804 67 799 q 65 818 61 810 l 144 961 q 165 972 151 972 l 269 972 q 283 966 279 972 q 281 951 286 960 l 182 810 q 163 799 175 799 l 76 799 z "},"ĭ":{"ha":285,"x_min":-37,"x_max":322,"o":"m 79 0 q 67 5 72 0 q 63 17 63 10 l 63 693 q 67 705 63 700 q 79 710 72 710 l 207 710 q 219 705 214 710 q 224 693 224 700 l 224 17 q 219 5 224 10 q 207 0 214 0 l 79 0 m 142 792 q 19 833 68 792 q -37 938 -31 874 l -37 940 q -22 954 -37 954 l 38 954 q 54 939 51 954 q 85 888 61 907 q 142 869 108 869 q 199 889 175 869 q 229 939 224 908 q 246 954 232 954 l 306 954 q 322 939 322 954 q 265 833 315 875 q 142 792 215 792 z "},"î":{"ha":285,"x_min":-51,"x_max":335,"o":"m 79 0 q 67 5 72 0 q 63 17 63 10 l 63 693 q 67 705 63 700 q 79 710 72 710 l 207 710 q 219 705 214 710 q 224 693 224 700 l 224 17 q 219 5 224 10 q 207 0 214 0 l 79 0 m -36 797 q -49 803 -46 797 q -46 818 -51 810 l 49 961 q 68 972 56 972 l 214 972 q 233 961 226 972 l 332 818 q 335 808 335 814 q 321 797 335 797 l 222 797 q 203 808 208 797 l 147 899 q 142 903 144 903 q 138 899 139 903 l 82 808 q 63 797 76 797 l -36 797 z "},"ï":{"ha":285,"x_min":-82,"x_max":365,"o":"m 79 0 q 67 5 72 0 q 63 17 63 10 l 63 693 q 67 705 63 700 q 79 710 72 710 l 207 710 q 219 705 214 710 q 224 693 224 700 l 224 17 q 219 5 224 10 q 207 0 214 0 l 79 0 z "},"ị":{"ha":326,"x_min":65,"x_max":261,"o":"m 163 807 q 92 835 119 807 q 65 906 65 863 q 92 976 65 949 q 163 1004 119 1004 q 234 977 207 1004 q 261 906 261 950 q 233 835 261 863 q 163 807 206 807 m 99 0 q 87 5 92 0 q 82 17 82 10 l 82 694 q 87 706 82 701 q 99 711 92 711 l 226 711 q 238 706 233 711 q 243 694 243 701 l 243 17 q 238 5 243 10 q 226 0 233 0 l 99 0 m 164 -297 q 96 -270 122 -297 q 69 -203 69 -243 q 96 -136 69 -162 q 164 -110 122 -110 q 231 -136 204 -110 q 257 -203 257 -162 q 231 -270 257 -243 q 164 -297 204 -297 z "},"ì":{"ha":285,"x_min":-24,"x_max":224,"o":"m 79 0 q 67 5 72 0 q 63 17 63 10 l 63 693 q 67 705 63 700 q 79 710 72 710 l 207 710 q 219 705 214 710 q 224 693 224 700 l 224 17 q 219 5 224 10 q 207 0 214 0 l 79 0 m 196 818 q 199 810 199 813 q 185 799 199 799 l 99 799 q 79 810 86 799 l -21 951 q -24 961 -24 956 q -10 972 -24 972 l 96 972 q 117 961 110 972 l 196 818 z "},"ỉ":{"ha":285,"x_min":11,"x_max":279,"o":"m 79 0 q 67 5 72 0 q 63 17 63 10 l 63 693 q 67 705 63 700 q 79 710 72 710 l 207 710 q 219 705 214 710 q 224 693 224 700 l 224 17 q 219 5 224 10 q 207 0 214 0 l 79 0 m 128 772 q 117 793 108 776 q 163 861 132 831 q 185 888 178 876 q 192 919 192 900 q 178 947 192 935 q 146 958 164 958 q 111 949 125 958 q 78 915 97 940 q 65 907 74 907 q 54 911 58 907 l 18 938 q 11 950 11 942 q 14 961 11 957 q 73 1021 43 1003 q 150 1039 103 1039 q 244 1006 208 1039 q 279 919 279 974 q 266 867 279 888 q 226 819 253 846 q 190 775 201 794 q 169 764 183 763 l 128 772 z "},"ĳ":{"ha":638,"x_min":65,"x_max":574,"o":"m 163 807 q 92 835 119 807 q 65 906 65 863 q 92 976 65 949 q 163 1004 119 1004 q 234 977 207 1004 q 261 906 261 950 q 233 835 261 863 q 163 807 206 807 m 99 0 q 87 5 92 0 q 82 17 82 10 l 82 694 q 87 706 82 701 q 99 711 92 711 l 226 711 q 238 706 233 711 q 243 694 243 701 l 243 17 q 238 5 243 10 q 226 0 233 0 l 99 0 m 475 807 q 404 835 432 807 q 376 906 376 863 q 404 976 376 949 q 475 1004 432 1004 q 546 976 518 1004 q 574 906 574 949 q 545 835 574 863 q 475 807 517 807 m 265 -285 q 249 -268 249 -285 l 249 -164 q 271 -147 249 -147 q 367 -117 338 -147 q 396 -24 396 -86 l 394 693 q 399 705 394 700 q 411 710 404 710 l 539 710 q 551 705 546 710 q 556 693 556 700 l 556 -22 q 532 -174 556 -118 q 446 -258 508 -231 q 265 -285 383 -286 z "},"ī":{"ha":285,"x_min":-32,"x_max":314,"o":"m 79 0 q 67 5 72 0 q 63 17 63 10 l 63 693 q 67 705 63 700 q 79 710 72 710 l 207 710 q 219 705 214 710 q 224 693 224 700 l 224 17 q 219 5 224 10 q 207 0 214 0 l 79 0 m -15 813 q -27 817 -22 813 q -32 829 -32 822 l -32 907 q -27 919 -32 914 q -15 924 -22 924 l 297 924 q 309 919 304 924 q 314 907 314 914 l 314 829 q 309 817 314 822 q 297 813 304 813 l -15 813 z "},"į":{"ha":344,"x_min":71,"x_max":279,"o":"m 118 0 q 106 5 111 0 q 101 17 101 10 l 101 693 q 106 705 101 700 q 118 710 111 710 l 246 710 q 258 705 253 710 q 263 693 263 700 l 263 17 q 258 5 263 10 q 246 0 253 0 l 118 0 m 182 807 q 111 835 139 807 q 83 906 83 863 q 111 976 83 949 q 182 1004 139 1004 q 252 976 225 1004 q 279 906 279 949 q 251 835 279 863 q 182 807 224 807 m 274 -237 q 261 -254 274 -249 q 197 -264 232 -264 q 119 -244 153 -264 q 75 -178 86 -224 q 71 -144 71 -161 q 142 -8 71 -71 q 163 0 150 0 l 231 0 q 244 -8 244 0 q 238 -21 244 -14 q 178 -119 178 -74 q 192 -159 178 -146 q 226 -172 206 -172 q 246 -169 232 -172 l 254 -168 q 267 -182 265 -168 l 274 -233 l 274 -237 z "},"ĩ":{"ha":285,"x_min":-58,"x_max":369,"o":"m 79 0 q 67 5 72 0 q 63 17 63 10 l 63 693 q 67 705 63 700 q 79 710 72 710 l 207 710 q 219 705 214 710 q 224 693 224 700 l 224 17 q 219 5 224 10 q 207 0 214 0 l 79 0 m 236 815 q 194 822 213 815 q 153 843 176 829 q 131 854 144 847 q 107 864 117 861 q 86 867 97 867 q 21 836 47 867 q -1 833 10 822 l -47 875 q -51 899 -58 886 q 3 958 -31 938 q 76 979 36 979 q 122 972 103 979 q 171 947 142 964 q 190 937 176 944 q 214 926 203 929 q 236 922 225 922 q 297 954 274 922 q 311 964 304 964 q 321 958 315 964 l 364 917 q 369 904 369 911 q 367 893 369 897 q 313 835 347 856 q 236 815 278 815 z "},"j":{"ha":321,"x_min":-68,"x_max":257,"o":"m 158 807 q 88 835 115 807 q 60 906 60 863 q 88 976 60 949 q 158 1004 115 1004 q 229 976 201 1004 q 257 906 257 949 q 228 835 257 863 q 158 807 200 807 m -51 -285 q -68 -268 -68 -285 l -68 -164 q -46 -147 -68 -147 q 50 -117 21 -147 q 79 -24 79 -86 l 78 693 q 83 705 78 700 q 94 710 88 710 l 222 710 q 234 705 229 710 q 239 693 239 700 l 239 -22 q 215 -174 239 -118 q 129 -258 192 -231 q -51 -285 67 -286 z "},"ȷ":{"ha":322,"x_min":-68,"x_max":240,"o":"m -51 -285 q -68 -268 -68 -285 l -68 -164 q -46 -147 -68 -147 q 50 -117 21 -147 q 79 -24 79 -86 l 78 693 q 83 705 78 700 q 94 710 88 710 l 224 710 q 235 705 231 710 q 240 693 240 700 l 240 -22 q 217 -174 240 -118 q 130 -258 193 -231 q -51 -285 67 -286 z "},"ĵ":{"ha":322,"x_min":-68,"x_max":351,"o":"m -51 -285 q -68 -268 -68 -285 l -68 -164 q -46 -147 -68 -147 q 50 -117 21 -147 q 79 -24 79 -86 l 78 693 q 83 705 78 700 q 94 710 88 710 l 224 710 q 235 705 231 710 q 240 693 240 700 l 240 -22 q 217 -174 240 -118 q 130 -258 193 -231 q -51 -285 67 -286 m -19 797 q -32 803 -29 797 q -29 818 -35 810 l 65 961 q 85 972 72 972 l 231 972 q 250 961 243 972 l 349 818 q 351 808 351 814 q 338 797 351 797 l 239 797 q 219 808 225 797 l 164 899 q 158 903 161 903 q 154 899 156 903 l 99 808 q 79 797 93 797 l -19 797 z "},"k":{"ha":664,"x_min":75,"x_max":629,"o":"m 92 0 q 80 5 85 0 q 75 17 75 10 l 75 956 q 80 967 75 963 q 92 972 85 972 l 219 972 q 231 967 226 972 q 236 956 236 963 l 236 458 q 239 453 236 454 q 244 456 242 453 l 432 700 q 453 710 440 710 l 593 710 q 607 700 607 710 q 603 689 607 696 l 442 474 q 442 464 439 469 l 628 19 q 629 11 629 17 q 615 0 629 0 l 482 0 q 463 14 467 0 l 336 346 q 333 350 335 350 q 328 347 331 350 l 239 235 q 236 226 236 229 l 236 17 q 231 5 236 10 q 219 0 226 0 l 92 0 z "},"ǩ":{"ha":664,"x_min":75,"x_max":629,"o":"m 92 0 q 80 5 85 0 q 75 17 75 10 l 75 956 q 80 967 75 963 q 92 972 85 972 l 219 972 q 231 967 226 972 q 236 956 236 963 l 236 458 q 239 453 236 454 q 244 456 242 453 l 432 700 q 453 710 440 710 l 593 710 q 607 700 607 710 q 603 689 607 696 l 442 474 q 442 464 439 469 l 628 19 q 629 11 629 17 q 615 0 629 0 l 482 0 q 463 14 467 0 l 336 346 q 333 350 335 350 q 328 347 331 350 l 239 235 q 236 226 236 229 l 236 17 q 231 5 236 10 q 219 0 226 0 l 92 0 z "},"l":{"ha":304,"x_min":72,"x_max":233,"o":"m 89 0 q 77 5 82 0 q 72 17 72 10 l 72 956 q 77 967 72 963 q 89 972 82 972 l 217 972 q 228 967 224 972 q 233 956 233 963 l 233 17 q 228 5 233 10 q 217 0 224 0 l 89 0 z "},"ĺ":{"ha":304,"x_min":72,"x_max":297,"o":"m 89 0 q 77 5 82 0 q 72 17 72 10 l 72 956 q 77 967 72 963 q 89 972 82 972 l 217 972 q 228 967 224 972 q 233 956 233 963 l 233 17 q 228 5 233 10 q 217 0 224 0 l 89 0 m 88 1061 q 75 1067 78 1061 q 76 1081 72 1072 l 156 1224 q 176 1235 163 1235 l 281 1235 q 294 1228 290 1235 q 292 1214 297 1222 l 193 1072 q 174 1061 186 1061 l 88 1061 z "},"ľ":{"ha":547,"x_min":72,"x_max":501,"o":"m 89 0 q 77 5 82 0 q 72 17 72 10 l 72 956 q 77 967 72 963 q 89 972 82 972 l 217 972 q 228 967 224 972 q 233 956 233 963 l 233 17 q 228 5 233 10 q 217 0 224 0 l 89 0 z "},"ļ":{"ha":304,"x_min":-18,"x_max":233,"o":"m 89 0 q 77 5 82 0 q 72 17 72 10 l 72 956 q 77 967 72 963 q 89 972 82 972 l 217 972 q 228 967 224 972 q 233 956 233 963 l 233 17 q 228 5 233 10 q 217 0 224 0 l 89 0 z "},"ŀ":{"ha":340,"x_min":74,"x_max":269,"o":"m 107 0 q 95 5 100 0 q 90 17 90 10 l 90 956 q 95 967 90 963 q 107 972 100 972 l 235 972 q 247 967 242 972 q 251 956 251 963 l 251 17 q 247 5 251 10 q 235 0 242 0 l 107 0 z "},"ł":{"ha":524,"x_min":26,"x_max":499,"o":"m 496 563 q 499 554 499 557 q 490 540 499 547 l 338 456 q 333 447 333 453 l 333 17 q 328 5 333 10 q 317 0 324 0 l 189 0 q 177 5 182 0 q 172 17 172 10 l 172 354 q 169 360 172 358 q 164 360 167 363 l 92 318 q 82 315 86 315 q 68 325 74 315 l 29 400 q 26 408 26 406 q 35 422 26 417 l 168 497 q 172 506 172 500 l 172 956 q 177 967 172 963 q 189 972 182 972 l 317 972 q 328 967 324 972 q 333 956 333 963 l 333 601 q 336 596 333 597 q 342 596 339 594 l 431 646 q 439 649 436 649 q 453 640 447 649 l 496 563 z "},"m":{"ha":1038,"x_min":75,"x_max":969,"o":"m 764 721 q 916 657 863 721 q 969 479 969 593 l 969 17 q 965 5 969 10 q 953 0 960 0 l 826 0 q 815 5 819 0 q 810 17 810 10 l 810 457 q 782 549 810 515 q 708 582 754 582 q 631 549 660 582 q 603 458 603 515 l 603 17 q 598 5 603 10 q 586 0 593 0 l 458 0 q 447 5 451 0 q 442 17 442 10 l 442 457 q 414 549 442 515 q 340 582 386 582 q 263 549 292 582 q 235 458 235 515 l 235 17 q 230 5 235 10 q 218 0 225 0 l 92 0 q 80 5 85 0 q 75 17 75 10 l 75 693 q 80 705 75 700 q 92 710 85 710 l 218 710 q 230 705 225 710 q 235 693 235 700 l 235 658 q 238 653 235 654 q 243 656 240 653 q 397 721 300 721 q 503 695 458 721 q 572 622 547 669 q 578 619 575 619 q 582 625 581 619 q 662 698 614 675 q 764 721 710 721 z "},"n":{"ha":682,"x_min":75,"x_max":613,"o":"m 397 721 q 556 657 499 721 q 613 481 613 593 l 613 17 q 608 5 613 10 q 596 0 603 0 l 468 0 q 456 5 461 0 q 451 17 451 10 l 451 458 q 423 549 451 515 q 346 582 394 582 q 266 548 296 582 q 236 457 236 514 l 236 17 q 231 5 236 10 q 219 0 226 0 l 92 0 q 80 5 85 0 q 75 17 75 10 l 75 693 q 80 705 75 700 q 92 710 85 710 l 219 710 q 231 705 226 710 q 236 693 236 700 l 236 657 q 239 651 236 653 q 244 654 242 650 q 397 721 300 721 z "},"ń":{"ha":682,"x_min":75,"x_max":613,"o":"m 397 721 q 556 657 499 721 q 613 481 613 593 l 613 17 q 608 5 613 10 q 596 0 603 0 l 468 0 q 456 5 461 0 q 451 17 451 10 l 451 458 q 423 549 451 515 q 346 582 394 582 q 266 548 296 582 q 236 457 236 514 l 236 17 q 231 5 236 10 q 219 0 226 0 l 92 0 q 80 5 85 0 q 75 17 75 10 l 75 693 q 80 705 75 700 q 92 710 85 710 l 219 710 q 231 705 226 710 q 236 693 236 700 l 236 657 q 239 651 236 653 q 244 654 242 650 q 397 721 300 721 m 281 799 q 268 804 271 799 q 269 818 265 810 l 349 961 q 369 972 356 972 l 474 972 q 487 966 483 972 q 485 951 490 960 l 386 810 q 367 799 379 799 l 281 799 z "},"ň":{"ha":682,"x_min":75,"x_max":613,"o":"m 397 721 q 556 657 499 721 q 613 481 613 593 l 613 17 q 608 5 613 10 q 596 0 603 0 l 468 0 q 456 5 461 0 q 451 17 451 10 l 451 458 q 423 549 451 515 q 346 582 394 582 q 266 548 296 582 q 236 457 236 514 l 236 17 q 231 5 236 10 q 219 0 226 0 l 92 0 q 80 5 85 0 q 75 17 75 10 l 75 693 q 80 705 75 700 q 92 710 85 710 l 219 710 q 231 705 226 710 q 236 693 236 700 l 236 657 q 239 651 236 653 q 244 654 242 650 q 397 721 300 721 m 164 951 q 161 961 161 956 q 174 972 161 972 l 272 972 q 292 961 286 972 l 347 871 q 353 867 350 867 q 357 871 356 867 l 413 961 q 432 972 418 972 l 531 972 q 544 966 540 972 q 542 951 547 960 l 443 808 q 424 797 436 797 l 278 797 q 258 808 265 797 l 164 951 z "},"ŋ":{"ha":683,"x_min":75,"x_max":615,"o":"m 614 308 l 615 308 l 615 8 q 597 -136 615 -82 q 523 -221 579 -190 q 356 -251 467 -251 q 335 -235 335 -251 l 335 -136 q 351 -119 335 -119 q 429 -89 407 -117 q 454 -7 451 -61 l 453 0 l 451 0 l 451 458 q 423 549 451 515 q 346 582 394 582 q 266 548 296 582 q 236 457 236 514 l 236 17 q 231 5 236 10 q 219 0 226 0 l 92 0 q 80 5 85 0 q 75 17 75 10 l 75 693 q 80 705 75 700 q 92 710 85 710 l 219 710 q 231 705 226 710 q 236 693 236 700 l 236 657 q 239 651 236 653 q 244 654 242 650 q 397 721 300 721 q 556 657 499 721 q 613 481 613 593 l 613 315 l 614 308 z "},"ñ":{"ha":682,"x_min":75,"x_max":613,"o":"m 292 867 q 229 838 254 867 q 217 829 224 829 q 206 835 214 829 l 163 875 q 157 897 151 886 q 210 958 178 938 q 282 979 243 979 q 326 972 306 979 q 372 947 346 964 q 390 937 378 944 q 413 926 403 929 q 435 922 424 922 q 493 954 472 922 q 506 963 500 963 q 517 957 511 963 l 557 917 q 561 894 567 907 q 508 835 542 856 q 435 815 475 815 q 395 822 411 815 q 354 843 379 829 q 333 854 347 847 q 310 864 319 861 q 292 867 301 867 m 397 721 q 556 657 499 721 q 613 481 613 593 l 613 17 q 608 5 613 10 q 596 0 603 0 l 468 0 q 456 5 461 0 q 451 17 451 10 l 451 458 q 423 549 451 515 q 346 582 394 582 q 266 548 296 582 q 236 457 236 514 l 236 17 q 231 5 236 10 q 219 0 226 0 l 92 0 q 80 5 85 0 q 75 17 75 10 l 75 693 q 80 705 75 700 q 92 710 85 710 l 219 710 q 231 705 226 710 q 236 693 236 700 l 236 657 q 239 651 236 653 q 244 654 242 650 q 397 721 300 721 z "},"o":{"ha":681,"x_min":57,"x_max":622,"o":"m 340 -11 q 156 49 228 -11 q 68 213 83 110 q 57 356 57 279 q 68 501 57 435 q 157 662 83 603 q 342 721 231 721 q 524 662 451 721 q 611 503 596 603 q 622 357 622 433 q 613 214 622 274 q 525 49 597 110 q 340 -11 453 -11 m 340 128 q 417 158 386 128 q 456 239 449 189 q 461 356 461 311 q 456 474 461 401 q 417 553 449 524 q 340 582 386 582 q 263 553 293 582 q 225 474 232 524 q 219 356 219 425 q 225 239 219 285 q 263 158 232 189 q 340 128 293 128 z "},"ó":{"ha":678,"x_min":57,"x_max":622,"o":"m 340 -11 q 156 49 228 -11 q 68 213 83 110 q 57 356 57 279 q 68 501 57 435 q 157 662 83 603 q 342 721 231 721 q 524 662 451 721 q 611 503 596 603 q 622 357 622 433 q 613 214 622 274 q 525 49 597 110 q 340 -11 453 -11 m 340 128 q 417 158 386 128 q 456 239 449 189 q 461 356 461 311 q 456 474 461 401 q 417 553 449 524 q 340 582 386 582 q 263 553 293 582 q 225 474 232 524 q 219 356 219 425 q 225 239 219 285 q 263 158 232 189 q 340 128 293 128 m 274 799 q 261 804 264 799 q 263 818 258 810 l 342 961 q 363 972 349 972 l 467 972 q 480 966 476 972 q 478 951 483 960 l 379 810 q 360 799 372 799 l 274 799 z "},"ŏ":{"ha":678,"x_min":57,"x_max":622,"o":"m 340 -11 q 156 49 228 -11 q 68 213 83 110 q 57 356 57 279 q 68 501 57 435 q 157 662 83 603 q 342 721 231 721 q 524 662 451 721 q 611 503 596 603 q 622 357 622 433 q 613 214 622 274 q 525 49 597 110 q 340 -11 453 -11 m 340 128 q 417 158 386 128 q 456 239 449 189 q 461 356 461 311 q 456 474 461 401 q 417 553 449 524 q 340 582 386 582 q 263 553 293 582 q 225 474 232 524 q 219 356 219 425 q 225 239 219 285 q 263 158 232 189 q 340 128 293 128 m 339 792 q 216 833 265 792 q 160 938 167 874 l 160 940 q 175 954 160 954 l 235 954 q 251 939 249 954 q 282 888 258 907 q 339 869 306 869 q 397 889 372 869 q 426 939 421 908 q 443 954 429 954 l 503 954 q 519 939 519 954 q 463 833 513 875 q 339 792 413 792 z "},"ô":{"ha":678,"x_min":57,"x_max":622,"o":"m 340 -11 q 156 49 228 -11 q 68 213 83 110 q 57 356 57 279 q 68 501 57 435 q 157 662 83 603 q 342 721 231 721 q 524 662 451 721 q 611 503 596 603 q 622 357 622 433 q 613 214 622 274 q 525 49 597 110 q 340 -11 453 -11 m 340 128 q 417 158 386 128 q 456 239 449 189 q 461 356 461 311 q 456 474 461 401 q 417 553 449 524 q 340 582 386 582 q 263 553 293 582 q 225 474 232 524 q 219 356 219 425 q 225 239 219 285 q 263 158 232 189 q 340 128 293 128 m 160 797 q 147 803 150 797 q 150 818 144 810 l 244 961 q 264 972 251 972 l 410 972 q 429 961 422 972 l 528 818 q 531 808 531 814 q 517 797 531 797 l 418 797 q 399 808 404 797 l 343 899 q 338 903 340 903 q 333 899 335 903 l 278 808 q 258 797 272 797 l 160 797 z "},"ố":{"ha":678,"x_min":57,"x_max":749,"o":"m 340 -11 q 156 49 228 -11 q 68 213 83 110 q 57 356 57 279 q 68 501 57 435 q 157 662 83 603 q 342 721 231 721 q 524 662 451 721 q 611 503 596 603 q 622 357 622 433 q 613 214 622 274 q 525 49 597 110 q 340 -11 453 -11 m 340 128 q 417 158 386 128 q 456 239 449 189 q 461 356 461 311 q 456 474 461 401 q 417 553 449 524 q 340 582 386 582 q 263 553 293 582 q 225 474 232 524 q 219 356 219 425 q 225 239 219 285 q 263 158 232 189 q 340 128 293 128 z "},"ộ":{"ha":678,"x_min":57,"x_max":622,"o":"m 340 -11 q 156 49 228 -11 q 68 213 83 110 q 57 356 57 279 q 68 501 57 435 q 157 662 83 603 q 342 721 231 721 q 524 662 451 721 q 611 503 596 603 q 622 357 622 433 q 613 214 622 274 q 525 49 597 110 q 340 -11 453 -11 m 340 128 q 417 158 386 128 q 456 239 449 189 q 461 356 461 311 q 456 474 461 401 q 417 553 449 524 q 340 582 386 582 q 263 553 293 582 q 225 474 232 524 q 219 356 219 425 q 225 239 219 285 q 263 158 232 189 q 340 128 293 128 m 340 -297 q 272 -270 299 -297 q 246 -203 246 -243 q 272 -136 246 -162 q 340 -110 299 -110 q 407 -136 381 -110 q 433 -203 433 -162 q 407 -270 433 -243 q 340 -297 381 -297 m 160 797 q 147 803 150 797 q 150 818 144 810 l 244 961 q 264 972 251 972 l 410 972 q 429 961 422 972 l 528 818 q 531 808 531 814 q 517 797 531 797 l 418 797 q 399 808 404 797 l 343 899 q 338 903 340 903 q 333 899 335 903 l 278 808 q 258 797 272 797 l 160 797 z "},"ồ":{"ha":678,"x_min":57,"x_max":622,"o":"m 340 -11 q 156 49 228 -11 q 68 213 83 110 q 57 356 57 279 q 68 501 57 435 q 157 662 83 603 q 342 721 231 721 q 524 662 451 721 q 611 503 596 603 q 622 357 622 433 q 613 214 622 274 q 525 49 597 110 q 340 -11 453 -11 m 340 128 q 417 158 386 128 q 456 239 449 189 q 461 356 461 311 q 456 474 461 401 q 417 553 449 524 q 340 582 386 582 q 263 553 293 582 q 225 474 232 524 q 219 356 219 425 q 225 239 219 285 q 263 158 232 189 q 340 128 293 128 z "},"ổ":{"ha":678,"x_min":57,"x_max":668,"o":"m 340 -11 q 156 49 228 -11 q 68 213 83 110 q 57 356 57 279 q 68 501 57 435 q 157 662 83 603 q 342 721 231 721 q 524 662 451 721 q 611 503 596 603 q 622 357 622 433 q 613 214 622 274 q 525 49 597 110 q 340 -11 453 -11 m 340 128 q 417 158 386 128 q 456 239 449 189 q 461 356 461 311 q 456 474 461 401 q 417 553 449 524 q 340 582 386 582 q 263 553 293 582 q 225 474 232 524 q 219 356 219 425 q 225 239 219 285 q 263 158 232 189 q 340 128 293 128 m 521 939 q 509 947 513 942 q 510 961 506 953 q 554 1026 524 996 q 576 1054 569 1043 q 582 1083 582 1065 q 569 1110 582 1099 q 538 1122 556 1122 q 504 1113 518 1122 q 472 1081 490 1104 q 458 1072 467 1072 q 447 1076 451 1072 l 413 1101 q 406 1114 406 1108 q 410 1125 406 1119 q 467 1183 438 1165 q 542 1200 496 1200 q 633 1168 599 1200 q 668 1083 668 1136 q 656 1034 668 1054 q 617 986 643 1014 q 581 942 592 961 q 560 932 572 931 l 521 939 m 160 797 q 147 803 150 797 q 150 818 144 810 l 244 961 q 264 972 251 972 l 410 972 q 429 961 422 972 l 528 818 q 531 808 531 814 q 517 797 531 797 l 418 797 q 399 808 404 797 l 343 899 q 338 903 340 903 q 333 899 335 903 l 278 808 q 258 797 272 797 l 160 797 z "},"ỗ":{"ha":678,"x_min":57,"x_max":622,"o":"m 340 -11 q 156 49 228 -11 q 68 213 83 110 q 57 356 57 279 q 68 501 57 435 q 157 662 83 603 q 342 721 231 721 q 524 662 451 721 q 611 503 596 603 q 622 357 622 433 q 613 214 622 274 q 525 49 597 110 q 340 -11 453 -11 m 340 128 q 417 158 386 128 q 456 239 449 189 q 461 356 461 311 q 456 474 461 401 q 417 553 449 524 q 340 582 386 582 q 263 553 293 582 q 225 474 232 524 q 219 356 219 425 q 225 239 219 285 q 263 158 232 189 q 340 128 293 128 z "},"ö":{"ha":678,"x_min":57,"x_max":622,"o":"m 340 -11 q 156 49 228 -11 q 68 213 83 110 q 57 356 57 279 q 68 501 57 435 q 157 662 83 603 q 342 721 231 721 q 524 662 451 721 q 611 503 596 603 q 622 357 622 433 q 613 214 622 274 q 525 49 597 110 q 340 -11 453 -11 m 340 128 q 417 158 386 128 q 456 239 449 189 q 461 356 461 311 q 456 474 461 401 q 417 553 449 524 q 340 582 386 582 q 263 553 293 582 q 225 474 232 524 q 219 356 219 425 q 225 239 219 285 q 263 158 232 189 q 340 128 293 128 z "},"ọ":{"ha":678,"x_min":57,"x_max":622,"o":"m 340 -11 q 156 49 228 -11 q 68 213 83 110 q 57 356 57 279 q 68 501 57 435 q 157 662 83 603 q 342 721 231 721 q 524 662 451 721 q 611 503 596 603 q 622 357 622 433 q 613 214 622 274 q 525 49 597 110 q 340 -11 453 -11 m 340 128 q 417 158 386 128 q 456 239 449 189 q 461 356 461 311 q 456 474 461 401 q 417 553 449 524 q 340 582 386 582 q 263 553 293 582 q 225 474 232 524 q 219 356 219 425 q 225 239 219 285 q 263 158 232 189 q 340 128 293 128 m 340 -297 q 272 -270 299 -297 q 246 -203 246 -243 q 272 -136 246 -162 q 340 -110 299 -110 q 407 -136 381 -110 q 433 -203 433 -162 q 407 -270 433 -243 q 340 -297 381 -297 z "},"ò":{"ha":678,"x_min":57,"x_max":622,"o":"m 340 -11 q 156 49 228 -11 q 68 213 83 110 q 57 356 57 279 q 68 501 57 435 q 157 662 83 603 q 342 721 231 721 q 524 662 451 721 q 611 503 596 603 q 622 357 622 433 q 613 214 622 274 q 525 49 597 110 q 340 -11 453 -11 m 340 128 q 417 158 386 128 q 456 239 449 189 q 461 356 461 311 q 456 474 461 401 q 417 553 449 524 q 340 582 386 582 q 263 553 293 582 q 225 474 232 524 q 219 356 219 425 q 225 239 219 285 q 263 158 232 189 q 340 128 293 128 m 392 818 q 394 810 394 813 q 381 799 394 799 l 294 799 q 275 810 282 799 l 175 951 q 172 961 172 956 q 186 972 172 972 l 292 972 q 313 961 306 972 l 392 818 z "},"ỏ":{"ha":678,"x_min":57,"x_max":622,"o":"m 340 -11 q 156 49 228 -11 q 68 213 83 110 q 57 356 57 279 q 68 501 57 435 q 157 662 83 603 q 342 721 231 721 q 524 662 451 721 q 611 503 596 603 q 622 357 622 433 q 613 214 622 274 q 525 49 597 110 q 340 -11 453 -11 m 340 128 q 417 158 386 128 q 456 239 449 189 q 461 356 461 311 q 456 474 461 401 q 417 553 449 524 q 340 582 386 582 q 263 553 293 582 q 225 474 232 524 q 219 356 219 425 q 225 239 219 285 q 263 158 232 189 q 340 128 293 128 m 325 772 q 314 793 306 776 q 360 861 329 831 q 382 888 375 876 q 389 919 389 900 q 375 947 389 935 q 343 958 361 958 q 308 949 322 958 q 275 915 294 940 q 263 907 271 907 q 251 911 256 907 l 215 938 q 208 950 208 942 q 211 961 208 957 q 270 1021 240 1003 q 347 1039 300 1039 q 441 1006 406 1039 q 476 919 476 974 q 463 867 476 888 q 424 819 450 846 q 388 775 399 794 q 367 764 381 763 l 325 772 z "},"ơ":{"ha":678,"x_min":57,"x_max":622,"o":"m 611 503 q 622 357 622 433 q 613 214 622 274 q 525 49 597 110 q 340 -11 453 -11 q 156 49 228 -11 q 68 213 83 110 q 57 356 57 279 q 68 501 57 435 q 157 662 83 603 q 342 721 231 721 q 424 711 381 721 q 432 710 426 710 q 492 738 467 714 q 521 810 517 761 q 539 826 524 826 l 599 826 q 615 810 615 826 q 535 663 607 710 q 533 653 529 658 q 611 503 596 596 m 456 239 q 461 356 461 311 q 456 474 461 401 q 417 553 449 524 q 340 582 386 582 q 263 553 293 582 q 225 474 232 524 q 219 356 219 425 q 225 239 219 285 q 263 158 232 189 q 340 128 293 128 q 417 158 386 128 q 456 239 449 189 z "},"ớ":{"ha":678,"x_min":57,"x_max":622,"o":"m 611 503 q 622 357 622 433 q 613 214 622 274 q 525 49 597 110 q 340 -11 453 -11 q 156 49 228 -11 q 68 213 83 110 q 57 356 57 279 q 68 501 57 435 q 157 662 83 603 q 342 721 231 721 q 424 711 381 721 q 432 710 426 710 q 492 738 467 714 q 521 810 517 761 q 539 826 524 826 l 599 826 q 615 810 615 826 q 535 663 607 710 q 533 653 529 658 q 611 503 596 596 m 456 239 q 461 356 461 311 q 456 474 461 401 q 417 553 449 524 q 340 582 386 582 q 263 553 293 582 q 225 474 232 524 q 219 356 219 425 q 225 239 219 285 q 263 158 232 189 q 340 128 293 128 q 417 158 386 128 q 456 239 449 189 m 274 799 q 261 804 264 799 q 263 818 258 810 l 342 961 q 363 972 349 972 l 467 972 q 480 966 476 972 q 478 951 483 960 l 379 810 q 360 799 372 799 l 274 799 z "},"ợ":{"ha":678,"x_min":57,"x_max":622,"o":"m 611 503 q 622 357 622 433 q 613 214 622 274 q 525 49 597 110 q 340 -11 453 -11 q 156 49 228 -11 q 68 213 83 110 q 57 356 57 279 q 68 501 57 435 q 157 662 83 603 q 342 721 231 721 q 424 711 381 721 q 432 710 426 710 q 492 738 467 714 q 521 810 517 761 q 539 826 524 826 l 599 826 q 615 810 615 826 q 535 663 607 710 q 533 653 529 658 q 611 503 596 596 m 456 239 q 461 356 461 311 q 456 474 461 401 q 417 553 449 524 q 340 582 386 582 q 263 553 293 582 q 225 474 232 524 q 219 356 219 425 q 225 239 219 285 q 263 158 232 189 q 340 128 293 128 q 417 158 386 128 q 456 239 449 189 m 340 -297 q 272 -270 299 -297 q 246 -203 246 -243 q 272 -136 246 -162 q 340 -110 299 -110 q 407 -136 381 -110 q 433 -203 433 -162 q 407 -270 433 -243 q 340 -297 381 -297 z "},"ờ":{"ha":678,"x_min":57,"x_max":622,"o":"m 611 503 q 622 357 622 433 q 613 214 622 274 q 525 49 597 110 q 340 -11 453 -11 q 156 49 228 -11 q 68 213 83 110 q 57 356 57 279 q 68 501 57 435 q 157 662 83 603 q 342 721 231 721 q 424 711 381 721 q 432 710 426 710 q 492 738 467 714 q 521 810 517 761 q 539 826 524 826 l 599 826 q 615 810 615 826 q 535 663 607 710 q 533 653 529 658 q 611 503 596 596 m 456 239 q 461 356 461 311 q 456 474 461 401 q 417 553 449 524 q 340 582 386 582 q 263 553 293 582 q 225 474 232 524 q 219 356 219 425 q 225 239 219 285 q 263 158 232 189 q 340 128 293 128 q 417 158 386 128 q 456 239 449 189 m 392 818 q 394 810 394 813 q 381 799 394 799 l 294 799 q 275 810 282 799 l 175 951 q 172 961 172 956 q 186 972 172 972 l 292 972 q 313 961 306 972 l 392 818 z "}}}
